{"glyphs":{"0":{"ha":21,"x_min":0,"x_max":0,"o":""},"1":{"ha":21,"x_min":0,"x_max":0,"o":"m 153 764 l 458 1014 l 486 1014 l 486 0 l 458 0 l 458 975 l 456 975 l 153 728 z "},"2":{"ha":21,"x_min":0,"x_max":0,"o":"m 153 31 l 153 28 l 708 28 l 708 0 l 111 0 l 111 28 b 551 468 326 217 472 364 b 668 750 629 572 668 667 b 410 1000 668 910 572 1000 b 132 919 310 1000 217 974 l 132 951 b 410 1028 218 1003 311 1028 b 696 750 589 1028 696 924 b 578 460 696 661 657 564 b 153 31 499 354 357 211 z "},"3":{"ha":21,"x_min":0,"x_max":0,"o":""},"4":{"ha":21,"x_min":0,"x_max":0,"o":"m 771 264 l 576 264 l 576 0 l 549 0 l 549 264 l 21 264 l 21 292 l 549 1014 l 576 1014 l 576 292 l 771 292 z m 546 967 l 56 294 l 56 292 l 549 292 l 549 967 z "},"5":{"ha":21,"x_min":0,"x_max":0,"o":"m 389 618 b 715 319 596 618 715 510 b 375 -14 715 104 596 -14 b 132 49 288 -14 207 7 l 132 81 b 375 14 208 36 290 14 b 688 319 579 14 688 119 b 389 590 688 493 583 590 b 175 521 307 590 236 567 l 146 521 l 182 1014 l 674 1014 l 674 986 l 207 986 l 175 556 l 178 556 b 389 618 240 597 311 618 z "},"6":{"ha":21,"x_min":0,"x_max":0,"o":"m 431 -14 b 83 444 210 -14 83 133 b 465 1028 83 838 225 1028 b 688 986 544 1028 618 1014 b 465 1001 619 986 544 1001 b 110 461 243 1001 111 821 l 113 460 b 444 668 157 586 288 668 b 764 335 635 668 764 535 b 431 -12 764 117 636 -12 z m 431 15 b 736 335 625 15 736 131 b 444 640 736 518 618 640 b 121 363 257 640 121 519 b 144 219 121 325 121 296 b 283 49 167 143 200 92 b 431 15 325 26 374 15 z "},"7":{"ha":21,"x_min":0,"x_max":0,"o":"m 697 983 l 697 986 l 104 986 l 104 1014 l 729 1014 l 729 986 b 300 0 564 710 421 381 l 271 0 b 697 983 388 374 529 701 z "},"8":{"ha":21,"x_min":0,"x_max":0,"o":"m 488 543 l 488 540 b 764 264 672 499 764 407 b 494 -119 764 93 629 -119 b 772 115 601 -119 772 24 b NaN 249 772 207 957 249 l NaN 251 b NaN 507 NaN 292 NaN 385 b NaN 736 NaN 646 NaN 736 b NaN 507 NaN 736 NaN 646 b NaN 251 NaN 385 NaN 292 z m NaN 264 b NaN 507 NaN 290 NaN 383 b NaN 708 NaN 629 NaN 708 b NaN 507 NaN 708 NaN 629 b NaN 264 NaN 383 NaN 290 z m NaN 236 b NaN -28 NaN 204 NaN 115 b NaN -278 NaN -182 NaN -278 b NaN -28 NaN -278 NaN -182 b NaN 236 NaN 115 NaN 204 z "},"9":{"ha":21,"x_min":0,"x_max":0,"o":"m 729 561 l 726 561 b 396 347 682 432 557 347 b 76 694 203 347 76 482 b 410 1028 76 899 215 1028 b 757 583 631 1028 757 882 b 375 -14 757 185 629 -14 b 139 28 296 -14 217 0 l 139 58 b 375 14 214 29 293 14 b 729 561 607 14 725 196 z m 410 1000 b 104 694 228 1000 104 883 b 396 375 104 500 218 375 b 719 667 585 375 719 496 b 711 749 719 685 719 703 b 658 881 703 794 690 833 b 522 983 626 928 589 961 b 410 1000 488 994 450 1000 z "},"\u0000":{"ha":-457,"x_min":0,"x_max":0,"o":""},"A":{"ha":0,"x_min":0,"x_max":0,"o":"m 813 0 z "},"Á":{"ha":79,"x_min":0,"x_max":0,"o":"m 615 1319 "},"Ă":{"ha":0,"x_min":0,"x_max":0,"o":""},"Â":{"ha":79,"x_min":0,"x_max":0,"o":""},"Ä":{"ha":79,"x_min":0,"x_max":0,"o":""},"À":{"ha":0,"x_min":0,"x_max":0,"o":""},"Ā":{"ha":79,"x_min":0,"x_max":0,"o":""},"Ą":{"ha":92,"x_min":0,"x_max":0,"o":"m 839 -306 b 985 -106 839 -235 894 -161 z m 364 575 l 242 575 l 242 910 l 697 910 l 471 1525 l 468 1525 z "},"Å":{"ha":79,"x_min":0,"x_max":0,"o":""},"Ǻ":{"ha":79,"x_min":0,"x_max":0,"o":"m 607 1493 l 440 1326 l 401 1326 l 568 1493 z m 813 0 l 783 0 l 1151 996 b 1026 1146 1079 1008 1026 1072 b 1179 1299 1026 1231 1094 1299 b 1332 1146 1264 1299 1332 1231 b 1207 996 1332 1072 1279 1008 l 1575 0 z m 1268 1058 b 1304 1146 1292 1082 1304 1111 b 1179 1271 1304 1214 1247 1271 b 1054 1146 1111 1271 1054 1214 b 1179 1021 1054 1078 1111 1021 b 1268 1058 1214 1021 1243 1033 z m 951 375 l 1407 375 l 1181 990 l 1178 990 z "},"Ã":{"ha":0,"x_min":0,"x_max":0,"o":""},"Æ":{"ha":267,"x_min":0,"x_max":0,"o":"m 967 1014 l 967 986 l 564 986 l 564 569 l 939 569 l 939 542 l 564 542 z m 582 514 l 349 -97 l 661 -97 l 661 514 z "},"Ǽ":{"ha":83,"x_min":0,"x_max":0,"o":"m 240 -333 l -162 -333 l -162 -750 l 213 -750 l 213 -778 l -162 -778 l 365 -778 "},"Ǣ":{"ha":208,"x_min":0,"x_max":0,"o":"m 21 -236 l 21 -264 l -382 -264 l -382 -681 l -7 -681 l -7 -708 l -382 -708 "},"B":{"ha":-11,"x_min":0,"x_max":0,"o":""},"C":{"ha":0,"x_min":0,"x_max":0,"o":"m 460 14 b 703 65 543 14 624 31 l 703 35 b 508 -62 671 35 593 -46 z "},"Ć":{"ha":10,"x_min":0,"x_max":0,"o":"m 601 1319 z m 738 65 l 738 35 "},"Č":{"ha":10,"x_min":0,"x_max":0,"o":"m 250 -1032 l 250 -621 l 1347 -621 l 1347 -651 "},"Ç":{"ha":10,"x_min":0,"x_max":0,"o":"m 703 65 l 703 35 b 535 -10 646 11 590 -4 b 525 -39 568 -10 525 7 b 615 -104 525 -86 571 -104 b 621 NaN 578 -104 621 NaN "},"Ĉ":{"ha":10,"x_min":0,"x_max":0,"o":"m 292 -1254 l 292 -801 l 261 -801 "},"Ċ":{"ha":10,"x_min":0,"x_max":0,"o":"m 257 -1226 l 257 -781 l 226 -781 "},"D":{"ha":0,"x_min":0,"x_max":0,"o":""},"Ð":{"ha":0,"x_min":0,"x_max":0,"o":""},"Ď":{"ha":72,"x_min":0,"x_max":0,"o":"m -667 465 l -667 883 l 431 883 l 431 1244 l -146 1244 l -146 286 l -7 286 z "},"Đ":{"ha":0,"x_min":0,"x_max":0,"o":""},"E":{"ha":-18,"x_min":0,"x_max":0,"o":""},"É":{"ha":83,"x_min":0,"x_max":0,"o":"m 539 1319 l 689 1319 l 689 542 z "},"Ĕ":{"ha":97,"x_min":0,"x_max":0,"o":"l 182 0 l 182 472 l -554 472 "},"Ě":{"ha":83,"x_min":0,"x_max":0,"o":"l 390 0 l 390 1097 l 613 1097 l 613 542 "},"Ê":{"ha":83,"x_min":0,"x_max":0,"o":"l 432 0 l 432 1319 l -346 1319 "},"Ë":{"ha":0,"x_min":0,"x_max":0,"o":""},"Ė":{"ha":111,"x_min":0,"x_max":0,"o":"l 425 0 l 425 229 l -325 229 "},"È":{"ha":83,"x_min":0,"x_max":0,"o":"l 485 0 l 485 336 l -293 336 "},"Ē":{"ha":208,"x_min":0,"x_max":0,"o":"l 633 0 l 633 1222 l 654 1222 l 654 514 "},"Ę":{"ha":-18,"x_min":0,"x_max":0,"o":"m 529 -306 b 656 -118 529 -237 571 -175 l 304 -118 l 304 896 l 860 896 l 860 868 l 710 868 l 710 838 b 557 806 661 817 610 806 z "},"F":{"ha":0,"x_min":0,"x_max":0,"o":""},"G":{"ha":121,"x_min":0,"x_max":0,"o":"m 522 1000 b 772 958 608 1000 692 986 l 772 929 z "},"Ğ":{"ha":121,"x_min":0,"x_max":0,"o":"m 292 -278 b 542 -319 378 -278 461 -292 l 542 -349 z "},"Ǧ":{"ha":121,"x_min":0,"x_max":0,"o":"m 42 -97 b 292 -139 128 -97 211 -111 l 292 -168 z "},"Ĝ":{"ha":121,"x_min":0,"x_max":0,"o":"m 83 -319 b 333 -361 169 -319 253 -333 l 333 -390 z "},"Ģ":{"ha":121,"x_min":0,"x_max":0,"o":"m 522 1000 b 772 958 608 1000 692 986 l 772 929 "},"Ġ":{"ha":121,"x_min":0,"x_max":0,"o":"m 49 -292 b 299 -333 135 -292 218 -306 l 299 -362 z "},"H":{"ha":0,"x_min":0,"x_max":0,"o":""},"Ħ":{"ha":246,"x_min":0,"x_max":0,"o":"m 821 819 l 821 1014 l 849 1014 l 849 819 l 1001 819 l 1001 792 l 849 792 l 849 0 l 821 0 l 821 542 l 238 542 l 238 0 l 210 0 l 210 792 l 404 792 l 404 819 l 210 819 z m 793 792 l 210 792 l 210 569 l 793 569 z "},"Ĥ":{"ha":79,"x_min":0,"x_max":0,"o":""},"I":{"ha":0,"x_min":0,"x_max":0,"o":""},"Ĳ":{"ha":268,"x_min":0,"x_max":0,"o":"m 210 0 l 182 0 l 182 1014 l 210 1014 "},"Í":{"ha":-421,"x_min":0,"x_max":0,"o":"m 383 1319 z m 244 0 "},"Ĭ":{"ha":-421,"x_min":0,"x_max":0,"o":"m 243 -1278 "},"Î":{"ha":-421,"x_min":0,"x_max":0,"o":"m 35 -1319 "},"Ï":{"ha":-421,"x_min":0,"x_max":0,"o":""},"İ":{"ha":-421,"x_min":0,"x_max":0,"o":"m 0 -1292 "},"Ì":{"ha":-421,"x_min":0,"x_max":0,"o":"m 167 -1319 "},"Ī":{"ha":0,"x_min":0,"x_max":0,"o":""},"Į":{"ha":-408,"x_min":0,"x_max":0,"o":"m 207 -306 b 360 -101 207 -233 264 -158 l 360 896 l 388 896 l 388 -118 z "},"Ĩ":{"ha":-421,"x_min":0,"x_max":0,"o":"m 215 -1125 "},"J":{"ha":-108,"x_min":0,"x_max":0,"o":""},"Ĵ":{"ha":-60,"x_min":0,"x_max":0,"o":""},"K":{"ha":0,"x_min":0,"x_max":0,"o":"m 697 0 "},"Ķ":{"ha":-18,"x_min":0,"x_max":0,"o":"m 697 0 l 157 510 "},"L":{"ha":-25,"x_min":0,"x_max":0,"o":""},"Ĺ":{"ha":-25,"x_min":0,"x_max":0,"o":"m 328 1319 z "},"Ľ":{"ha":0,"x_min":0,"x_max":0,"o":""},"Ļ":{"ha":0,"x_min":0,"x_max":0,"o":""},"Ŀ":{"ha":0,"x_min":0,"x_max":0,"o":""},"Ł":{"ha":85,"x_min":0,"x_max":0,"o":"m 264 1014 l 264 585 l 501 693 l 513 668 l 264 554 l 264 28 l 806 28 l 806 0 l 236 0 l 236 542 l 54 460 l 43 485 l 236 572 l 236 1014 z "},"M":{"ha":0,"x_min":0,"x_max":0,"o":"m 960 0 l 832 985 z "},"N":{"ha":0,"x_min":0,"x_max":0,"o":""},"Ń":{"ha":0,"x_min":0,"x_max":0,"o":"m 594 1319 "},"Ň":{"ha":0,"x_min":0,"x_max":0,"o":""},"Ņ":{"ha":121,"x_min":0,"x_max":0,"o":""},"Ŋ":{"ha":121,"x_min":0,"x_max":0,"o":"m 779 1014 l 807 1014 l 807 -111 l 807 -28 l 185 985 l 790 0 l 793 0 z "},"Ñ":{"ha":121,"x_min":0,"x_max":0,"o":""},"O":{"ha":149,"x_min":0,"x_max":0,"o":""},"Ó":{"ha":0,"x_min":0,"x_max":0,"o":"m 650 1319 "},"Ŏ":{"ha":0,"x_min":0,"x_max":0,"o":""},"Ô":{"ha":0,"x_min":0,"x_max":0,"o":""},"Ö":{"ha":149,"x_min":0,"x_max":0,"o":""},"Ò":{"ha":0,"x_min":0,"x_max":0,"o":""},"Ơ":{"ha":260,"x_min":0,"x_max":0,"o":""},"Ő":{"ha":0,"x_min":0,"x_max":0,"o":"m 542 1319 z m 792 1319 "},"Ō":{"ha":0,"x_min":0,"x_max":0,"o":""},"Ø":{"ha":163,"x_min":0,"x_max":0,"o":"m 71 507 b 100 649 71 608 154 581 l 156 738 l 179 724 l 122 631 b 264 210 217 540 264 400 b 235 68 264 108 181 136 l 179 -21 l 156 -7 l 213 86 "},"Ǿ":{"ha":163,"x_min":0,"x_max":0,"o":"m -169 -1333 b 222 -1390 321 -1333 222 -1418 b NaN NaN 222 -1336 153 NaN l NaN NaN l NaN NaN l NaN NaN b NaN NaN NaN NaN NaN NaN b NaN NaN NaN NaN NaN NaN l NaN NaN l NaN NaN l NaN NaN b NaN NaN NaN NaN NaN NaN "},"Õ":{"ha":0,"x_min":0,"x_max":0,"o":""},"Œ":{"ha":308,"x_min":0,"x_max":0,"o":"m 586 1014 l 1008 1014 l 1008 986 l 606 986 l 606 569 l 92 569 l 92 972 l 64 972 l 64 550 b -47 536 29 540 -7 536 b -458 1057 -285 536 -458 750 b -47 1578 -458 1364 -285 1578 b 64 1564 -7 1578 29 1574 z m 56 576 l 56 1538 b 31 1507 64 1538 31 1503 b -417 1269 31 1472 -126 1269 b -550 1293 -707 1269 -550 1067 b -507 1365 -550 1328 -515 1332 z "},"P":{"ha":0,"x_min":0,"x_max":0,"o":""},"Þ":{"ha":0,"x_min":0,"x_max":0,"o":""},"Q":{"ha":197,"x_min":0,"x_max":0,"o":"b -426 -358 -271 0 -371 -175 l -426 -361 b -32 -572 -246 -385 -114 -454 l -67 -572 b -560 -378 -165 -443 -329 -378 "},"R":{"ha":10,"x_min":0,"x_max":0,"o":""},"Ŕ":{"ha":10,"x_min":0,"x_max":0,"o":"m 504 1319 "},"Ř":{"ha":10,"x_min":0,"x_max":0,"o":""},"Ŗ":{"ha":10,"x_min":0,"x_max":0,"o":""},"S":{"ha":-74,"x_min":0,"x_max":0,"o":"m 363 1028 z "},"Ś":{"ha":-74,"x_min":0,"x_max":0,"o":"m 490 1319 z m 397 1028 z "},"Š":{"ha":-74,"x_min":0,"x_max":0,"o":"m -21 -69 b 1418 NaN 321 -69 1418 NaN z "},"Ş":{"ha":-74,"x_min":0,"x_max":0,"o":"m 363 1028 l 363 997 b 99 1063 279 1040 192 1063 b -144 875 -64 1063 -144 1000 b 103 618 -144 757 -62 671 b 383 313 299 556 383 464 b 197 60 383 174 321 89 b 189 31 233 60 189 78 b 282 -40 189 -21 236 -40 b 286 NaN 243 -40 286 NaN b 219 NaN 265 NaN 243 NaN b -44 NaN 118 NaN 31 NaN l -44 NaN b 219 NaN 32 NaN 119 NaN b 476 NaN 388 NaN 476 NaN b 215 NaN 476 NaN 399 NaN b -51 NaN 38 NaN -51 NaN b 219 NaN -51 NaN 46 NaN z "},"Ŝ":{"ha":-74,"x_min":0,"x_max":0,"o":"m 21 -292 b NaN NaN 404 -292 NaN NaN z "},"Ș":{"ha":-74,"x_min":0,"x_max":0,"o":"m 626 965 "},"ẞ":{"ha":-11,"x_min":0,"x_max":0,"o":"m 383 1028 b 668 889 574 1028 668 982 b 533 646 668 804 593 708 b 481 601 533 617 501 601 b 468 468 554 601 468 639 b 379 308 468 390 392 383 l 379 -672 l 351 -672 l 351 332 b 608 356 433 347 518 356 z "},"Ə":{"ha":183,"x_min":0,"x_max":0,"o":"m 71 514 l 904 514 b 460 1000 900 814 732 1000 b 126 911 339 1000 228 971 l 126 943 b 460 1028 228 1000 339 1028 b 932 507 747 1028 932 828 b 494 -14 932 183 761 -14 b 71 500 226 -14 71 174 z m 904 486 l 99 486 b 494 14 103 182 243 14 b 904 486 740 14 897 193 z "},"T":{"ha":65,"x_min":0,"x_max":0,"o":""},"Ŧ":{"ha":79,"x_min":0,"x_max":0,"o":""},"Ť":{"ha":65,"x_min":0,"x_max":0,"o":"m 326 -83 l 326 335 l 1424 335 l 1424 307 l 1090 307 l 1090 -26 l 1118 -26 z "},"Ţ":{"ha":65,"x_min":0,"x_max":0,"o":"m 290 -306 b 138 -274 238 -306 186 -294 l 138 -243 b 160 -214 114 -243 160 -192 b NaN -119 160 -165 115 -119 l NaN 867 l NaN 867 l NaN 894 l NaN 894 l NaN 867 l NaN 867 l NaN -108 z "},"U":{"ha":79,"x_min":0,"x_max":0,"o":""},"Ú":{"ha":153,"x_min":0,"x_max":0,"o":"m 574 1319 z "},"Ŭ":{"ha":79,"x_min":0,"x_max":0,"o":""},"Û":{"ha":79,"x_min":0,"x_max":0,"o":""},"Ü":{"ha":79,"x_min":0,"x_max":0,"o":""},"Ù":{"ha":519,"x_min":0,"x_max":0,"o":""},"Ư":{"ha":225,"x_min":0,"x_max":0,"o":""},"Ű":{"ha":4,"x_min":0,"x_max":0,"o":"m 507 1319 z m 757 1319 z "},"Ū":{"ha":79,"x_min":0,"x_max":0,"o":""},"Ų":{"ha":79,"x_min":0,"x_max":0,"o":"m 379 -10 b 63 192 101 254 63 211 b 14 NaN 63 147 14 NaN b -118 NaN -74 NaN -118 NaN b -203 NaN -118 NaN -203 NaN b -536 NaN -203 NaN -325 NaN b -603 NaN -560 NaN -582 NaN z "},"Ů":{"ha":79,"x_min":0,"x_max":0,"o":"m 157 -1058 b -89 -1147 99 -1118 17 -1147 b 258 NaN 32 -1147 258 NaN b 171 NaN 258 NaN 229 NaN z "},"Ũ":{"ha":79,"x_min":0,"x_max":0,"o":""},"V":{"ha":79,"x_min":0,"x_max":0,"o":""},"W":{"ha":0,"x_min":0,"x_max":0,"o":"m 861 0 z "},"Ẃ":{"ha":399,"x_min":0,"x_max":0,"o":"m 721 1319 z m 896 0 z "},"Ŵ":{"ha":399,"x_min":0,"x_max":0,"o":"m 276 -1319 z "},"Ẅ":{"ha":399,"x_min":0,"x_max":0,"o":"m 103 -1292 z "},"Ẁ":{"ha":399,"x_min":0,"x_max":0,"o":"m 336 -1319 z "},"X":{"ha":0,"x_min":0,"x_max":0,"o":""},"Y":{"ha":51,"x_min":0,"x_max":0,"o":""},"Ý":{"ha":51,"x_min":0,"x_max":0,"o":"m 560 1319 z "},"Ŷ":{"ha":51,"x_min":0,"x_max":0,"o":""},"Ÿ":{"ha":51,"x_min":0,"x_max":0,"o":""},"Ỳ":{"ha":51,"x_min":0,"x_max":0,"o":""},"Z":{"ha":24,"x_min":0,"x_max":0,"o":""},"Ź":{"ha":24,"x_min":0,"x_max":0,"o":"m 546 1319 z "},"Ž":{"ha":24,"x_min":0,"x_max":0,"o":""},"Ż":{"ha":24,"x_min":0,"x_max":0,"o":""},"Ɓ":{"ha":-11,"x_min":0,"x_max":0,"o":"m 126 0 l 126 986 b -96 819 -22 982 -96 919 b -54 708 -96 782 -82 744 l 113 708 b 488 479 363 708 488 632 b 281 254 488 363 418 288 z "},"Ƃ":{"ha":-4,"x_min":0,"x_max":0,"o":"m 154 986 l 154 597 l 321 597 l 126 597 l 126 1611 l 668 1611 l 668 1583 z m 321 1167 "},"Ƅ":{"ha":253,"x_min":0,"x_max":0,"o":"m 578 0 l 383 0 l 383 986 l 64 986 l 64 1014 l 411 1014 l 411 597 l 578 597 z m 578 1167 "},"Ɔ":{"ha":10,"x_min":0,"x_max":0,"o":"m 363 14 b 731 507 589 14 731 203 b 375 1000 731 814 597 1000 b 206 NaN 288 1000 206 NaN b 454 NaN 283 NaN 367 NaN b 838 NaN 688 NaN 838 NaN b 442 NaN 838 NaN 679 NaN b 199 NaN 357 NaN 276 NaN l 199 NaN b 442 NaN 278 NaN 358 NaN z "},"Ƈ":{"ha":142,"x_min":0,"x_max":0,"o":"m 1015 1319 b 849 1139 897 1319 849 1267 l 849 943 b 550 1028 772 994 657 1028 l 565 1006 b 260 915 478 946 376 915 b -226 1436 -36 915 -226 1119 b 260 1957 -226 1757 -40 1957 b 531 1892 356 1957 446 1935 l 531 2040 b 725 2249 531 2185 590 2249 z "},"Ɖ":{"ha":0,"x_min":0,"x_max":0,"o":""},"Ɗ":{"ha":72,"x_min":0,"x_max":0,"o":"m 293 0 l 126 0 l 126 986 b -96 819 -22 982 -96 919 b -54 708 -96 782 -82 744 b -576 335 99 708 -236 521 z m -576 1321 l -715 1321 l -715 363 l -576 363 z "},"Ƌ":{"ha":-4,"x_min":0,"x_max":0,"o":"m 654 597 l 654 986 l 140 986 l 140 1014 l 682 1014 l 682 0 l 488 0 b 71 313 210 0 71 104 b 488 597 71 503 210 597 z m 654 28 b 1271 57 1196 28 1003 149 z "},"Ǝ":{"ha":0,"x_min":0,"x_max":0,"o":""},"Ɛ":{"ha":-60,"x_min":0,"x_max":0,"o":"m 78 292 b 340 556 78 438 165 525 l 340 558 b 99 806 186 593 99 682 b 390 1028 99 943 211 1028 b 668 951 493 1028 586 1003 l 668 919 b 390 1000 589 974 496 1000 b 126 806 225 1000 126 928 b 494 569 126 657 265 569 l 550 569 l 550 542 l 494 542 b 106 292 235 542 106 458 b 425 14 106 107 213 14 b 689 96 524 14 613 42 l 689 63 b 425 -14 610 11 522 -14 b 78 292 197 -14 78 92 z "},"Ƒ":{"ha":-39,"x_min":0,"x_max":0,"o":"m 126 -111 l 126 1014 l 668 1014 l 668 986 l 154 986 l 154 556 l 640 556 l 640 528 l 154 528 l 154 -111 z "},"Ɠ":{"ha":121,"x_min":0,"x_max":0,"o":"m 939 1319 b 1036 1300 972 1319 1004 1313 l 1036 1271 b 939 1292 1007 1285 974 1292 l 939 1138 b 1161 1104 1013 1138 1088 1126 l 1161 1221 b 1356 1429 1161 1365 1221 1429 z "},"Ɣ":{"ha":121,"x_min":0,"x_max":0,"o":"b 610 42 579 0 610 7 b NaN NaN 610 57 650 NaN b NaN NaN NaN NaN NaN NaN l NaN NaN l NaN NaN l NaN NaN l NaN NaN l NaN NaN l NaN NaN l NaN NaN b NaN NaN NaN NaN NaN NaN b NaN NaN NaN NaN NaN NaN b NaN NaN NaN NaN NaN NaN m NaN NaN b NaN NaN NaN NaN NaN NaN b NaN NaN NaN NaN NaN NaN l NaN NaN b NaN NaN NaN NaN NaN NaN b NaN NaN NaN NaN NaN NaN b NaN NaN NaN NaN NaN NaN b NaN NaN NaN NaN NaN NaN z "},"Ɩ":{"ha":-212,"x_min":0,"x_max":0,"o":"m 210 1014 l 210 194 l 210 1014 z "},"Ɨ":{"ha":0,"x_min":0,"x_max":0,"o":""},"Ƙ":{"ha":107,"x_min":0,"x_max":0,"o":"m 765 1042 b 707 965 765 1015 733 1003 b 475 761 669 939 592 871 l 214 517 l 775 -10 l 733 -10 l 194 251 l 438 369 b 647 NaN 549 450 618 490 b 756 NaN 688 NaN 724 NaN z "},"Ɯ":{"ha":433,"x_min":0,"x_max":0,"o":"m 1092 168 l 1089 168 b 849 -14 1043 53 949 -14 b 618 156 721 -14 644 43 l 615 156 b 363 -14 578 51 483 -14 b 119 264 197 -14 119 75 l 119 1014 l 147 1014 l 147 264 b 363 14 147 92 214 14 b 606 264 506 14 606 114 l 606 1014 l 633 1014 l 633 264 b 849 14 633 92 700 14 b 1092 319 972 14 1092 140 l 1092 1014 l 1119 1014 l 1119 0 l 1092 0 z "},"Ɲ":{"ha":121,"x_min":0,"x_max":0,"o":"m 779 29 l 779 1014 l 174 1999 l 171 1999 l 171 903 l 171 2028 l 215 2028 l 821 1043 z "},"Ɵ":{"ha":0,"x_min":0,"x_max":0,"o":"m -82 399 l 696 399 b 307 878 692 708 553 878 b -82 399 61 878 -78 708 z m 696 371 l -82 371 b 307 -108 -78 61 61 -108 b 696 371 553 -108 692 61 z "},"Ƣ":{"ha":385,"x_min":0,"x_max":0,"o":"m 754 988 l 1043 1014 l 1071 1014 l 1071 0 l 1043 0 l 1043 986 l 758 960 l 758 28 b 550 -14 697 0 628 -14 b 1057 486 861 -14 1057 196 b 1099 608 1057 560 1125 546 z m 1075 -332 l 1075 588 b 894 621 1018 610 957 621 b 436 128 621 621 436 422 b 894 -365 436 -167 621 -365 b 1075 -332 957 -365 1018 -354 z "},"Ƥ":{"ha":-18,"x_min":0,"x_max":0,"o":"m 126 0 l 126 986 b -96 819 -22 982 -96 919 b -54 708 -96 782 -82 744 l 140 708 l 140 264 z m 321 1250 l 140 1250 l 140 736 l 335 736 b 696 1007 585 736 696 819 b 556 1218 696 1113 668 1175 z "},"Ʀ":{"ha":10,"x_min":0,"x_max":0,"o":"m 154 1014 l 154 875 l 321 875 l 321 872 b 394 813 350 861 374 842 b 471 661 414 783 439 732 l 601 369 l 571 369 l 446 650 b 361 813 406 740 386 776 b 258 860 336 849 296 854 b 171 863 239 861 210 863 l 4 863 l 4 508 l -24 508 l -24 1522 z m 171 1356 l 4 1356 l 4 890 l 171 890 z "},"Ƨ":{"ha":-46,"x_min":0,"x_max":0,"o":"m 383 1000 b 119 935 285 1000 197 978 l 106 958 b 383 1028 190 1004 282 1028 b 661 806 560 1028 661 940 b 388 528 661 676 569 585 b 119 250 197 468 119 389 b 383 14 119 96 211 14 b 658 106 490 14 582 44 l 675 83 b 383 -14 596 18 499 -14 b 92 250 196 -14 92 79 b 379 556 92 401 178 493 b 633 806 549 608 633 692 b 383 1000 633 928 540 1000 z "},"Ʃ":{"ha":0,"x_min":0,"x_max":0,"o":""},"Ƭ":{"ha":107,"x_min":0,"x_max":0,"o":"m 342 1014 l 828 1014 l 828 986 l 481 986 l 481 875 b 244 708 325 875 244 813 b 286 597 244 671 258 633 z "},"Ʈ":{"ha":93,"x_min":0,"x_max":0,"o":"m 439 -111 l 439 986 l 92 986 l 92 1014 l 814 1014 l 814 986 l 467 986 l 467 -111 z "},"Ʊ":{"ha":371,"x_min":0,"x_max":0,"o":"m 943 128 b 592 -14 853 33 735 -14 b 106 493 304 -14 106 194 b 408 983 106 722 221 906 l 408 986 l 85 986 l 85 1014 l 501 1014 l 501 986 b 133 493 278 940 133 744 b 592 14 133 211 321 14 b 1050 493 863 14 1050 211 b 682 986 1050 744 906 940 l 682 1014 l 1099 1014 l 1099 986 l 775 986 l 775 983 b 1078 493 963 906 1078 722 b 943 128 1078 344 1033 222 z "},"Ʋ":{"ha":121,"x_min":0,"x_max":0,"o":"m 460 -14 b 779 -375 460 -249 569 -375 b 1036 -262 894 -375 985 -329 b 1132 -4 1088 -196 1121 -94 b 1140 139 1138 40 1140 88 b 1018 642 1140 301 1108 435 l 1043 653 b 1168 139 1136 440 1168 304 b 779 -403 1168 -226 1024 -403 z "},"Ƴ":{"ha":197,"x_min":0,"x_max":0,"o":"m 444 483 l 447 483 l 625 746 b 804 993 714 878 774 960 b 890 1042 833 1025 863 1042 b 835 976 890 1022 867 1006 b 664 740 806 944 749 865 l 476 465 l 94 1025 l 128 1025 z "},"Ƶ":{"ha":65,"x_min":0,"x_max":0,"o":"m 436 528 l 147 528 l 147 556 l 453 556 l 724 983 l 724 986 l 119 986 l 119 1014 l 758 1014 l 758 986 l 486 556 l 731 556 l 731 528 l 468 528 l 154 31 l 154 28 l 758 28 l 758 0 l 119 0 l 119 28 z "},"Ʒ":{"ha":0,"x_min":0,"x_max":0,"o":""},"Ƹ":{"ha":-53,"x_min":0,"x_max":0,"o":"m 113 306 b 432 14 113 111 219 14 b 667 85 519 14 599 38 l 682 63 b 432 -14 608 11 525 -14 b 85 306 200 -14 85 93 b 428 583 85 490 199 583 l 500 583 l 500 586 l 99 986 l 99 1014 l 675 1014 l 675 986 l 139 986 l 139 983 l 539 583 l 539 556 l 428 556 b 113 306 218 556 113 472 z "},"Ƽ":{"ha":-32,"x_min":0,"x_max":0,"o":"m 689 1014 l 689 986 l 203 986 l 203 597 l 376 597 b 703 319 594 597 703 504 b 363 -14 703 104 583 -14 b 106 63 267 -14 182 11 l 121 86 b 363 14 192 38 272 14 b 675 319 567 14 675 119 b 376 569 675 486 575 569 l 175 569 l 175 986 l 78 986 l 78 1014 z "},"Ǆ":{"ha":885,"x_min":0,"x_max":0,"o":"m -681 986 l 578 986 l 578 2083 l 99 2083 l 99 1507 l 251 1507 l 251 1014 l 113 1014 l 113 56 l 251 56 z "},"ǅ":{"ha":801,"x_min":0,"x_max":0,"o":""},"Ǉ":{"ha":711,"x_min":0,"x_max":0,"o":""},"ǈ":{"ha":447,"x_min":0,"x_max":0,"o":"m 924 -42 l 924 1036 l -28 1036 l -28 1008 l 736 1008 l 736 1036 l -28 1036 "},"Ǌ":{"ha":829,"x_min":0,"x_max":0,"o":""},"ǋ":{"ha":593,"x_min":0,"x_max":0,"o":"m 1025 -1056 l 1025 168 l 578 168 l 578 -844 l 1342 -844 l 1342 -817 l 578 -817 "},"Ǎ":{"ha":0,"x_min":0,"x_max":0,"o":""},"Ǐ":{"ha":-421,"x_min":0,"x_max":0,"o":"m -7 -1097 "},"Ǒ":{"ha":460,"x_min":0,"x_max":0,"o":"m -328 -206 b 963 -133 769 -206 860 -133 b NaN NaN 1008 -133 1140 NaN b NaN NaN NaN NaN NaN NaN "},"Ǔ":{"ha":425,"x_min":0,"x_max":0,"o":"m -354 -764 b -701 211 -354 333 -581 211 b -792 NaN -912 211 -792 438 z "},"Ǖ":{"ha":79,"x_min":0,"x_max":0,"o":""},"Ǘ":{"ha":79,"x_min":0,"x_max":0,"o":"m 439 1313 l 476 1313 "},"Ǚ":{"ha":79,"x_min":0,"x_max":0,"o":"m 632 1493 l 675 1493 l 467 1313 l 425 1313 l 217 1493 l 260 1493 l 353 1413 l 446 1331 l 539 1413 "},"Ǜ":{"ha":79,"x_min":0,"x_max":0,"o":"m 490 1313 l 453 1313 l 286 1493 l 324 1493 "},"Ǟ":{"ha":79,"x_min":0,"x_max":0,"o":"m 214 -1236 z m -410 -861 l 258 -861 l 258 -989 l 606 -989 l 606 -533 l 379 82 l 376 82 z "},"Ǡ":{"ha":0,"x_min":0,"x_max":0,"o":""},"Ǥ":{"ha":329,"x_min":0,"x_max":0,"o":"m 883 389 l 585 389 l 585 417 l 883 417 l 883 569 l 911 569 l 911 417 l 1085 417 l 1085 389 l 911 389 l 911 61 b 564 -14 808 11 693 -14 b 64 507 260 -14 64 190 b 564 1028 64 824 260 1028 b 92 535 274 1028 92 839 b 564 42 92 231 274 42 b 883 107 682 42 788 64 z "},"Ǩ":{"ha":-18,"x_min":0,"x_max":0,"o":"m 286 -1097 "},"Ǫ":{"ha":0,"x_min":0,"x_max":0,"o":""},"Ǭ":{"ha":0,"x_min":0,"x_max":0,"o":""},"Ǯ":{"ha":10,"x_min":0,"x_max":0,"o":"m 260 1319 l 79 1097 l 51 1097 l -129 1319 z m 329 306 b 14 556 329 472 224 556 l -97 556 l -97 583 l 303 983 l 303 986 l -233 986 l -233 1014 l 343 1014 b NaN NaN 319 1093 407 NaN b NaN NaN NaN NaN NaN NaN z "},"Ǳ":{"ha":0,"x_min":0,"x_max":0,"o":"m -681 986 l 140 986 l 140 1507 l 293 1507 l 293 1014 l 154 1014 l 154 56 l 293 56 z "},"ǲ":{"ha":801,"x_min":0,"x_max":0,"o":""},"Ǵ":{"ha":121,"x_min":0,"x_max":0,"o":"m 629 1319 z m 557 1000 b 807 958 643 1000 726 986 l 807 929 z "},"Ƕ":{"ha":635,"x_min":0,"x_max":0,"o":"m 793 1014 b 71 736 821 1014 71 825 b NaN NaN 71 825 260 NaN l NaN NaN z "},"Ƿ":{"ha":-46,"x_min":0,"x_max":0,"o":"m 154 171 "},"Ǹ":{"ha":581,"x_min":0,"x_max":0,"o":"m 365 -1290 l 365 -306 l 971 -1290 z "},"Ȁ":{"ha":121,"x_min":0,"x_max":0,"o":"m 393 -1319 z "},"Ȃ":{"ha":121,"x_min":0,"x_max":0,"o":"b 1225 825 0 696 1125 825 b 1058 NaN 1147 825 1058 NaN m 1210 NaN l 1076 NaN l 582 NaN l 449 NaN l 419 NaN z m -226 NaN l 246 NaN l 11 NaN l 8 NaN z "},"Ȅ":{"ha":83,"x_min":0,"x_max":0,"o":"l 350 0 l 350 256 l -428 256 "},"Ȇ":{"ha":111,"x_min":0,"x_max":0,"o":"m -486 -583 l -486 57 l 639 57 l 639 -499 l 1653 -499 l 1653 57 l 1653 29 z "},"Ȉ":{"ha":-421,"x_min":0,"x_max":0,"o":""},"Ȋ":{"ha":-421,"x_min":0,"x_max":0,"o":"b 1550 229 425 0 1550 129 b NaN NaN 1550 151 1461 NaN "},"Ȍ":{"ha":288,"x_min":0,"x_max":0,"o":""},"Ȏ":{"ha":288,"x_min":0,"x_max":0,"o":"m -581 -240 b 757 628 544 539 640 628 b NaN NaN 804 628 950 NaN b NaN NaN NaN NaN NaN NaN b NaN NaN NaN NaN NaN NaN b NaN NaN NaN NaN NaN NaN z "},"Ȑ":{"ha":21,"x_min":0,"x_max":0,"o":"m 107 -814 l 107 -487 l 104 -487 b 178 -549 133 -499 157 -519 b 256 -699 199 -578 224 -628 l 385 -990 l 354 -990 l 231 -710 b 157 -564 197 -633 183 -600 b 82 -507 129 -528 119 -518 b -46 -497 43 -496 19 -497 "},"Ȓ":{"ha":22,"x_min":0,"x_max":0,"o":"m 653 1125 l 625 1125 b 389 1264 625 1196 524 1264 b 153 1125 254 1264 153 1196 l 125 1125 b 389 1292 125 1218 243 1292 b 653 1125 535 1292 653 1218 "},"Ȕ":{"ha":107,"x_min":0,"x_max":0,"o":""},"Ȗ":{"ha":107,"x_min":0,"x_max":0,"o":""},"Ț":{"ha":0,"x_min":0,"x_max":0,"o":""},"Ȝ":{"ha":-104,"x_min":0,"x_max":0,"o":"m 381 1028 b 624 819 538 1028 624 954 b 440 469 624 682 563 565 b 644 208 564 451 644 351 b 50 -333 644 -54 450 -229 l 50 -304 b 617 208 428 -206 617 -35 b 406 444 617 349 533 440 b 142 314 335 396 247 353 l 142 343 b 596 819 444 456 596 615 b 381 1000 596 940 524 1000 b 61 896 281 1000 174 965 l 61 928 b 381 1028 172 994 279 1028 z "},"Ȟ":{"ha":79,"x_min":0,"x_max":0,"o":"m 271 -83 l 696 -83 l 696 1014 l 1279 1014 z "},"Ƞ":{"ha":128,"x_min":0,"x_max":0,"o":"m 154 1014 l 154 760 l 157 760 b 379 1000 322 760 379 897 b 196 1038 379 1150 472 1038 l 196 93 l 168 93 l 168 1038 b -124 1399 168 1297 86 1399 b -471 996 -314 1399 -471 1218 l -471 399 l -499 399 l -499 1413 z "},"Ȣ":{"ha":38,"x_min":0,"x_max":0,"o":"m 78 813 l 78 1014 l 106 1014 l 106 813 b 425 556 106 647 226 556 b 744 813 624 556 744 647 l 744 1014 l 772 1014 l 772 813 b 550 543 772 667 699 578 l 550 540 b 772 271 690 506 772 410 b 425 -14 772 94 638 -14 b 78 271 213 -14 78 94 b 300 540 78 410 160 506 l 300 543 b 78 813 151 578 78 667 z m 661 461 b 425 528 606 506 526 528 b 106 271 221 528 106 433 b 425 14 106 110 225 14 b 744 271 625 14 744 110 b 661 461 744 353 717 415 z "},"Ȥ":{"ha":51,"x_min":0,"x_max":0,"o":"l 0 113 l 28 113 l 28 99 l 28 -26 l 28 85 l -583 85 "},"Ȧ":{"ha":121,"x_min":0,"x_max":0,"o":"m 367 -1292 z "},"Ȩ":{"ha":-18,"x_min":0,"x_max":0,"o":"m 682 1014 l 682 736 l 960 736 l 960 708 l 785 708 b 776 679 822 708 776 728 b 876 606 776 628 828 606 b 878 NaN 832 606 878 NaN l 535 NaN l 535 NaN z "},"Ȫ":{"ha":288,"x_min":0,"x_max":0,"o":""},"Ȭ":{"ha":288,"x_min":0,"x_max":0,"o":""},"Ȯ":{"ha":288,"x_min":0,"x_max":0,"o":""},"Ȱ":{"ha":149,"x_min":0,"x_max":0,"o":"m -321 -386 b 632 732 -237 642 -71 732 b 1882 447 2000 732 1792 447 b 2189 493 1954 447 2057 493 b 2606 -28 2454 493 2606 304 "},"Ȳ":{"ha":51,"x_min":0,"x_max":0,"o":"m -224 -767 l 790 -558 l 1444 664 l 1076 1224 l 1110 1224 z "},"Ⱥ":{"ha":143,"x_min":0,"x_max":0,"o":"m 729 347 l 357 347 l 122 54 l 101 0 l 79 0 l 72 -8 l 50 8 l 99 68 l 461 1014 l 503 1014 l 617 715 l 864 1022 l 885 1006 l 628 685 l 892 0 l 861 0 z m 597 692 l 483 990 l 481 990 l 244 990 l 244 1090 z m 508 1376 l 279 1090 l 618 1090 z m 54 854 l 222 1063 l 133 1063 z "},"Ȼ":{"ha":142,"x_min":0,"x_max":0,"o":"b -261 67 -99 0 -186 22 l -328 -67 l -353 -54 l -285 82 b -486 521 -414 171 -486 325 b 0 1042 -486 842 -300 1042 b 183 1011 61 1042 122 1032 l 231 1108 l 256 1096 l 208 1001 b 306 951 246 986 278 969 l 290 929 b 196 976 269 944 238 960 l -249 93 b 0 28 -176 50 -93 28 m -562 24 l -121 901 b -290 929 -176 919 -233 929 b -749 436 -574 929 -749 740 b -562 24 -749 249 -686 111 z "},"Ƚ":{"ha":79,"x_min":0,"x_max":0,"o":"l 231 0 l 231 521 l 696 521 l 696 549 l 231 549 l 231 722 l 203 722 l 203 549 l -290 549 l -290 1090 l -318 1090 l -318 521 "},"Ⱦ":{"ha":79,"x_min":0,"x_max":0,"o":"m 99 1014 l 815 1014 l 839 1049 l 863 1033 l 474 472 l 474 0 l 446 0 l 446 432 l 122 -35 l 99 -19 l 446 481 l 446 986 l 99 986 z m 474 986 l 474 521 l 796 986 z "},"Ɂ":{"ha":-53,"x_min":0,"x_max":0,"o":"m 363 501 l 363 0 l 335 0 l 335 528 b 65 447 239 528 150 501 l 50 469 z "},"Ƀ":{"ha":93,"x_min":0,"x_max":0,"o":"l 579 0 l 579 560 l 579 851 l 406 851 l 406 879 l 579 879 l 579 1574 l 760 1574 b 1135 1344 1010 1574 1135 1497 b 928 1119 1135 1228 1065 1153 m 775 675 l 775 453 l 1074 453 l 1074 425 l 775 425 l 775 161 l 942 161 b 1331 432 1207 161 1331 247 b 942 675 1331 594 1201 675 z "},"Ʉ":{"ha":301,"x_min":0,"x_max":0,"o":"m 210 389 l 807 389 l 807 417 l 210 417 l 210 1056 l 807 1056 l 807 1083 l 210 1083 l 210 1236 l 182 1236 l 182 1083 l 168 1083 b -179 694 168 832 44 694 z m 488 694 l 488 708 l -151 708 l -151 694 b 168 333 -151 460 -42 333 z "},"Ʌ":{"ha":121,"x_min":0,"x_max":0,"o":"m 847 0 l 468 990 l 465 990 l 86 0 l 57 0 z "},"Ɇ":{"ha":-18,"x_min":0,"x_max":0,"o":"m 654 542 l 436 542 l 278 28 l 682 28 l 682 0 l 269 0 l 231 -129 l 204 -121 l 240 0 l 126 0 l 126 1014 l 553 1014 l 592 1143 l 618 1135 l 582 1014 l 682 1014 l 682 986 l 572 986 l 444 569 l 654 569 z m 154 569 l 415 569 l 544 986 l 154 986 z m 407 542 l 154 542 l 154 28 l 250 28 z "},"Ɉ":{"ha":121,"x_min":0,"x_max":0,"o":"l 571 0 l 571 597 l 599 597 l 599 0 b 251 -403 599 -265 472 -403 b 43 -361 175 -403 106 -389 l 54 -336 b 251 -375 111 -362 178 -375 b 571 0 461 -375 571 -246 "},"Ɋ":{"ha":260,"x_min":0,"x_max":0,"o":"m 918 256 l 915 256 b 508 -14 856 76 719 -14 b 64 507 238 -14 64 190 b 508 1028 64 824 238 1028 b 915 758 719 1028 856 938 l 918 758 l 918 1014 l 946 1014 l 946 -111 z m 232 868 b 119 507 157 779 119 658 b 536 14 119 203 279 14 b 946 465 804 14 946 169 l 946 549 b 536 1000 946 844 804 1000 b 232 868 407 1000 306 956 z "},"Ɍ":{"ha":114,"x_min":0,"x_max":0,"o":"m 575 506 l 575 503 b 649 443 604 492 628 472 b 725 292 668 414 693 363 l 856 0 l 825 0 l 700 281 b 615 443 660 371 640 407 b 513 490 590 479 550 485 b 425 493 493 492 464 493 "},"Ɏ":{"ha":232,"x_min":0,"x_max":0,"o":"m 278 792 l 57 792 l 57 819 l 260 819 l 126 1014 l 160 1014 l 292 819 l 753 819 l 885 1014 l 918 1014 l 785 819 l 988 819 l 988 792 l 767 792 l 536 454 z m 339 792 l 549 483 l 551 483 l 761 792 z "},"Ḁ":{"ha":121,"x_min":0,"x_max":0,"o":"m 847 0 z "},"Ḃ":{"ha":0,"x_min":0,"x_max":0,"o":""},"Ḅ":{"ha":-11,"x_min":0,"x_max":0,"o":""},"Ḇ":{"ha":-11,"x_min":0,"x_max":0,"o":""},"Ḉ":{"ha":142,"x_min":0,"x_max":0,"o":"m 671 1319 "},"Ḋ":{"ha":72,"x_min":0,"x_max":0,"o":""},"Ḍ":{"ha":72,"x_min":0,"x_max":0,"o":""},"Ḏ":{"ha":72,"x_min":0,"x_max":0,"o":""},"Ḑ":{"ha":114,"x_min":0,"x_max":0,"o":"m 863 521 b 335 0 863 186 675 0 l 126 0 l 126 1014 l 335 1014 l 335 833 l -624 833 l -624 1014 "},"Ḓ":{"ha":72,"x_min":0,"x_max":0,"o":""},"Ḕ":{"ha":153,"x_min":0,"x_max":0,"o":"m 456 1313 l 418 1313 l 251 1493 l 289 1493 "},"Ḗ":{"ha":153,"x_min":0,"x_max":0,"o":"m 571 1493 l 404 1313 "},"Ḙ":{"ha":-18,"x_min":0,"x_max":0,"o":""},"Ḛ":{"ha":0,"x_min":0,"x_max":0,"o":""},"Ḝ":{"ha":0,"x_min":0,"x_max":0,"o":"m 500 -292 l 325 -292 b 317 -321 363 -292 317 -272 b 417 -394 317 -372 368 -394 b 418 NaN 372 -394 418 NaN l 75 NaN l 75 NaN l 631 NaN z "},"Ḟ":{"ha":-39,"x_min":0,"x_max":0,"o":"m 271 -278 l 271 736 z "},"Ḡ":{"ha":-53,"x_min":0,"x_max":0,"o":""},"Ḣ":{"ha":135,"x_min":0,"x_max":0,"o":"l 0 488 l 1125 488 l 1125 793 l 403 793 l -236 793 "},"Ḥ":{"ha":79,"x_min":0,"x_max":0,"o":""},"Ḧ":{"ha":0,"x_min":0,"x_max":0,"o":"l 0 349 l 1125 349 l 1125 515 l 403 515 l 403 -124 "},"Ḩ":{"ha":147,"x_min":0,"x_max":0,"o":"l 0 806 l -639 806 l -639 281 l 375 281 l 375 308 l -69 308 "},"Ḫ":{"ha":79,"x_min":0,"x_max":0,"o":"l 0 -583 "},"Ḭ":{"ha":-421,"x_min":0,"x_max":0,"o":"m 210 0 l 182 0 l 182 1014 l 210 1014 "},"Ḯ":{"ha":-407,"x_min":0,"x_max":0,"o":""},"Ḱ":{"ha":10,"x_min":0,"x_max":0,"o":"m 574 1319 z m 758 0 l 192 0 l 192 -468 l 194 -468 z "},"Ḳ":{"ha":-18,"x_min":0,"x_max":0,"o":"m 697 0 l 157 510 "},"Ḵ":{"ha":-18,"x_min":0,"x_max":0,"o":"m 697 0 l 157 510 z "},"Ḷ":{"ha":-25,"x_min":0,"x_max":0,"o":""},"Ḹ":{"ha":-25,"x_min":0,"x_max":0,"o":""},"Ḻ":{"ha":-25,"x_min":0,"x_max":0,"o":""},"Ḽ":{"ha":-25,"x_min":0,"x_max":0,"o":""},"Ḿ":{"ha":246,"x_min":0,"x_max":0,"o":"m 175 -335 l 665 -335 l 665 -362 z "},"Ṁ":{"ha":246,"x_min":0,"x_max":0,"o":"m 289 -307 l 832 -307 l 832 -335 z "},"Ṃ":{"ha":246,"x_min":0,"x_max":0,"o":"m 832 985 l 804 985 "},"Ṅ":{"ha":121,"x_min":0,"x_max":0,"o":""},"Ṇ":{"ha":121,"x_min":0,"x_max":0,"o":""},"Ṉ":{"ha":121,"x_min":0,"x_max":0,"o":""},"Ṋ":{"ha":121,"x_min":0,"x_max":0,"o":""},"Ṍ":{"ha":288,"x_min":0,"x_max":0,"o":""},"Ṏ":{"ha":288,"x_min":0,"x_max":0,"o":"m 278 -139 l 250 -139 l 250 0 l 278 0 z m -76 -354 l -104 -354 b -14 -201 -104 -253 -74 -201 b 132 -265 24 -201 72 -222 b 264 -326 189 -306 233 -326 b 358 -247 264 -285 285 -247 b 235 -353 265 -247 235 -293 b 228 -429 235 -390 185 -368 z "},"Ṑ":{"ha":288,"x_min":0,"x_max":0,"o":"m 594 1313 l 557 1313 l 390 1493 l 428 1493 "},"Ṓ":{"ha":288,"x_min":0,"x_max":0,"o":"m 710 1493 l 543 1313 "},"Ṕ":{"ha":-18,"x_min":0,"x_max":0,"o":"m 504 1319 "},"Ṗ":{"ha":-18,"x_min":0,"x_max":0,"o":""},"Ṙ":{"ha":10,"x_min":0,"x_max":0,"o":""},"Ṛ":{"ha":10,"x_min":0,"x_max":0,"o":""},"Ṝ":{"ha":10,"x_min":0,"x_max":0,"o":""},"Ṟ":{"ha":10,"x_min":0,"x_max":0,"o":""},"Ṡ":{"ha":-74,"x_min":0,"x_max":0,"o":"m -14 -264 b NaN NaN 363 -264 NaN NaN z "},"Ṣ":{"ha":-74,"x_min":0,"x_max":0,"o":"m 363 1028 "},"Ṥ":{"ha":-46,"x_min":0,"x_max":0,"o":""},"Ṧ":{"ha":-46,"x_min":0,"x_max":0,"o":"m 172 -194 l 569 -194 l 569 1118 l 613 1118 l 404 938 l 363 938 l 154 1118 l 197 1118 l 290 1038 l 383 956 l 476 1038 "},"Ṩ":{"ha":-74,"x_min":0,"x_max":0,"o":"m -14 -264 b NaN NaN 363 -264 NaN NaN "},"Ṫ":{"ha":65,"x_min":0,"x_max":0,"o":""},"Ṭ":{"ha":0,"x_min":0,"x_max":0,"o":""},"Ṯ":{"ha":65,"x_min":0,"x_max":0,"o":""},"Ṱ":{"ha":65,"x_min":0,"x_max":0,"o":""},"Ṳ":{"ha":107,"x_min":0,"x_max":0,"o":""},"Ṵ":{"ha":107,"x_min":0,"x_max":0,"o":""},"Ṷ":{"ha":107,"x_min":0,"x_max":0,"o":""},"Ṹ":{"ha":107,"x_min":0,"x_max":0,"o":""},"Ṻ":{"ha":107,"x_min":0,"x_max":0,"o":"m 69 -285 l -375 -285 l -375 -257 l 69 -257 z m 167 -1035 b -181 -1424 167 -1286 43 -1424 b 139 -1785 -181 -1658 -71 -1785 z "},"Ṽ":{"ha":121,"x_min":0,"x_max":0,"o":"m -178 -111 z "},"Ṿ":{"ha":0,"x_min":0,"x_max":0,"o":""},"Ẇ":{"ha":482,"x_min":0,"x_max":0,"o":"m 256 -1292 "},"Ẉ":{"ha":399,"x_min":0,"x_max":0,"o":"m 861 0 "},"Ẋ":{"ha":51,"x_min":0,"x_max":0,"o":"m 314 -1292 l 760 -1618 l 1247 -1274 l 735 NaN z "},"Ẍ":{"ha":51,"x_min":0,"x_max":0,"o":"m 175 -1292 l 482 -167 l 156 321 l 500 -192 z "},"Ẏ":{"ha":51,"x_min":0,"x_max":0,"o":""},"Ẑ":{"ha":51,"x_min":0,"x_max":0,"o":"l 0 453 l -299 453 l -299 -839 l -326 -839 l -326 -1478 "},"Ẓ":{"ha":0,"x_min":0,"x_max":0,"o":""},"Ẕ":{"ha":24,"x_min":0,"x_max":0,"o":""},"Ạ":{"ha":79,"x_min":0,"x_max":0,"o":"m 813 0 "},"Ả":{"ha":0,"x_min":0,"x_max":0,"o":"b 149 2939 79 1014 149 1647 b 131 NaN 149 2963 131 NaN "},"Ấ":{"ha":0,"x_min":0,"x_max":0,"o":""},"Ầ":{"ha":0,"x_min":0,"x_max":0,"o":""},"Ẩ":{"ha":79,"x_min":0,"x_max":0,"o":""},"Ẫ":{"ha":107,"x_min":0,"x_max":0,"o":""},"Ậ":{"ha":107,"x_min":0,"x_max":0,"o":""},"Ắ":{"ha":79,"x_min":0,"x_max":0,"o":"m 453 1313 l 490 1313 z m 88 1097 l 115 1097 b 317 958 115 1026 201 958 b 518 1097 432 958 518 1026 l 546 1097 b 317 931 546 1008 446 931 b 88 1097 188 931 88 1008 "},"Ằ":{"ha":79,"x_min":0,"x_max":0,"o":"m 310 1493 l 476 1313 l 439 1313 l 272 1493 z m 647 1278 l 675 1278 b 446 1111 675 1189 575 1111 b 217 1278 317 1111 217 1189 l 244 1278 b 446 1139 244 1207 331 1139 b 647 1278 561 1139 647 1207 "},"Ẳ":{"ha":79,"x_min":0,"x_max":0,"o":"m -417 -139 l -389 -139 b -187 -278 -389 -210 -303 -278 b 14 -139 -72 -278 14 -210 l 42 -139 b -187 -306 42 -228 -58 -306 b -417 -139 -317 -306 -417 -228 "},"Ẵ":{"ha":0,"x_min":0,"x_max":0,"o":""},"Ặ":{"ha":107,"x_min":0,"x_max":0,"o":""},"Ẹ":{"ha":0,"x_min":0,"x_max":0,"o":""},"Ẻ":{"ha":69,"x_min":0,"x_max":0,"o":"l 599 0 l 599 1292 l 538 1292 l 538 1233 l 593 1233 l 593 483 "},"Ẽ":{"ha":111,"x_min":0,"x_max":0,"o":"l 210 0 l 210 1125 l 654 1125 l 654 542 "},"Ế":{"ha":83,"x_min":0,"x_max":0,"o":"l 803 0 l 803 264 l 25 264 "},"Ề":{"ha":83,"x_min":0,"x_max":0,"o":"l 747 0 l 747 264 l -31 264 "},"Ể":{"ha":83,"x_min":0,"x_max":0,"o":"l 835 0 l 835 264 l 57 264 "},"Ễ":{"ha":42,"x_min":0,"x_max":0,"o":"l 210 0 l 210 1292 l 432 1292 l 432 1278 l -304 1278 "},"Ệ":{"ha":0,"x_min":0,"x_max":0,"o":"l 432 0 l 432 1319 l -346 1319 "},"Ỉ":{"ha":-421,"x_min":0,"x_max":0,"o":"b 1292 389 0 383 1292 407 m 1118 -903 "},"Ị":{"ha":-421,"x_min":0,"x_max":0,"o":"m 111 0 l 0 0 l 0 -28 l 1014 -28 l 1014 0 "},"Ọ":{"ha":149,"x_min":0,"x_max":0,"o":""},"Ỏ":{"ha":0,"x_min":0,"x_max":0,"o":""},"Ố":{"ha":0,"x_min":0,"x_max":0,"o":""},"Ồ":{"ha":0,"x_min":0,"x_max":0,"o":""},"Ổ":{"ha":149,"x_min":0,"x_max":0,"o":""},"Ỗ":{"ha":0,"x_min":0,"x_max":0,"o":""},"Ộ":{"ha":0,"x_min":0,"x_max":0,"o":""},"Ớ":{"ha":260,"x_min":0,"x_max":0,"o":"m 631 1319 z "},"Ờ":{"ha":260,"x_min":0,"x_max":0,"o":""},"Ở":{"ha":260,"x_min":0,"x_max":0,"o":"b 1292 708 0 703 1292 726 "},"Ỡ":{"ha":260,"x_min":0,"x_max":0,"o":""},"Ợ":{"ha":260,"x_min":0,"x_max":0,"o":""},"Ụ":{"ha":0,"x_min":0,"x_max":0,"o":""},"Ủ":{"ha":79,"x_min":0,"x_max":0,"o":"b 1292 639 0 633 1292 657 "},"Ứ":{"ha":225,"x_min":0,"x_max":0,"o":"m 596 1319 z "},"Ừ":{"ha":225,"x_min":0,"x_max":0,"o":""},"Ử":{"ha":225,"x_min":0,"x_max":0,"o":""},"Ữ":{"ha":225,"x_min":0,"x_max":0,"o":""},"Ự":{"ha":225,"x_min":0,"x_max":0,"o":""},"Ỵ":{"ha":0,"x_min":0,"x_max":0,"o":""},"Ỷ":{"ha":-536,"x_min":0,"x_max":0,"o":"b 1426 1911 51 0 1426 619 b 1408 NaN 1426 1935 1408 NaN "},"Ỹ":{"ha":51,"x_min":0,"x_max":0,"o":""},"Ỻ":{"ha":322,"x_min":0,"x_max":0,"o":"m 488 1014 l 488 28 l 1043 28 l 1043 0 l 126 0 l 126 1014 l 154 1014 l 154 28 l 460 28 l 460 1014 z "},"Ỽ":{"ha":-4,"x_min":0,"x_max":0,"o":"m 744 333 b 404 -14 744 118 614 -14 b 64 375 194 -14 64 135 b 536 1035 64 664 265 944 l 536 1006 b 178 561 536 751 447 561 b 22 622 -94 561 22 426 b 339 938 22 818 139 938 b 458 922 479 938 404 1049 l 519 922 b 688 617 625 857 688 746 z "},"Ỿ":{"ha":58,"x_min":0,"x_max":0,"o":"m 89 1014 l 444 338 l 447 338 l 790 1014 l 821 1014 l 461 307 b 435 257 458 300 450 283 l 626 257 l 626 229 l 421 229 b 294 35 369 132 326 67 b 189 -14 261 3 226 -14 b 50 118 107 -14 50 40 b 238 257 50 201 121 257 l 404 257 b 418 282 407 263 411 271 l 431 307 l 57 1014 z m 389 229 l 238 229 b 78 118 138 229 78 189 b 189 14 78 57 124 14 b 274 54 217 14 244 28 b 389 229 301 81 340 139 z "},"Ꞌ":{"ha":-504,"x_min":0,"x_max":0,"o":""},"Ａ":{"ha":0,"x_min":0,"x_max":0,"o":"m 956 347 l 433 347 l 293 0 l 264 0 l 672 1014 l 717 1014 l 1125 0 l 1096 0 z m 944 375 l 696 994 l 693 994 l 444 375 z "},"Ｂ":{"ha":0,"x_min":0,"x_max":0,"o":"m 778 560 l 778 557 b 668 842 778 753 749 842 b 376 428 519 842 376 750 l 161 428 l 161 1442 l 363 1442 b 779 1213 656 1442 779 1374 b 557 988 779 1093 706 1018 z m 189 1414 l 189 997 l 376 997 b 751 1213 626 997 751 1069 b 713 1328 751 1258 744 1290 b 533 1403 681 1365 629 1388 b 363 1414 485 1410 428 1414 z m 376 969 l 189 969 l 189 456 l 376 456 b 814 726 683 456 814 536 b 772 861 814 778 808 815 b 651 853 817 825 761 853 b 457 858 596 853 531 858 z "},"Ｃ":{"ha":0,"x_min":0,"x_max":0,"o":"m 750 14 l 765 -8 b 460 -99 678 -68 576 -99 b -40 422 150 -99 -40 104 b 460 943 -40 744 147 943 b -12 450 164 943 -12 760 b 460 -43 -12 146 169 -43 z "},"Ｄ":{"ha":0,"x_min":0,"x_max":0,"o":"m 1118 521 b 563 0 1118 186 922 0 l 340 0 l 340 1014 l 563 1014 b 1118 521 922 1014 1118 839 z m 368 986 l 368 28 l 563 28 b 1090 521 903 28 1090 203 b 563 986 1090 825 908 986 z "},"Ｅ":{"ha":0,"x_min":0,"x_max":0,"o":"m 972 542 l 389 542 l 389 28 l 1000 28 l 1000 0 l 361 0 l 361 1014 l 1000 1014 l 1000 986 l 389 986 l 389 569 l 972 569 z "},"Ｆ":{"ha":0,"x_min":0,"x_max":0,"o":"m 1021 1014 l 1021 986 l 424 986 l 424 556 l 993 556 l 993 528 l 424 528 l 424 0 l 396 0 l 396 1014 z "},"Ｇ":{"ha":0,"x_min":0,"x_max":0,"o":"m 764 14 b 1083 79 882 14 988 36 l 1083 542 l 667 542 l 667 569 l 1111 569 l 1111 61 b 764 -14 1008 11 893 -14 b 250 507 447 -14 250 189 b 764 1028 250 825 447 1028 b 278 535 464 1028 278 839 b 764 42 278 231 464 42 z "},"Ｈ":{"ha":0,"x_min":0,"x_max":0,"o":"l 0 1042 l -694 1042 "},"Ｉ":{"ha":0,"x_min":0,"x_max":0,"o":"m 1014 0 "},"Ｊ":{"ha":0,"x_min":0,"x_max":0,"o":"m 889 389 l 889 1014 l 917 1014 l 917 389 b 583 -14 917 111 806 -14 b 250 97 454 -14 343 24 l 267 119 b 583 14 354 49 460 14 b 889 389 794 14 889 129 z "},"Ｋ":{"ha":0,"x_min":0,"x_max":0,"o":"m 1039 0 l 406 508 l 403 0 l 1021 467 l 1067 467 l 421 -19 l 1081 -547 z "},"Ｌ":{"ha":0,"x_min":0,"x_max":0,"o":"m 396 1014 l 424 1014 l 424 28 l 1049 28 l 1049 0 l 396 0 z "},"Ｍ":{"ha":0,"x_min":0,"x_max":0,"o":"l 1153 132 l 139 NaN "},"Ｎ":{"ha":0,"x_min":0,"x_max":0,"o":""},"Ｏ":{"ha":0,"x_min":0,"x_max":0,"o":"m 1047 131 b 694 -14 957 35 840 -14 b 1201 486 1006 -14 1201 196 b 1086 567 1201 776 1397 567 b 790 353 931 567 886 442 z "},"Ｐ":{"ha":0,"x_min":0,"x_max":0,"o":"m 674 444 l 431 444 l 431 0 l 403 0 l 403 1014 l 674 1014 b 1097 729 967 1014 1097 919 b 674 444 1097 539 956 444 z m 1069 729 b 1046 844 1069 772 1064 803 b 935 944 1028 886 990 917 b 674 986 878 971 786 986 l 431 986 l 431 472 l 674 472 b 1069 729 938 472 1069 558 z "},"Ｑ":{"ha":0,"x_min":0,"x_max":0,"o":""},"Ｒ":{"ha":0,"x_min":0,"x_max":0,"o":"m 653 493 l 403 493 l 403 0 l 375 0 l 375 1014 l 639 1014 b 1056 764 938 1014 1056 932 b 804 506 1056 619 972 533 l 804 503 b 874 446 831 493 853 474 b 953 292 893 418 919 367 l 1083 0 l 1053 0 l 928 281 b 843 443 888 371 868 407 b 740 490 818 479 778 485 b 653 493 721 492 692 493 z m 639 986 l 403 986 l 403 521 l 653 521 b 1028 764 903 521 1028 601 b 964 915 1028 826 1014 869 b 639 986 913 961 801 986 z "},"Ｓ":{"ha":0,"x_min":0,"x_max":0,"o":"m 694 1000 b 396 806 506 1000 396 928 b 697 549 396 676 492 597 b 1035 250 935 494 1035 406 b 694 -14 1035 83 911 -14 b 354 83 560 -14 447 18 l 369 106 b 694 14 460 44 568 14 b 1007 250 896 14 1007 99 b 692 521 1007 393 915 469 b 368 806 471 571 368 663 b 694 1028 368 943 489 1028 b 1007 958 810 1028 914 1004 l 994 933 b 694 1000 906 978 806 1000 z "},"Ｔ":{"ha":0,"x_min":0,"x_max":0,"o":"m 278 1014 l 1111 1014 l 1111 986 l 708 986 l 708 583 z "},"Ｕ":{"ha":0,"x_min":0,"x_max":0,"o":"m 974 83 b 694 -14 910 18 817 -14 b 319 375 450 -14 319 115 b 667 14 319 135 435 14 b 1014 NaN 899 14 1014 NaN b 918 NaN 1014 NaN 982 NaN z "},"Ｖ":{"ha":0,"x_min":0,"x_max":0,"o":"m 288 1014 l 693 1419 l 1683 NaN l 1714 NaN l 1297 NaN l 1256 NaN l 839 NaN z "},"Ｗ":{"ha":0,"x_min":0,"x_max":0,"o":"m 964 0 "},"Ｘ":{"ha":0,"x_min":0,"x_max":0,"o":"m 347 1014 l 693 536 l 696 536 l 1042 1014 l 1076 1014 l 711 513 l 1083 0 l 1049 0 l 696 489 l 693 489 l 340 0 l 306 0 l 678 513 l 313 1014 z "},"Ｙ":{"ha":0,"x_min":0,"x_max":0,"o":"l 0 1014 l -417 454 l -833 1014 "},"Ｚ":{"ha":0,"x_min":0,"x_max":0,"o":"m 354 28 l 999 983 l 999 986 l 354 986 l 354 1014 l 1035 1014 l 1035 986 l 390 31 l 390 28 l 1035 28 l 1035 0 l 354 0 z "},"a":{"ha":0,"x_min":0,"x_max":0,"o":"m 578 0 z "},"á":{"ha":28,"x_min":0,"x_max":0,"o":"m 539 1042 "},"ă":{"ha":0,"x_min":0,"x_max":0,"o":""},"â":{"ha":0,"x_min":0,"x_max":0,"o":"m 229 -1042 z "},"ä":{"ha":0,"x_min":0,"x_max":0,"o":""},"à":{"ha":0,"x_min":0,"x_max":0,"o":""},"ā":{"ha":0,"x_min":0,"x_max":0,"o":""},"ą":{"ha":-89,"x_min":0,"x_max":0,"o":"m 603 -278 l 603 -308 b 450 -340 554 -329 503 -340 b 603 -136 450 -268 507 -193 l 603 8 l 600 8 b 482 -337 600 -99 550 -204 z "},"å":{"ha":0,"x_min":0,"x_max":0,"o":""},"ǻ":{"ha":0,"x_min":0,"x_max":0,"o":"m 531 1319 l 363 1111 l 328 1111 l 494 1319 z m 475 1124 b 511 1211 499 1147 511 1176 b 386 1336 511 1279 457 1336 b 261 1211 315 1336 261 1279 b 386 1086 261 1143 315 1086 b 475 1124 421 1086 451 1099 "},"ã":{"ha":0,"x_min":0,"x_max":0,"o":""},"æ":{"ha":0,"x_min":0,"x_max":0,"o":"m 1133 354 l 606 354 b 864 544 649 481 735 544 z m 336 558 l 254 558 l 254 1058 z m -246 871 b -426 1035 -246 967 -358 1035 b -146 NaN -314 1035 -146 1158 b -103 NaN -228 NaN -103 NaN b NaN NaN -103 NaN -251 NaN z "},"ǽ":{"ha":0,"x_min":0,"x_max":0,"o":"m 88 -306 l 88 -319 l -440 -319 b -182 -129 -397 -193 -311 -129 z m -439 -483 l 61 -483 z m 33 -574 b -87 -772 158 -574 61 -699 b 93 -953 -87 -885 -19 -953 b 385 NaN 261 -953 385 NaN z "},"ǣ":{"ha":392,"x_min":0,"x_max":0,"o":"m 306 -604 l -222 -604 b 36 -414 -179 -478 -93 -414 z m -492 -400 l 8 -400 z m -492 -587 b -311 -768 -492 -700 -424 -768 b -19 NaN -143 -768 -19 NaN b -140 NaN 106 NaN 8 NaN z "},"b":{"ha":-39,"x_min":0,"x_max":0,"o":"m 150 129 z "},"c":{"ha":-129,"x_min":0,"x_max":0,"o":"m 376 708 z "},"ć":{"ha":0,"x_min":0,"x_max":0,"o":"m 518 1042 z m 126 361 z "},"č":{"ha":0,"x_min":0,"x_max":0,"o":"m -278 -458 z "},"ç":{"ha":-129,"x_min":0,"x_max":0,"o":"m 376 708 b 463 846 376 774 439 786 l 463 817 b 338 785 417 799 375 789 b 326 756 369 785 326 801 b 415 692 326 710 372 692 b 421 NaN 378 692 421 NaN l 393 NaN z "},"ĉ":{"ha":-129,"x_min":0,"x_max":0,"o":"m -236 -681 z "},"ċ":{"ha":-129,"x_min":0,"x_max":0,"o":"m -271 -653 z "},"d":{"ha":-39,"x_min":0,"x_max":0,"o":""},"ð":{"ha":-60,"x_min":0,"x_max":0,"o":"m 376 -14 b 71 361 206 -14 71 133 b 376 736 71 589 192 736 b 624 599 486 736 568 690 l 626 600 b 447 893 593 725 533 822 l 194 779 l 183 804 l 422 913 b 203 1000 357 958 285 988 l 203 1028 b 450 926 296 1014 379 981 l 642 1013 l 653 988 l 475 907 b 682 361 613 788 682 606 b 376 -14 682 126 567 -14 z m 376 14 b 654 361 550 14 654 143 b 376 708 654 574 547 708 b 99 622 206 708 99 499 b NaN NaN 99 485 253 NaN z "},"ď":{"ha":114,"x_min":0,"x_max":0,"o":""},"đ":{"ha":72,"x_min":0,"x_max":0,"o":"l 0 -167 l 174 -167 l 174 -194 l 0 -194 l 0 -1042 l -28 -1042 "},"e":{"ha":-94,"x_min":0,"x_max":0,"o":""},"é":{"ha":83,"x_min":0,"x_max":0,"o":"m 490 1042 z "},"ĕ":{"ha":97,"x_min":0,"x_max":0,"o":""},"ě":{"ha":83,"x_min":0,"x_max":0,"o":""},"ê":{"ha":383,"x_min":0,"x_max":0,"o":""},"ë":{"ha":111,"x_min":0,"x_max":0,"o":""},"ė":{"ha":111,"x_min":0,"x_max":0,"o":""},"è":{"ha":83,"x_min":0,"x_max":0,"o":""},"ē":{"ha":194,"x_min":0,"x_max":0,"o":""},"ę":{"ha":-94,"x_min":0,"x_max":0,"o":"m 453 -306 b 510 -161 453 -256 472 -207 b 293 201 365 -124 293 -3 b 361 468 293 319 321 414 b 488 529 400 468 454 529 b NaN NaN 540 529 567 NaN b NaN NaN NaN NaN NaN NaN l NaN NaN l NaN NaN b NaN NaN NaN NaN NaN NaN b NaN NaN NaN NaN NaN NaN b NaN NaN NaN NaN NaN NaN z "},"f":{"ha":-108,"x_min":0,"x_max":0,"o":"m 488 1028 b 599 1007 528 1028 565 1021 l 599 1132 b 793 1340 599 1282 653 1340 z "},"g":{"ha":-122,"x_min":0,"x_max":0,"o":"m 356 83 b 139 115 256 83 183 94 b 71 215 93 136 71 169 b 122 315 71 253 88 286 b 50 486 74 358 50 415 b 314 736 50 635 158 736 b 575 603 440 736 528 692 l 578 603 l 578 722 l 606 722 l 606 486 b 328 250 606 340 499 250 b 144 299 254 250 193 267 b 99 215 114 275 99 247 b 142 144 99 186 108 167 b 356 111 175 122 249 111 b 633 -90 540 111 633 44 b 314 -319 633 -228 508 -319 b 50 -260 219 -319 132 -300 l 50 -229 b 314 -292 126 -271 214 -292 b 606 -90 492 -292 606 -212 b 565 24 606 -46 597 -14 "},"ğ":{"ha":-122,"x_min":0,"x_max":0,"o":""},"ǧ":{"ha":-122,"x_min":0,"x_max":0,"o":""},"ĝ":{"ha":-122,"x_min":0,"x_max":0,"o":"m 28 -958 b -189 -926 -72 -958 -144 -947 b -257 -826 -235 -906 -257 -872 b -206 -726 -257 -789 -240 -756 b -278 -556 -254 -683 -278 -626 b -14 -306 -278 -407 -169 -306 b 247 -439 113 -306 200 -350 l 250 -439 l 250 -319 l 278 -319 l 278 -556 b 0 -792 278 -701 171 -792 b -183 -743 -74 -792 -135 -775 b -229 -826 -214 -767 -229 -794 b -186 -897 -229 -856 -219 -875 b 28 -931 -153 -919 -79 -931 b 306 -1132 213 -931 306 -997 b -14 -1361 306 -1269 181 -1361 b -278 -1301 -108 -1361 -196 -1342 l -278 -1271 b -14 -1333 -201 -1312 -114 -1333 b 278 -1132 164 -1333 278 -1254 b 238 -1018 278 -1087 269 -1056 "},"ģ":{"ha":-122,"x_min":0,"x_max":0,"o":"m 388 1083 l 418 1083 l 317 806 l 288 806 "},"ġ":{"ha":-122,"x_min":0,"x_max":0,"o":""},"h":{"ha":-60,"x_min":0,"x_max":0,"o":""},"ħ":{"ha":51,"x_min":0,"x_max":0,"o":"m 258 847 l 258 572 l 1106 572 l 1106 739 l 1133 739 l 1133 572 l 1432 572 l 1432 544 z "},"ĥ":{"ha":-60,"x_min":0,"x_max":0,"o":""},"i":{"ha":0,"x_min":0,"x_max":0,"o":"m NaN 903 "},"ı":{"ha":-421,"x_min":0,"x_max":0,"o":"m 722 0 "},"í":{"ha":-421,"x_min":0,"x_max":0,"o":"m 383 1042 "},"ĭ":{"ha":-421,"x_min":0,"x_max":0,"o":""},"î":{"ha":-421,"x_min":0,"x_max":0,"o":""},"ï":{"ha":-421,"x_min":0,"x_max":0,"o":""},"ì":{"ha":-421,"x_min":0,"x_max":0,"o":""},"ĳ":{"ha":-37,"x_min":0,"x_max":0,"o":"m -383 -1042 z m -28 -1806 l -28 -1596 l 356 -1596 l 356 -832 l 383 -832 l 383 -1596 "},"ī":{"ha":-421,"x_min":0,"x_max":0,"o":""},"į":{"ha":-408,"x_min":0,"x_max":0,"o":"m -3 -1347 b 144 -1081 -3 -1137 69 -1081 b 297 NaN 240 -1081 297 NaN l 297 NaN l 325 NaN l 325 NaN z "},"ĩ":{"ha":-421,"x_min":0,"x_max":0,"o":""},"j":{"ha":-344,"x_min":0,"x_max":0,"o":"m -28 -1083 l -28 -797 l 875 -797 l 875 -33 l 903 -33 l 903 -797 "},"ȷ":{"ha":-365,"x_min":0,"x_max":0,"o":"m 238 722 l 265 722 l 265 -42 "},"ĵ":{"ha":-365,"x_min":0,"x_max":0,"o":"m 14 -1083 l 14 -818 l 778 -818 l 778 -790 l 14 -790 "},"k":{"ha":-94,"x_min":0,"x_max":0,"o":"m 147 1042 l -500 1042 l -500 2083 z "},"ķ":{"ha":-94,"x_min":0,"x_max":0,"o":"m 147 1042 l -500 1042 l -500 2083 "},"ĸ":{"ha":0,"x_min":0,"x_max":0,"o":"m 140 722 l -187 722 l -187 1444 z "},"l":{"ha":0,"x_min":0,"x_max":0,"o":"m NaN 0 l NaN 0 l NaN 1042 l NaN 1042 z "},"ĺ":{"ha":-421,"x_min":0,"x_max":0,"o":"m 383 1347 z m 244 0 l 217 0 l 217 1042 l 244 1042 z "},"ľ":{"ha":-279,"x_min":0,"x_max":0,"o":"m 210 0 l 182 0 l 182 1042 l 210 1042 z m 488 1042 z "},"ļ":{"ha":-422,"x_min":0,"x_max":0,"o":"m 210 0 l 182 0 l 182 1042 l 210 1042 z m 156 -361 l 126 -361 l 228 -83 l 257 -83 z "},"ŀ":{"ha":-293,"x_min":0,"x_max":0,"o":"m 210 0 l 182 0 l 182 1042 l 210 1042 "},"ł":{"ha":-224,"x_min":0,"x_max":0,"o":"m 60 485 l 281 585 l 281 1042 l 308 1042 l 308 599 l 518 693 l 529 668 l 308 568 l 308 0 l 281 0 l 281 554 l 71 460 z "},"m":{"ha":267,"x_min":0,"x_max":0,"o":""},"n":{"ha":-67,"x_min":0,"x_max":0,"o":""},"ń":{"ha":0,"x_min":0,"x_max":0,"o":"m NaN -319 l NaN -806 l NaN -806 l NaN -83 z "},"ŉ":{"ha":46,"x_min":0,"x_max":0,"o":"m 85 -292 l 85 -778 l 57 -778 l 57 -56 z "},"ň":{"ha":349,"x_min":0,"x_max":0,"o":"m -250 -97 l -250 722 l -736 722 l -736 694 l -14 694 z "},"ņ":{"ha":0,"x_min":0,"x_max":0,"o":""},"ŋ":{"ha":-67,"x_min":0,"x_max":0,"o":"m 613 -111 l 613 -431 l 1668 -431 l 1668 111 l 1126 111 z "},"ñ":{"ha":0,"x_min":0,"x_max":0,"o":"m -28 -111 l -28 -257 l -25 -257 l -25 -317 l -511 -317 l -511 -344 l -511 -315 l 211 -315 z "},"o":{"ha":-60,"x_min":0,"x_max":0,"o":""},"ó":{"ha":96,"x_min":0,"x_max":0,"o":"m 546 1042 z "},"ŏ":{"ha":-60,"x_min":0,"x_max":0,"o":""},"ô":{"ha":397,"x_min":0,"x_max":0,"o":""},"ö":{"ha":-60,"x_min":0,"x_max":0,"o":""},"ò":{"ha":408,"x_min":0,"x_max":0,"o":""},"ơ":{"ha":100,"x_min":0,"x_max":0,"o":""},"ő":{"ha":-24,"x_min":0,"x_max":0,"o":""},"ō":{"ha":-60,"x_min":0,"x_max":0,"o":""},"ø":{"ha":-46,"x_min":0,"x_max":0,"o":"m 728 -649 l 1386 -261 l 1938 NaN b 1754 NaN 1892 NaN 1831 NaN b 1407 NaN 1631 NaN 1407 NaN b NaN NaN 1407 NaN 1461 NaN z m NaN NaN l NaN NaN b NaN NaN NaN NaN NaN NaN b NaN NaN NaN NaN NaN NaN b NaN NaN NaN NaN NaN NaN z "},"ǿ":{"ha":-46,"x_min":0,"x_max":0,"o":"m -314 -650 b 218 -262 72 -650 178 -262 b 35 -242 172 -262 111 -242 b -312 -333 -89 -242 -312 -360 b NaN -482 -312 -422 -258 -482 z m NaN 51 l NaN -501 b NaN -562 NaN -542 NaN -562 b NaN -471 NaN -562 NaN -444 b NaN -322 NaN -382 NaN -322 z "},"õ":{"ha":-60,"x_min":0,"x_max":0,"o":""},"œ":{"ha":454,"x_min":0,"x_max":0,"o":"m 146 88 b 64 361 92 154 64 246 b 369 736 64 593 181 736 b 647 493 508 736 610 644 b 925 736 682 649 781 736 l 925 722 l 390 722 b 668 382 394 513 500 382 b 376 628 518 382 414 472 b 99 382 339 474 239 382 b -125 483 4 382 -71 415 z m 292 504 b 363 757 339 567 363 650 b 99 1104 363 969 261 1104 b -179 757 -75 1104 -179 975 z m -81 1031 l 426 1031 b 163 704 264 1031 168 911 z "},"p":{"ha":-46,"x_min":0,"x_max":0,"o":""},"þ":{"ha":-46,"x_min":0,"x_max":0,"o":"m 143 129 z "},"q":{"ha":-46,"x_min":0,"x_max":0,"o":"m 71 361 b 81 468 71 478 169 422 l 83 468 l 83 599 l 111 599 l 111 -429 l 83 -429 l 83 7 l 81 7 b -54 -147 -8 7 -54 -92 b 78 -128 -54 -264 -161 -128 z m 106 -128 b 369 -475 106 -351 199 -475 b 633 -246 521 -475 633 -374 l 633 -10 b 369 219 633 118 521 219 b 106 NaN 197 219 106 NaN z "},"r":{"ha":0,"x_min":0,"x_max":0,"o":""},"ŕ":{"ha":-226,"x_min":0,"x_max":0,"o":"m 379 1042 z "},"ř":{"ha":-226,"x_min":0,"x_max":0,"o":""},"ŗ":{"ha":-226,"x_min":0,"x_max":0,"o":""},"s":{"ha":-143,"x_min":0,"x_max":0,"o":""},"ś":{"ha":-143,"x_min":0,"x_max":0,"o":"m 456 1042 z "},"š":{"ha":-143,"x_min":0,"x_max":0,"o":""},"ş":{"ha":-143,"x_min":0,"x_max":0,"o":"m 92 556 b -61 372 92 465 35 399 b -67 342 -24 372 -67 390 b 28 271 -67 290 -18 271 b 32 NaN -11 271 32 NaN b -35 NaN 4 NaN -18 NaN b -271 NaN -117 NaN -196 NaN l -271 NaN b -35 NaN -196 NaN -117 NaN b 188 NaN 104 NaN 188 NaN b -37 NaN 188 NaN 142 NaN b -271 NaN -204 NaN -271 NaN z "},"ŝ":{"ha":-143,"x_min":0,"x_max":0,"o":""},"ș":{"ha":-143,"x_min":0,"x_max":0,"o":"m 328 736 b 286 597 328 654 249 672 l 286 628 b 522 569 361 589 440 569 b 744 736 661 569 744 632 b 519 917 744 819 699 882 b 286 1111 353 950 286 1006 b 522 1292 286 1221 379 1292 "},"ß":{"ha":-18,"x_min":0,"x_max":0,"o":"m 510 631 b 472 603 510 613 488 603 b 531 599 507 603 500 629 b 332 646 500 629 432 646 b 82 389 143 646 82 583 l 82 -382 l 54 -382 l 54 389 b 332 674 54 599 126 674 b 165 563 276 674 165 607 b NaN 439 165 486 121 439 b NaN 371 NaN 415 NaN 392 z "},"ſ":{"ha":-233,"x_min":0,"x_max":0,"o":"m 203 819 z "},"ə":{"ha":0,"x_min":0,"x_max":0,"o":""},"t":{"ha":-136,"x_min":0,"x_max":0,"o":""},"ŧ":{"ha":-122,"x_min":0,"x_max":0,"o":"l 258 0 l 258 389 l 557 389 l 557 604 l 585 604 l 585 389 l 869 389 l 869 361 l 585 361 l 585 63 l 821 63 l 821 35 l 585 35 l 585 -160 "},"ť":{"ha":-157,"x_min":0,"x_max":0,"o":"m 501 819 l 531 819 z m 482 361 l 197 361 l 197 -111 l 197 174 z "},"ţ":{"ha":-136,"x_min":0,"x_max":0,"o":"m 508 -146 b 318 -199 479 -175 413 -199 b 165 -167 265 -199 214 -187 l 165 -136 b 318 -171 211 -160 263 -171 b 519 -39 453 -171 519 -126 b 465 93 519 7 501 51 b 290 301 332 94 290 146 b NaN NaN 290 339 328 NaN l NaN NaN b NaN NaN NaN NaN NaN NaN b NaN NaN NaN NaN NaN NaN z "},"u":{"ha":-74,"x_min":0,"x_max":0,"o":""},"ú":{"ha":-74,"x_min":0,"x_max":0,"o":""},"ŭ":{"ha":-74,"x_min":0,"x_max":0,"o":""},"û":{"ha":-74,"x_min":0,"x_max":0,"o":""},"ü":{"ha":-74,"x_min":0,"x_max":0,"o":"m 251 847 z "},"ù":{"ha":-74,"x_min":0,"x_max":0,"o":""},"ư":{"ha":0,"x_min":0,"x_max":0,"o":""},"ű":{"ha":-75,"x_min":0,"x_max":0,"o":""},"ū":{"ha":-74,"x_min":0,"x_max":0,"o":""},"ƀ":{"ha":72,"x_min":0,"x_max":0,"o":"m 261 129 z "},"ƃ":{"ha":-32,"x_min":0,"x_max":0,"o":"m 661 1014 l 147 1014 l 147 564 l 144 564 l 144 406 l 117 406 l 117 1447 l 658 1447 z m 672 767 "},"ƅ":{"ha":0,"x_min":0,"x_max":0,"o":""},"ƈ":{"ha":0,"x_min":0,"x_max":0,"o":"m 765 1028 b 599 847 647 1028 599 975 l 599 690 b 411 736 539 721 476 736 b 92 389 211 736 92 607 b 411 42 92 179 218 42 b 593 88 474 42 535 57 l 606 63 b 513 -19 574 63 513 -3 b 888 44 513 -87 744 44 b 1161 88 1103 44 1161 97 b NaN NaN 1161 68 1210 NaN l NaN NaN b NaN NaN NaN NaN NaN NaN z "},"ƌ":{"ha":-32,"x_min":0,"x_max":0,"o":"m 631 564 l 633 564 l 633 1014 l 119 1014 l 119 1042 l 661 1042 l 661 0 l 633 0 l 633 158 l 631 158 z "},"ƍ":{"ha":-32,"x_min":0,"x_max":0,"o":"m 488 0 b 279 1067 182 1042 279 1018 b 201 NaN 279 1015 201 NaN b -42 NaN 201 NaN 110 NaN b -278 NaN -122 NaN -201 NaN l -265 NaN b -42 NaN -192 NaN -117 NaN b 174 NaN 96 NaN 174 NaN b -42 NaN 174 NaN 101 NaN b -368 NaN -254 NaN -368 NaN b -597 NaN -368 NaN -453 NaN z m -676 NaN b -396 NaN -503 NaN -396 NaN b -694 NaN -396 NaN -510 NaN b -993 NaN -879 NaN -993 NaN b -693 NaN -993 NaN -893 NaN l -685 NaN b -676 NaN -681 NaN -678 NaN z "},"ƕ":{"ha":475,"x_min":0,"x_max":0,"o":"m 661 431 b 661 0 494 431 661 28 b 863 544 661 1042 689 544 b 849 NaN 939 544 849 329 z "},"ƙ":{"ha":-94,"x_min":0,"x_max":0,"o":"m 147 847 l -306 847 l -306 1694 b -111 1903 -306 1839 -246 1903 b -7 1885 -75 1903 -40 1897 l -7 1854 z "},"ƚ":{"ha":0,"x_min":0,"x_max":0,"o":""},"ƛ":{"ha":-32,"x_min":0,"x_max":0,"o":"m 413 686 l 410 686 l 115 0 l 85 0 l 396 722 b 333 849 375 771 354 813 l 104 744 l 93 769 l 319 872 b 71 1014 251 976 178 1014 l 71 1042 b 344 885 188 1042 271 1000 l 551 978 l 563 953 l 360 860 b 426 721 383 819 406 774 l 724 0 l 693 0 z "},"ƞ":{"ha":-67,"x_min":0,"x_max":0,"o":"m 140 722 l 140 417 l 1182 417 l 1182 271 l 1185 271 l 1185 993 z "},"ƣ":{"ha":114,"x_min":0,"x_max":0,"o":"m 542 703 l 786 722 l 814 722 l 814 -306 l 786 -306 l 786 694 l 543 675 l 543 19 b 390 -14 499 -3 447 -14 b 64 361 189 -14 64 129 b 92 451 64 419 114 408 z m -278 364 b -358 110 -332 301 -358 217 b -60 -237 -358 -106 -244 -237 b 65 -212 -12 -237 29 -229 l 65 432 b -60 457 29 449 -12 457 b -278 364 -153 457 -225 426 z "},"ƥ":{"ha":-43,"x_min":0,"x_max":0,"o":"m 143 -306 l 115 -306 l 115 819 l 115 564 l 118 564 l 115 564 z m 643 767 "},"ƨ":{"ha":-143,"x_min":0,"x_max":0,"o":"m 118 656 l 106 681 b 342 736 182 718 261 736 b 585 556 490 736 585 665 b 344 361 585 450 515 394 b 113 181 179 329 113 276 b 342 14 113 76 201 14 b 571 79 424 14 500 36 l 585 56 b 342 -14 508 10 426 -14 b 85 181 185 -14 85 60 b 339 389 85 292 161 354 b 557 556 507 422 557 472 b 342 708 557 649 474 708 b 118 656 267 708 192 690 z "},"ƪ":{"ha":-108,"x_min":0,"x_max":0,"o":"m 342 757 l 342 -111 l 342 757 l 244 757 b 43 903 110 757 43 806 b 189 1028 43 979 99 1028 b 369 819 310 1028 369 964 l 369 785 l 626 785 l 626 757 z m 244 785 l 342 785 l 342 819 b 189 1000 342 946 296 1000 b 71 903 115 1000 71 964 b 244 785 71 824 129 785 z "},"ƫ":{"ha":-122,"x_min":0,"x_max":0,"o":"m 578 694 b 321 710 578 667 279 710 b 340 NaN 328 710 340 750 l 340 NaN l 340 NaN l 340 NaN l 340 NaN l 306 NaN l 306 NaN l 301 NaN l 301 NaN z "},"ƭ":{"ha":-108,"x_min":0,"x_max":0,"o":"m 321 667 l 321 194 l 321 667 l 446 667 l 446 542 l 724 542 l 724 514 z "},"ƴ":{"ha":100,"x_min":0,"x_max":0,"o":"m 108 722 l -211 1792 l 54 1118 l 57 1118 l 206 1463 b 354 1746 265 1601 315 1696 b 467 1819 393 1794 431 1819 b 578 1681 540 1819 578 1774 b 536 1514 578 1613 564 1557 l 503 1514 b 601 1561 503 1546 546 1561 b 611 1476 574 1561 611 1506 b 550 1394 611 1443 586 1394 b 413 1128 514 1346 468 1257 l 247 747 b -74 426 135 486 67 426 l -74 454 b 71 503 -11 454 22 463 b 222 758 119 543 163 624 l -60 1468 z "},"ƶ":{"ha":-60,"x_min":0,"x_max":0,"o":"m 364 368 l 126 368 l 126 396 l 385 396 l 597 692 l 382 393 l 590 393 l 590 365 l 363 365 l 119 28 l 119 25 l 597 25 l 597 -3 l 83 -3 l 83 25 z "},"ƹ":{"ha":-32,"x_min":0,"x_max":0,"o":"m 167 694 l 167 692 l 536 283 l 536 250 l 432 250 b 140 0 238 250 140 167 b 432 -292 140 -194 238 -292 b 651 -221 515 -292 589 -268 l 668 -243 b 432 -319 599 -294 519 -319 b 113 0 219 -319 113 -212 b 432 278 113 185 219 278 l 501 278 l 501 281 l 126 694 l 126 722 l 661 722 l 661 694 z "},"ƺ":{"ha":-11,"x_min":0,"x_max":0,"o":"m 411 306 l 243 306 l 243 333 l 644 692 l 644 694 l 113 694 l 113 722 l 689 722 l 689 694 l 288 336 l 288 333 l 411 333 b 696 181 601 333 696 282 b 631 72 696 136 674 100 b 413 7 588 43 514 22 b 197 -54 311 -8 239 -28 b 133 -153 154 -81 133 -112 b 233 -268 133 -210 172 -250 b 408 -292 294 -286 347 -292 b 685 -232 504 -292 597 -272 l 696 -257 b 408 -319 604 -299 508 -319 b 106 -153 208 -319 106 -258 b 408 35 106 -53 199 6 b 576 78 479 44 536 60 b 668 181 658 114 668 140 b 411 306 668 264 582 306 z "},"ƽ":{"ha":-74,"x_min":0,"x_max":0,"o":"m 349 403 l 168 403 l 168 694 l 71 694 l 71 722 l 654 722 l 654 694 l 196 694 l 196 431 l 349 431 b 668 229 561 431 668 364 b 342 -14 668 75 554 -14 b 99 42 254 -14 172 4 l 111 67 b 342 14 179 32 257 14 b 542 54 418 14 479 25 b 640 229 603 83 640 144 b 593 343 640 274 631 306 b 349 403 556 381 472 403 z "},"ƾ":{"ha":-25,"x_min":0,"x_max":0,"o":"m 356 667 l 675 667 l 675 694 l 356 694 l 356 540 b 668 271 551 536 668 436 b 349 14 668 111 544 14 b 64 100 249 14 154 43 l 78 122 b 349 42 163 68 253 42 z "},"ƿ":{"ha":-46,"x_min":0,"x_max":0,"o":"m 140 -121 "},"ǆ":{"ha":690,"x_min":0,"x_max":0,"o":""},"ǉ":{"ha":51,"x_min":0,"x_max":0,"o":"m 210 0 l 182 0 l 182 1042 l 210 1042 z m 182 -42 l 182 431 l 946 431 l 946 458 l 182 458 "},"ǌ":{"ha":406,"x_min":0,"x_max":0,"o":"m -896 -465 l -893 -465 b -632 -306 -842 -376 -731 -306 l -660 -306 l -660 125 l -660 97 l 63 97 l 63 125 z m 931 125 l 958 125 l 958 -639 "},"ǎ":{"ha":0,"x_min":0,"x_max":0,"o":""},"ǐ":{"ha":-421,"x_min":0,"x_max":0,"o":""},"ǒ":{"ha":356,"x_min":0,"x_max":0,"o":""},"ǔ":{"ha":-74,"x_min":0,"x_max":0,"o":""},"ǖ":{"ha":-74,"x_min":0,"x_max":0,"o":"m -347 -340 z "},"ǘ":{"ha":369,"x_min":0,"x_max":0,"o":"m -285 -472 z "},"ǚ":{"ha":0,"x_min":0,"x_max":0,"o":"m -146 -250 z "},"ǜ":{"ha":418,"x_min":0,"x_max":0,"o":"m 0 -472 z "},"ǝ":{"ha":0,"x_min":0,"x_max":0,"o":""},"ǟ":{"ha":0,"x_min":0,"x_max":0,"o":"b 1751 -687 592 0 1751 -347 b NaN NaN 1751 -632 738 NaN b NaN NaN NaN NaN NaN NaN "},"ǡ":{"ha":0,"x_min":0,"x_max":0,"o":"b 1751 -549 592 0 1751 -208 b NaN NaN 1751 -354 738 NaN b NaN NaN NaN NaN NaN NaN "},"ǥ":{"ha":72,"x_min":0,"x_max":0,"o":"m 638 603 l 640 603 l 640 722 l 668 722 l 668 507 l 828 507 l 828 479 l 668 479 b 390 250 667 339 558 250 b 211 296 319 250 260 265 b 168 215 182 272 168 244 b 211 144 168 186 178 167 b 425 111 244 122 318 111 b 724 -90 629 111 724 47 b 383 -319 724 -231 593 -319 b 71 -111 193 -319 71 -237 b 219 110 71 -24 135 65 b 140 215 167 131 140 165 b 188 313 140 250 156 283 b 113 486 138 354 113 413 b 376 736 113 635 221 736 b 638 603 503 736 590 692 z m 640 479 l 349 479 l 349 507 l 639 507 b 376 708 629 631 528 708 b 140 486 238 708 140 618 b 390 278 140 354 233 278 b 640 479 542 278 639 356 z m 696 -90 b 651 26 696 -44 686 -10 b 425 83 617 63 540 83 b 261 97 357 83 301 88 b 99 -111 171 68 99 -24 b 383 -292 99 -221 210 -292 b 696 -90 576 -292 696 -214 z "},"ǩ":{"ha":-94,"x_min":0,"x_max":0,"o":"m -222 -56 l 106 -56 l 106 1042 l -542 1042 l -542 2083 z "},"ǫ":{"ha":-60,"x_min":0,"x_max":0,"o":""},"ǭ":{"ha":0,"x_min":0,"x_max":0,"o":""},"ǯ":{"ha":-39,"x_min":0,"x_max":0,"o":"m 236 -819 l 236 -1314 l 236 -1286 l 771 -1286 l 771 -1314 z "},"ǰ":{"ha":-365,"x_min":0,"x_max":0,"o":"m -28 -861 l -28 -637 l 792 -637 l 792 126 l 819 126 l 819 -637 "},"ǳ":{"ha":690,"x_min":0,"x_max":0,"o":""},"ǵ":{"ha":-122,"x_min":0,"x_max":0,"o":"m 518 1042 "},"ǹ":{"ha":-67,"x_min":0,"x_max":0,"o":"m -156 -319 l -156 -179 l 317 -179 l 317 -665 l 289 -665 l 289 57 z "},"ȁ":{"ha":83,"x_min":0,"x_max":0,"o":"b 538 NaN 315 0 538 -882 "},"ȃ":{"ha":250,"x_min":0,"x_max":0,"o":"b 1453 -707 606 0 1453 -19 "},"ȅ":{"ha":83,"x_min":0,"x_max":0,"o":"b 626 NaN 322 0 626 -687 "},"ȇ":{"ha":250,"x_min":0,"x_max":0,"o":"b 1460 -431 613 0 1460 63 "},"ȉ":{"ha":-421,"x_min":0,"x_max":0,"o":""},"ȋ":{"ha":-421,"x_min":0,"x_max":0,"o":"b 1272 229 425 0 1272 128 b NaN NaN 1272 151 1183 NaN m NaN NaN l NaN NaN l NaN NaN l NaN NaN z "},"ȍ":{"ha":0,"x_min":0,"x_max":0,"o":""},"ȏ":{"ha":-32,"x_min":0,"x_max":0,"o":"m -468 -211 b 468 1372 -218 525 401 1372 b 707 1406 526 1372 606 1406 b 332 1079 564 1406 332 1204 b 593 1338 332 1222 564 1338 b 743 NaN 685 1338 743 1406 z m 764 NaN b 982 NaN 817 NaN 889 NaN b 1281 NaN 1167 NaN 1281 NaN b 982 NaN 1281 NaN 1167 NaN b 683 NaN 797 NaN 683 NaN b 764 NaN 683 NaN 710 NaN z "},"ȑ":{"ha":-214,"x_min":0,"x_max":0,"o":"m -99 -319 l -99 -526 l -96 -526 l -96 -915 l -124 -915 l -124 -193 z "},"ȓ":{"ha":-212,"x_min":0,"x_max":0,"o":"m -340 -125 l -340 356 l 507 356 l 507 149 l 510 149 l 510 -240 l 482 -240 l 482 482 z "},"ȕ":{"ha":-67,"x_min":0,"x_max":0,"o":"m 242 -1042 l 242 -726 l 419 -726 l 419 -729 l 419 -1451 z "},"ȗ":{"ha":-67,"x_min":0,"x_max":0,"o":"m 0 -847 l 0 -242 l 847 -242 l 847 -64 l 844 -64 l 844 -786 z "},"ț":{"ha":-136,"x_min":0,"x_max":0,"o":"m 564 667 l 279 667 l 279 194 l 279 479 "},"ȝ":{"ha":-146,"x_min":0,"x_max":0,"o":"m 360 736 b 550 675 454 736 521 713 b 589 569 579 638 589 607 b 418 296 589 460 532 368 b 603 90 533 281 603 203 b 50 -333 603 -112 418 -254 l 50 -306 b 575 90 400 -229 575 -97 b 376 271 575 201 499 269 b 138 181 315 238 236 207 l 138 210 b 561 569 419 286 561 407 b 360 708 561 663 494 708 b 61 625 265 708 165 681 l 61 656 b 360 736 165 710 265 736 z "},"ȟ":{"ha":-60,"x_min":0,"x_max":0,"o":"m -250 -525 l 106 -525 l 106 572 l 108 572 l 108 1614 l 136 1614 z "},"ȡ":{"ha":149,"x_min":0,"x_max":0,"o":"l 654 0 l 654 264 l 1132 264 l 1132 292 l 281 292 b 68 22 222 233 151 143 l 46 38 b 143 174 86 97 118 142 b 42 122 126 174 90 131 m 69 122 b 333 -225 69 -96 168 -225 b 597 88 501 -225 597 -111 "},"ȣ":{"ha":-32,"x_min":0,"x_max":0,"o":"m 624 57 b 390 -14 567 10 489 -14 b 71 250 194 -14 71 88 b 271 499 71 378 143 467 l 271 501 b 71 722 144 533 71 611 l 99 722 b 390 514 99 596 213 514 b 682 722 568 514 682 596 l 710 722 b 510 501 710 611 636 533 l 510 499 b 710 250 638 467 710 378 b 624 57 710 168 681 104 z m 606 425 b 594 375 646 425 594 354 b 338 196 594 282 488 196 b 304 285 192 196 304 106 b 563 554 304 464 417 554 b 654 561 638 554 613 613 z "},"ȥ":{"ha":-74,"x_min":0,"x_max":0,"o":"l 0 113 l 28 113 l 28 99 l 28 -26 l 28 85 l -458 85 "},"ȧ":{"ha":111,"x_min":0,"x_max":0,"o":"b 586 NaN 390 0 586 -854 "},"ȩ":{"ha":-39,"x_min":0,"x_max":0,"o":"m 483 -7 b 472 -35 518 -7 472 11 b 415 7 472 -82 453 -36 b 361 4 392 6 374 4 b 28 379 156 4 28 147 b 347 754 28 614 147 754 l 347 740 l -236 740 l -222 715 b -372 658 -269 688 -319 668 z m -764 1047 z "},"ȫ":{"ha":-32,"x_min":0,"x_max":0,"o":""},"ȭ":{"ha":0,"x_min":0,"x_max":0,"o":""},"ȯ":{"ha":0,"x_min":0,"x_max":0,"o":""},"ȱ":{"ha":-60,"x_min":0,"x_max":0,"o":""},"ȳ":{"ha":-39,"x_min":0,"x_max":0,"o":""},"ȴ":{"ha":-169,"x_min":0,"x_max":0,"o":"m 294 153 l 294 1042 l 322 1042 l 322 179 b 489 257 382 231 438 257 b 628 125 574 257 628 207 b 461 -14 628 35 568 -14 b 299 117 376 -14 314 33 b 97 -140 239 53 171 -33 l 75 -125 b 294 153 161 1 235 93 z m 324 142 b 461 14 329 60 379 14 b 600 125 554 14 600 51 b 489 229 600 192 560 229 b 324 142 440 229 386 200 z "},"ȵ":{"ha":149,"x_min":0,"x_max":0,"o":"m 628 129 b 415 -140 569 71 499 -19 l 393 -125 b 626 167 486 11 564 108 b 488 861 890 167 488 139 b 383 1065 488 889 310 1065 b 78 NaN 293 1065 78 NaN l 78 NaN "},"ȶ":{"ha":-178,"x_min":0,"x_max":0,"o":"m 253 147 b 251 194 251 157 251 172 l 251 667 l 515 667 l 515 694 l 515 431 l 814 431 l 814 403 l 515 403 l 515 -69 b 517 -79 515 -71 515 -75 l 517 -90 b 689 -7 579 -35 636 -7 b 828 -139 774 -7 828 -57 b 668 -278 828 -224 767 -278 b 493 -153 556 -278 508 -249 b 297 -404 433 -215 368 -299 l 275 -389 b 489 -117 358 -267 429 -176 z m 518 -128 b 668 -250 528 -228 563 -250 b 800 -139 750 -250 800 -207 b 689 -35 800 -72 760 -35 b 518 -128 638 -35 581 -65 z "},"ȸ":{"ha":468,"x_min":0,"x_max":0,"o":"m 654 158 l 654 0 l 626 0 l 626 158 l 624 158 z m 1707 158 "},"ȹ":{"ha":468,"x_min":0,"x_max":0,"o":"m 654 158 l 654 -306 l 626 -306 l 626 158 l 624 158 z m 1707 158 "},"ȼ":{"ha":-108,"x_min":0,"x_max":0,"o":"m 593 60 l 606 35 b 411 -14 544 3 479 -14 b 224 38 340 -14 278 3 l 174 -62 l 149 -50 l 200 53 b 64 361 110 121 64 224 b 411 736 64 593 196 736 b 533 719 460 736 500 731 l 565 785 l 590 772 l 558 710 b 606 688 565 707 581 700 l 593 663 b 546 685 575 672 558 681 l 236 63 b 411 14 285 31 343 14 b 593 60 474 14 535 29 z m 213 79 l 519 694 b 411 708 488 704 451 708 b 92 361 211 708 92 579 b 213 79 92 236 132 142 z "},"ȿ":{"ha":-143,"x_min":0,"x_max":0,"o":"m 564 681 l 551 656 b 806 447 729 621 806 558 b 640 263 806 353 744 286 b 896 58 739 231 839 154 l 863 58 b 549 253 789 171 656 253 b 306 322 464 253 382 276 l 319 346 b 549 281 390 303 467 281 b 778 447 689 281 778 343 b 546 628 778 543 711 596 b 306 822 375 661 306 717 b 549 1003 306 932 400 1003 b 785 947 629 1003 708 985 z "},"ɀ":{"ha":-74,"x_min":0,"x_max":0,"o":"m 149 28 l 251 28 b 710 -208 467 28 628 -58 l 678 -208 b 251 0 599 -74 447 0 l 113 0 l 113 28 l 590 692 l 113 28 z "},"ɂ":{"ha":-164,"x_min":0,"x_max":0,"o":"m 578 514 b 300 286 578 375 478 296 l 300 0 l 272 0 l 272 313 b 550 514 451 313 550 385 b 300 708 550 635 454 708 b 65 636 221 708 143 685 l 50 660 b 300 736 132 711 215 736 b 578 514 472 736 578 651 z "},"ɇ":{"ha":0,"x_min":0,"x_max":0,"o":"m 675 354 l 389 354 l 228 58 l 199 104 l 256 89 l 322 103 l 297 NaN b 61 NaN 225 NaN 146 NaN b -122 NaN -10 NaN -71 NaN l -171 NaN l -196 NaN l -144 NaN b -272 NaN -229 NaN -272 NaN b 47 NaN -272 NaN -153 NaN b 206 NaN 110 NaN 163 NaN l 251 NaN l 276 NaN l 228 NaN b 339 NaN 301 NaN 339 NaN z m 36 NaN l 192 NaN b 47 NaN 151 NaN 104 NaN b -244 NaN -132 NaN -237 NaN z m 214 NaN l 68 NaN l 310 NaN b 214 NaN 307 NaN 275 NaN z m -132 NaN l 21 NaN l -244 NaN b -132 NaN -243 NaN -206 NaN z "},"ɉ":{"ha":-60,"x_min":0,"x_max":0,"o":"m -28 -653 l 363 -653 l 363 -347 l 390 -347 l 390 -653 b 99 -958 390 -893 328 -958 l 99 -931 b 363 -653 311 -931 363 -881 z "},"ɋ":{"ha":-46,"x_min":0,"x_max":0,"o":"m 654 722 l 654 -111 l 654 158 l 651 158 l 654 158 l 654 317 z "},"ɍ":{"ha":-46,"x_min":0,"x_max":0,"o":"m 307 722 l 307 515 l 310 515 l 310 474 l -10 474 l -10 446 l 310 446 l 310 224 l 338 224 l 338 446 l 713 446 z "},"ɏ":{"ha":107,"x_min":0,"x_max":0,"o":"m 261 458 l 64 458 l 64 486 l 249 486 l 147 722 l 178 722 l 279 486 l 660 486 l 756 722 l 786 722 l 689 486 l 856 486 l 856 458 l 678 458 l 489 1 b 133 -319 393 -239 293 -319 l 133 -292 b 368 NaN 279 -292 368 -201 z m 200 NaN l 382 NaN l 385 NaN l 557 NaN z "},"ɐ":{"ha":-101,"x_min":0,"x_max":0,"o":"m 133 561 l 136 561 b 425 736 186 668 292 736 b 633 528 554 736 633 657 b 588 392 633 478 624 436 b 400 293 551 346 499 314 b 231 278 351 283 294 278 l 133 278 l 133 208 b 342 14 133 65 188 14 b 599 65 435 14 519 31 l 599 35 b 342 -14 522 3 436 -14 b 106 208 171 -14 106 49 l 106 722 l 133 722 z m 133 431 l 133 306 l 231 306 b 606 528 481 306 606 379 b 425 708 606 640 538 708 b 133 431 257 708 133 592 z "},"ɑ":{"ha":-46,"x_min":0,"x_max":0,"o":""},"ɒ":{"ha":-46,"x_min":0,"x_max":0,"o":"m 143 129 z "},"ɓ":{"ha":-46,"x_min":0,"x_max":0,"o":"m 140 847 l 140 593 l 143 593 b 404 736 192 678 293 736 b 696 361 592 736 696 601 b 679 260 696 250 594 308 l 676 260 l 676 131 l 649 131 l 649 978 z "},"ɔ":{"ha":-129,"x_min":0,"x_max":0,"o":"m 307 708 b -57 371 58 708 -57 582 b -96 257 -57 307 -119 318 l -96 286 b 92 250 -36 263 26 250 b 390 597 290 250 390 365 b 336 829 390 686 375 757 b 106 944 297 901 217 944 z "},"ɕ":{"ha":-101,"x_min":0,"x_max":0,"o":"m 272 -139 l 244 -139 b 254 8 244 -81 247 -32 b 64 361 128 56 64 174 b 376 736 64 607 178 736 b 571 701 442 736 507 725 l 571 671 b 508 643 571 696 508 631 b 501 531 508 576 501 533 b 451 NaN 501 485 451 NaN "},"ɖ":{"ha":-39,"x_min":0,"x_max":0,"o":"m 654 1042 b -211 1058 -256 1042 -394 988 l -214 1058 b -347 897 -299 1058 -347 956 b -215 922 -347 786 -454 922 b 46 779 -104 922 -3 864 l 49 779 l 49 1228 "},"ɗ":{"ha":-39,"x_min":0,"x_max":0,"o":"m 918 1038 l 918 1007 b 821 1028 889 1021 857 1028 b 654 799 700 1028 654 971 l 654 0 l 626 0 l 626 129 l 624 129 l 829 129 b 1024 386 829 314 883 386 b 1121 368 1058 386 1092 381 "},"ɘ":{"ha":-94,"x_min":0,"x_max":0,"o":"m 626 361 l 71 361 l 71 375 b 349 736 71 615 164 736 b 515 693 410 736 460 726 b 636 519 571 660 611 611 b 654 361 649 474 654 421 b 328 -14 654 111 546 -14 b 113 28 254 -14 182 0 l 113 58 b 328 14 181 29 251 14 b 626 361 526 14 626 129 b 33 354 99 361 126 354 b NaN NaN 140 354 -37 NaN b NaN NaN NaN NaN NaN NaN z "},"ɚ":{"ha":203,"x_min":0,"x_max":0,"o":"m 796 618 l 796 431 l 796 586 l 665 507 b 685 361 678 463 685 414 b 365 -14 685 126 565 -14 b 92 193 231 -14 135 60 l 632 519 b 351 708 589 642 490 708 b 115 646 267 708 188 688 l 115 678 b 351 736 188 717 267 736 b 656 533 500 736 606 663 l 796 618 z m 640 492 l 125 182 b 365 14 165 69 246 14 b 657 361 550 14 657 140 b 640 492 657 410 651 453 z "},"ɛ":{"ha":-122,"x_min":0,"x_max":0,"o":"m 619 63 l 619 31 b 383 -14 543 1 465 -14 b 592 47 460 -14 592 38 b NaN 142 592 92 660 142 b NaN 196 NaN 167 NaN 185 b NaN 369 NaN 306 NaN 369 b NaN 325 NaN 369 NaN 354 l NaN 293 b NaN 342 NaN 325 NaN 342 l NaN 342 l NaN 314 l NaN 314 b NaN 126 NaN 314 NaN 249 b NaN -54 NaN 10 NaN -54 b NaN -6 NaN -54 NaN -37 z "},"ɜ":{"ha":0,"x_min":0,"x_max":0,"o":""},"ɝ":{"ha":221,"x_min":0,"x_max":0,"o":"m 772 431 l 772 586 b 528 438 649 507 567 458 b 408 397 488 417 449 404 b 96 189 408 265 294 189 b -140 233 14 189 -64 204 l -140 265 l -172 265 l -172 344 l -93 344 l -93 328 l -15 328 l -15 265 b 75 113 13 265 75 189 b NaN 19 75 96 43 19 l NaN 51 b NaN 143 NaN 51 NaN 128 b NaN 215 NaN 219 NaN 215 b NaN NaN NaN 215 NaN NaN b NaN NaN NaN NaN NaN NaN l NaN NaN l NaN NaN l NaN NaN z "},"ɞ":{"ha":17,"x_min":0,"x_max":0,"o":"m 64 361 b 446 736 64 601 200 736 b 283 536 374 736 311 671 b -29 328 283 404 169 328 b -411 703 -274 328 -411 460 z m -293 963 b -383 703 -353 903 -383 817 b -29 356 -383 475 -261 356 b 256 536 154 356 256 419 b -85 724 256 658 138 724 l -154 724 b -57 519 -126 724 -57 608 b NaN 431 -57 490 -115 431 z "},"ɟ":{"ha":0,"x_min":0,"x_max":0,"o":"l -60 0 l -60 -306 l 968 -306 l 968 0 l 996 0 l 996 -306 l 565 -306 "},"ɠ":{"ha":121,"x_min":0,"x_max":0,"o":"m 640 639 l 640 28 b 335 -319 640 -215 547 -319 b 140 -285 261 -319 197 -308 l 140 -256 b 335 -292 200 -279 265 -292 b 613 28 531 -292 613 -199 l 613 142 l 610 142 b 356 0 565 54 472 0 b 71 361 178 0 71 135 b 165 667 71 510 106 615 b 356 736 225 717 283 736 b 610 594 472 736 565 682 l 613 594 l 613 639 z m 71 361 b 328 28 71 151 167 28 b 585 257 476 28 585 124 l 585 479 b 328 708 585 613 476 708 b 71 361 157 708 71 593 z "},"ɡ":{"ha":-60,"x_min":0,"x_max":0,"o":"m 613 142 l 610 142 "},"ɢ":{"ha":-12,"x_min":0,"x_max":0,"o":"m 344 406 l 694 406 l 694 33 b 904 4 769 33 839 24 l 904 -25 b 694 6 835 -4 765 6 b 338 -337 478 6 338 -131 b -6 -83 338 -219 131 -83 b 286 4 204 -83 286 -7 b NaN NaN 286 28 357 NaN l NaN NaN l NaN NaN z "},"ɣ":{"ha":-60,"x_min":0,"x_max":0,"o":"b 522 50 489 0 522 10 b NaN NaN 522 68 568 NaN b NaN NaN NaN NaN NaN NaN l NaN NaN l NaN NaN l NaN NaN l NaN NaN l NaN NaN l NaN NaN b NaN NaN NaN NaN NaN NaN b NaN NaN NaN NaN NaN NaN b NaN NaN NaN NaN NaN NaN m NaN NaN b NaN NaN NaN NaN NaN NaN b NaN NaN NaN NaN NaN NaN b NaN NaN NaN NaN NaN NaN z "},"ɤ":{"ha":58,"x_min":0,"x_max":0,"o":"m 436 478 b 582 682 493 576 542 644 b 714 736 621 718 665 736 b 800 719 743 736 771 731 l 800 689 b 714 708 768 701 739 708 b 597 658 674 708 635 692 b 454 454 560 624 513 556 b 561 251 507 364 543 297 b 589 132 579 206 589 165 b 436 -14 589 42 531 -14 b 283 132 342 -14 283 42 b 311 251 283 165 293 206 b 417 454 329 297 364 365 b 274 658 357 556 310 624 b 158 708 238 692 199 708 b 71 689 132 708 103 701 l 71 719 b 158 736 100 731 129 736 b 292 682 207 736 251 718 b 436 478 331 644 379 576 z m 344 46 b 436 14 367 25 397 14 b 561 132 514 14 561 58 b 536 240 561 161 553 197 b 569 154 536 203 547 175 z "},"ɥ":{"ha":-60,"x_min":0,"x_max":0,"o":"m 606 150 l 603 150 b 342 -14 549 61 442 -14 b 106 292 175 -14 106 69 l 106 722 l 133 722 l 133 292 l -908 292 l -908 264 z "},"ɦ":{"ha":-67,"x_min":0,"x_max":0,"o":"m 140 847 l 140 1583 l 432 1583 l 432 1308 l 1279 1308 z "},"ɧ":{"ha":-67,"x_min":0,"x_max":0,"o":"m 613 -111 l 613 431 l 1460 431 l 1460 156 l 1463 156 z "},"ɨ":{"ha":-60,"x_min":0,"x_max":0,"o":"m -28 -653 "},"ɩ":{"ha":-226,"x_min":0,"x_max":0,"o":"m 467 14 l 467 -14 b 175 292 238 -14 175 51 l 175 722 l 203 722 l 203 292 b 467 14 203 64 254 14 z "},"ɪ":{"ha":-226,"x_min":0,"x_max":0,"o":"m 488 28 l 488 0 l 99 0 l 99 28 l 279 28 l 279 694 l 99 694 l 99 722 l 488 722 l 488 694 l 307 694 l 307 28 z "},"ɫ":{"ha":-115,"x_min":0,"x_max":0,"o":"m 363 1042 l 363 508 b 508 451 428 471 476 451 b 553 465 525 451 532 453 b 585 563 574 476 585 511 l 613 563 b 508 424 613 469 578 424 b 363 476 474 424 425 442 l 363 0 l 335 0 l 335 492 b 307 392 372 492 307 443 b NaN 283 307 367 265 283 l NaN 283 b NaN 436 NaN 385 NaN 436 b NaN 383 NaN 436 NaN 418 l NaN 901 z "},"ɬ":{"ha":-46,"x_min":0,"x_max":0,"o":"m 404 1042 l 404 431 l 1 431 l 1 403 l 404 403 l 404 285 b 203 431 269 285 203 333 b 335 556 203 507 256 556 b 419 529 367 556 394 547 b 522 411 444 511 479 471 l 522 924 z m 522 313 l 522 363 b 411 500 471 435 435 481 b 335 528 388 518 361 528 b 231 431 269 528 231 490 b 404 313 231 351 289 313 z "},"ɭ":{"ha":-421,"x_min":0,"x_max":0,"o":"m 488 -271 l 488 882 l 515 882 l 515 -271 b 682 -451 515 -399 564 -451 b 793 -431 722 -451 760 -444 z "},"ɮ":{"ha":65,"x_min":0,"x_max":0,"o":"m 765 0 l 765 -557 l 71 -557 l 71 -585 l 1113 -585 l 1113 -557 l 793 -557 l 793 40 l 765 40 z "},"ɯ":{"ha":0,"x_min":0,"x_max":0,"o":"l 0 267 l -14 267 l -14 1003 l -736 1003 l -736 975 "},"ɰ":{"ha":0,"x_min":0,"x_max":0,"o":"l 0 267 l -306 267 l -306 1294 l -1333 1294 l -1333 1267 "},"ɱ":{"ha":267,"x_min":0,"x_max":0,"o":"m 974 458 l 974 486 l 846 486 l 846 489 b 1051 631 889 572 969 631 b 1249 467 1161 631 1226 576 l 1251 467 b 1468 631 1290 560 1379 631 z "},"ɲ":{"ha":-67,"x_min":0,"x_max":0,"o":"m 113 -62 l 113 -382 l 1168 -382 l 1168 403 l 1196 403 l 1196 -146 b 1001 -403 1196 -331 1142 -403 b 904 -385 967 -403 933 -397 l 904 -354 b 1001 -375 933 -368 967 -375 b 1168 -146 1122 -375 1168 -318 z "},"ɳ":{"ha":-67,"x_min":0,"x_max":0,"o":"m 640 431 b 1376 -203 321 431 1376 -62 b NaN -72 1376 -257 1449 -72 z "},"ɴ":{"ha":0,"x_min":0,"x_max":0,"o":"m 657 32 l 657 722 l 685 722 l 685 0 l 643 0 l 143 690 l 140 690 l 140 0 l 113 0 l 113 722 l 153 722 l 654 32 z "},"ɵ":{"ha":0,"x_min":0,"x_max":0,"o":""},"ɶ":{"ha":400,"x_min":0,"x_max":0,"o":"l 0 1100 l 185 1100 b 17 929 61 1100 17 1004 b 68 901 17 806 140 901 b -14 NaN -58 901 -14 NaN l -14 NaN l 453 NaN m -85 NaN b -14 NaN -37 NaN -14 NaN z "},"ɷ":{"ha":232,"x_min":0,"x_max":0,"o":"m 524 232 l 521 232 b 307 -14 492 68 421 -14 b 64 347 178 -14 64 115 b 522 736 64 574 257 736 b 981 347 788 736 981 574 b 738 -14 981 115 867 -14 b 524 232 624 -14 553 68 z m 833 608 b 522 708 753 675 649 708 b 92 347 268 708 92 560 b 307 14 92 132 192 14 b 508 410 439 14 508 150 l 508 514 l 536 514 l 536 410 b 738 14 536 150 606 14 b 953 347 853 14 953 132 b 833 608 953 454 913 540 z "},"ɸ":{"ha":93,"x_min":0,"x_max":0,"o":"m 467 1014 l 467 736 b 318 1111 467 968 461 1111 b -57 736 92 1111 -51 968 b 92 361 -57 504 -51 361 b 467 736 318 361 461 504 l 467 1014 z m 467 14 l 467 708 b 119 361 249 703 119 574 b 467 14 119 149 249 19 z m 494 708 l 494 14 b 842 361 713 19 842 149 b 494 708 842 574 713 703 z "},"ɹ":{"ha":-226,"x_min":0,"x_max":0,"o":"m 446 204 l 443 204 l 443 579 l 471 579 l 471 -143 l 443 -143 z "},"ɺ":{"ha":-219,"x_min":0,"x_max":0,"o":"m 446 204 l 443 204 l 443 885 l 471 885 l 471 -143 l 443 -143 z "},"ɻ":{"ha":-60,"x_min":0,"x_max":0,"o":"m 446 132 l 446 204 l 443 204 b 846 -526 818 204 846 -386 b NaN -396 846 -581 918 -396 z "},"ɼ":{"ha":-226,"x_min":0,"x_max":0,"o":"m 140 518 l 143 518 l 143 -162 l 115 -162 l 115 865 l 143 865 z "},"ɽ":{"ha":-226,"x_min":0,"x_max":0,"o":"m 113 -111 l 113 722 l 140 722 l 140 518 l 143 518 l 143 32 b 317 -149 143 -96 193 -149 b 421 -128 356 -149 390 -142 l 421 -157 b 317 -176 388 -169 353 -176 b 115 32 178 -176 115 -112 z "},"ɾ":{"ha":-317,"x_min":0,"x_max":0,"o":"m 411 717 l 411 688 l 411 701 l 378 701 l 378 664 l 385 664 l 385 624 l -143 624 l -143 596 l 385 596 b 579 804 385 740 444 804 b 690 785 617 804 654 797 z "},"ɿ":{"ha":-317,"x_min":0,"x_max":0,"o":"m 196 736 b 390 528 331 736 390 672 z "},"ʀ":{"ha":-111,"x_min":0,"x_max":0,"o":"m 375 357 l 375 356 b 492 213 418 335 447 297 l 603 0 l 571 0 l 467 200 b 242 347 399 333 375 347 l 106 347 l 106 0 l 78 0 l 78 722 l 242 722 b 579 558 467 722 579 668 b 375 357 579 446 511 379 z m 106 694 l 106 724 l -214 724 l -214 860 b 96 1043 7 860 96 915 b 21 1146 96 1089 71 1124 b -214 1179 -29 1168 -107 1179 z "},"ʁ":{"ha":-111,"x_min":0,"x_max":0,"o":"m 28 367 l 28 365 b 232 164 164 343 232 276 b -106 0 232 54 119 0 l -269 0 l -269 722 l -242 722 l -242 375 l -106 375 b 119 522 28 375 51 389 l 224 722 l 256 722 l 144 510 b 28 367 100 425 71 388 z m -106 347 l -76 347 l -76 211 l -396 211 l -396 347 b -161 381 -289 347 -211 358 b -86 483 -111 403 -86 438 b -396 667 -86 611 -175 667 z "},"ʂ":{"ha":-136,"x_min":0,"x_max":0,"o":"m 126 39 l 126 -62 b 293 -292 126 -235 172 -292 b 390 -271 328 -292 361 -285 l 390 -301 b 293 -319 361 -314 328 -319 b 99 -62 153 -319 99 -247 l 99 69 l 126 69 b 176 101 126 32 194 101 b 126 -68 247 101 126 6 b 75 -292 126 -222 57 -292 b 40 NaN 110 -292 40 NaN z "},"ʃ":{"ha":-421,"x_min":0,"x_max":0,"o":"l 0 210 l 931 210 "},"ʄ":{"ha":0,"x_min":0,"x_max":0,"o":"l -39 0 l -39 -306 l 1294 -306 l 1294 97 l 1294 -306 l 864 -306 "},"ʅ":{"ha":-60,"x_min":0,"x_max":0,"o":"m 750 194 b 1069 389 736 194 1069 329 b NaN NaN 1069 325 925 NaN l NaN NaN b NaN NaN NaN NaN NaN NaN b NaN NaN NaN NaN NaN NaN z "},"ʆ":{"ha":-164,"x_min":0,"x_max":0,"o":"m 342 -76 l 1210 -76 l 1210 -944 l 1467 -944 l 1467 -972 "},"ʇ":{"ha":-136,"x_min":0,"x_max":0,"o":"m 113 56 l 397 56 l 397 528 b 238 708 397 676 360 708 b 126 685 200 708 163 700 l 126 715 b 238 736 161 729 197 736 b 425 528 381 736 425 688 l 425 56 l 599 56 l 599 28 l 425 28 l 425 -236 l 397 -236 l 397 28 l 113 28 z "},"ʈ":{"ha":-136,"x_min":0,"x_max":0,"o":"m 564 667 l 279 667 l 279 -111 l 279 667 l 564 667 z "},"ʉ":{"ha":107,"x_min":0,"x_max":0,"o":"m 196 389 l 78 389 l 78 417 l 196 417 l 196 722 l 224 722 l 224 417 l 689 417 l 689 722 l 717 722 l 717 417 l 842 417 l 842 389 l 717 389 l 717 0 l 689 0 l 689 146 l 686 146 b 425 -14 635 57 524 -14 z m 654 -264 b 918 -42 776 -264 918 -142 l 918 111 l 453 111 l 453 -14 b 654 -264 453 -207 521 -264 z "},"ʊ":{"ha":38,"x_min":0,"x_max":0,"o":"m 663 82 b 425 -14 603 18 524 -14 b 99 333 229 -14 99 126 b 304 692 99 478 167 597 l 304 694 l 78 694 l 78 722 l 356 722 l 356 694 b 126 333 207 607 126 479 b 425 14 126 140 246 14 b 724 333 604 14 724 140 b 494 694 724 479 643 607 l 494 722 l 772 722 l 772 694 l 546 694 l 546 692 b 751 333 683 597 751 478 b 663 82 751 229 722 146 z "},"ʋ":{"ha":0,"x_min":0,"x_max":0,"o":""},"ʌ":{"ha":-74,"x_min":0,"x_max":0,"o":"m 371 700 l 368 700 l 88 0 l 57 0 l 349 722 l 390 722 l 682 0 l 651 0 z "},"ʍ":{"ha":0,"x_min":0,"x_max":0,"o":"m 542 26 l 544 26 l 751 249 l 29 NaN l 0 NaN l -212 NaN l -215 NaN l -422 NaN l -464 NaN l -671 NaN l -674 NaN l -886 NaN l -915 NaN l -693 NaN l -651 NaN z "},"ʎ":{"ha":-39,"x_min":0,"x_max":0,"o":"m 371 686 l 368 686 l 88 0 l 57 0 l 354 721 b 710 1042 450 961 550 1042 l 710 1014 b 385 722 564 1014 475 940 l 696 0 l 665 0 z "},"ʏ":{"ha":-71,"x_min":0,"x_max":0,"o":"m 369 351 l 372 351 l 657 722 l 692 722 l 385 324 l 385 0 l 357 0 l 357 324 l 50 722 l 85 722 z "},"ʐ":{"ha":-87,"x_min":0,"x_max":0,"o":"m 613 28 l 613 -111 b 779 -292 613 -239 661 -292 b 876 -271 815 -292 847 -285 l 876 -300 b 779 -319 844 -312 813 -319 b 585 -111 644 -319 585 -256 l 585 0 l 113 0 l 113 28 l 576 692 z "},"ʑ":{"ha":17,"x_min":0,"x_max":0,"o":"m 390 -139 l 363 -139 b 374 0 363 -90 367 -44 l 113 0 l 113 28 l 576 692 l 576 922 b 838 1165 611 1085 704 1165 b 969 1040 917 1165 969 1117 b 768 894 969 943 903 894 l 599 894 b 588 756 592 850 588 804 z m 604 922 l 768 922 b 942 1040 883 922 942 961 b 838 1138 942 1100 903 1138 b 604 922 717 1138 639 1065 z "},"ʒ":{"ha":-39,"x_min":0,"x_max":0,"o":"m 661 0 l 661 -494 l 689 -494 l 689 40 l 661 40 z "},"ʓ":{"ha":-39,"x_min":0,"x_max":0,"o":"m 633 0 b 342 250 633 167 536 250 l 238 250 l 238 283 l 607 692 l 607 694 l 113 694 l 113 722 l 647 722 l 647 694 b 401 494 499 694 447 599 b 418 326 413 446 418 389 l 390 326 b 375 485 390 383 385 436 b 238 465 333 472 288 465 b 8 611 92 465 8 522 b 140 736 8 688 61 736 b 394 522 269 736 354 665 b 529 785 485 564 529 651 z m 368 513 b 140 708 331 643 256 708 b 36 611 75 708 36 671 b 238 493 36 538 111 493 b 368 513 286 493 329 500 z "},"ʔ":{"ha":-60,"x_min":0,"x_max":0,"o":"m 668 771 b 403 683 668 800 503 683 b 203 NaN 207 683 203 NaN l 203 NaN l 175 NaN l 175 NaN b -96 NaN 79 NaN -11 NaN l -96 NaN b 175 NaN -12 NaN 78 NaN b 285 NaN 249 NaN 444 NaN z "},"ʕ":{"ha":-60,"x_min":0,"x_max":0,"o":"m 404 1028 b 675 953 501 1028 592 1003 l 675 921 b 404 1000 590 974 500 1000 b 113 771 222 1000 113 914 b 425 528 113 615 224 528 l 425 0 l 397 0 l 397 501 b 85 771 201 506 85 606 b 404 1028 85 931 208 1028 z "},"ʖ":{"ha":-60,"x_min":0,"x_max":0,"o":"m 349 -14 b 238 -79 335 -14 238 -104 b NaN NaN 238 -29 154 NaN l NaN NaN b NaN NaN NaN NaN NaN NaN l NaN NaN l NaN NaN l NaN NaN l NaN NaN b NaN NaN NaN NaN NaN NaN b NaN NaN NaN NaN NaN NaN z "},"ʗ":{"ha":-129,"x_min":0,"x_max":0,"o":"m 599 -256 b 358 -125 488 -256 418 -222 b 272 418 299 -28 272 147 b 357 963 272 686 300 865 b 585 1092 413 1060 481 1092 b 410 1019 508 1092 458 1075 b 314 719 360 963 331 874 b 300 446 304 643 300 551 b 333 57 300 279 314 146 b 417 -133 353 -32 385 -97 b 535 -196 449 -169 499 -190 b 599 -200 553 -199 574 -200 b 786 -164 664 -200 726 -187 z "},"ʘ":{"ha":149,"x_min":0,"x_max":0,"o":"b 493 181 175 0 493 318 b NaN NaN 493 356 242 NaN b NaN NaN NaN NaN NaN NaN b NaN NaN NaN NaN NaN NaN "},"ʙ":{"ha":0,"x_min":0,"x_max":0,"o":""},"ʚ":{"ha":17,"x_min":0,"x_max":0,"o":"m 765 361 b 383 -14 765 118 628 -14 b 592 47 460 -14 592 38 b NaN 142 592 92 660 142 b NaN 196 NaN 167 NaN 185 b NaN 369 NaN 306 NaN 369 b NaN -6 NaN 369 NaN 235 z m NaN 342 l NaN 342 l NaN 314 l NaN 314 b NaN 126 NaN 314 NaN 249 b NaN -54 NaN 10 NaN -54 b NaN 293 NaN -54 NaN 65 b NaN 640 NaN 521 NaN 640 z "},"ʛ":{"ha":-6,"x_min":0,"x_max":0,"o":"m 922 1013 l 922 983 l 922 997 l 893 997 l 893 964 l 900 964 l 900 929 l 750 929 b 540 960 681 950 611 960 b 183 617 324 960 183 824 b -160 871 183 735 -24 871 b 132 958 50 871 132 947 b NaN NaN 132 982 203 NaN l NaN NaN l NaN NaN l NaN NaN l NaN NaN l NaN NaN l NaN NaN b NaN NaN NaN NaN NaN NaN l NaN NaN b NaN NaN NaN NaN NaN NaN b NaN NaN NaN NaN NaN NaN z "},"ʜ":{"ha":0,"x_min":0,"x_max":0,"o":""},"ʝ":{"ha":-199,"x_min":0,"x_max":0,"o":"m -28 -1090 "},"ʞ":{"ha":-101,"x_min":0,"x_max":0,"o":"m 571 328 l 568 328 l 125 0 l 78 0 l 550 347 l 71 722 l 115 722 l 568 367 l 571 367 l 571 722 l 599 722 l 599 -319 l 571 -319 z "},"ʟ":{"ha":0,"x_min":0,"x_max":0,"o":"m 140 722 l 140 28 l 590 28 l 590 0 l 113 0 l 113 722 z "},"ʠ":{"ha":-46,"x_min":0,"x_max":0,"o":"m 654 639 l 654 -306 l 626 -306 l 626 131 l 624 131 b 489 -24 535 131 489 32 b 621 -4 489 -140 382 -4 b 882 -149 738 -4 836 -60 l 885 -149 l 885 -101 z m 329 -379 b 593 -726 329 -603 422 -726 b 857 -497 744 -726 857 -625 l 857 -261 b 593 -32 857 -133 744 -32 b 329 NaN 421 -32 329 NaN z "},"ʡ":{"ha":-25,"x_min":0,"x_max":0,"o":"m 356 319 l 85 319 l 85 347 l 356 347 l 356 528 b 85 447 261 528 171 501 l 85 481 l 85 531 l 168 531 l 168 621 l 193 621 l 193 718 l 39 718 l 39 1003 l 11 1003 l 11 718 l -308 718 l -308 690 z "},"ʢ":{"ha":-25,"x_min":0,"x_max":0,"o":"m 404 319 l 119 319 l 119 347 l 404 347 l 404 501 b 92 771 208 506 92 606 b 411 1028 92 931 215 1028 b 682 953 508 1028 599 1003 l 682 919 b 411 1000 596 974 506 1000 b 119 771 229 1000 119 914 b 432 528 119 615 231 528 l 432 347 l 703 347 l 703 319 l 432 319 l 432 0 l 404 0 z "},"ʣ":{"ha":440,"x_min":0,"x_max":0,"o":"l 71 0 l 71 1069 l -249 1069 l -249 1556 l -276 1556 l -276 2019 l -304 2019 l -304 1533 m 701 1867 l 251 1867 l 251 1219 l 701 1864 z "},"ʤ":{"ha":503,"x_min":0,"x_max":0,"o":"m 1203 0 l 1203 -494 l 508 -494 l 508 -522 l 638 -522 l 638 -525 l 1172 -525 l 1172 -553 "},"ʥ":{"ha":531,"x_min":0,"x_max":0,"o":"m 904 -139 l 876 -139 b 888 0 876 -90 881 -44 l 654 0 l 626 0 l 626 129 l 624 129 l 1110 129 l 1110 101 l 1110 318 b 1371 561 1144 481 1238 561 b 1503 436 1450 561 1503 513 b 1301 290 1503 339 1436 290 l 1132 290 b 1121 151 1125 246 1121 200 z m 1676 485 l 1676 -321 l 2176 -321 l 2176 -968 l 2626 -324 l 2626 -321 z m 2443 -987 l 2607 -987 b 2781 -869 2722 -987 2781 -949 b 2676 -772 2781 -810 2742 -772 b 2443 -987 2556 -772 2478 -844 z "},"ʦ":{"ha":329,"x_min":0,"x_max":0,"o":"m 1050 181 b 876 -22 1050 60 954 -22 b 926 NaN 893 -22 926 -99 l 926 NaN b 801 NaN 888 NaN 846 NaN b 614 NaN 658 NaN 614 NaN b 671 NaN 614 NaN 651 NaN l 671 NaN z "},"ʧ":{"ha":114,"x_min":0,"x_max":0,"o":"l 0 619 l 126 619 l 126 600 l 78 600 l 78 550 l 68 550 l 68 496 l 381 496 l 381 621 m 353 -154 b 92 522 353 468 40 522 b 122 NaN 101 522 122 569 z "},"ʨ":{"ha":315,"x_min":0,"x_max":0,"o":"m 536 667 l 279 667 l 279 194 l 279 451 z m 442 -243 b 432 -382 435 -286 432 -332 l 404 -382 b 414 -235 404 -324 407 -275 b 224 118 288 -187 224 -69 l 224 88 "},"ʩ":{"ha":364,"x_min":0,"x_max":0,"o":"m 1043 -111 l 1043 431 l 1015 431 l 1015 1125 l 793 1125 l 793 431 l 765 431 l 765 1125 l 863 1125 l 863 1028 l 1085 1028 l 1113 1028 l 1113 882 l 1115 882 z "},"ʪ":{"ha":-87,"x_min":0,"x_max":0,"o":"m 154 0 l 126 0 l 126 1042 l 154 1042 l 154 606 b 383 736 178 688 263 736 b 350 604 383 657 307 678 z m 801 735 b 576 915 801 818 756 881 b 350 1057 446 940 371 988 l 350 636 b 579 568 424 590 500 568 b 801 735 718 568 801 631 z "},"ʫ":{"ha":-60,"x_min":0,"x_max":0,"o":"m 640 0 l 126 0 l 126 1042 l 154 1042 l 154 722 l 640 722 l 640 694 l 640 1158 z m 604 1825 l 154 1825 l 154 1178 l 604 1822 z "},"ʬ":{"ha":93,"x_min":0,"x_max":0,"o":""},"ʭ":{"ha":-32,"x_min":0,"x_max":0,"o":"m 633 938 l 147 938 l 147 743 l 119 743 l 119 965 l 661 965 l 661 743 l 633 743 z m 633 438 l 147 438 l 147 243 l 119 243 l 119 465 l 661 465 l 661 243 l 633 243 z "},"ʮ":{"ha":-60,"x_min":0,"x_max":0,"o":"m 140 785 z "},"ʯ":{"ha":-60,"x_min":0,"x_max":0,"o":"m 613 -76 b 1654 -343 279 -76 1654 150 b 1586 -1011 1654 -1142 1514 -1196 z "},"ᴀ":{"ha":-10,"x_min":0,"x_max":0,"o":"m 715 0 l 606 243 l 196 243 z m -342 514 l -450 514 l -450 271 l -65 271 l -256 700 l -258 700 z "},"ᴁ":{"ha":163,"x_min":0,"x_max":0,"o":"m 472 0 l 472 243 l 196 243 l 88 0 l 57 0 l 381 722 l 869 722 l 869 694 l 500 694 l 500 410 l 846 410 l 846 382 l 500 382 l 500 28 l 869 28 l 869 0 z m 472 271 l 472 700 l 400 700 l 208 271 z "},"ᴄ":{"ha":15,"x_min":0,"x_max":0,"o":"m 715 78 l 729 54 b 472 -10 656 11 571 -10 b 64 361 224 -10 64 135 b 472 732 64 590 221 732 b 729 668 571 732 656 711 l 715 644 b 472 704 646 685 565 704 b 92 361 233 704 92 576 b 472 18 92 154 240 18 b 715 78 565 18 646 38 z "},"ᴅ":{"ha":0,"x_min":0,"x_max":0,"o":"m 113 0 l 113 722 l 288 722 b 696 371 544 722 696 599 b 288 0 696 133 542 0 z m 668 371 b 288 694 668 581 533 694 l 140 694 l 140 28 l 288 28 b 668 371 531 28 668 153 z "},"ᴆ":{"ha":100,"x_min":0,"x_max":0,"o":"m 231 347 l 57 347 l 57 375 l 231 375 l 231 722 l 406 722 b 849 371 696 722 849 600 b 406 0 849 132 690 0 l 231 0 z m 258 694 l 258 375 l 585 375 l 585 347 l 258 347 l 258 28 l 406 28 b 633 68 489 28 558 38 b 796 226 708 99 761 143 b 821 371 813 268 821 317 b 406 694 821 586 682 694 z "},"ᴇ":{"ha":-128,"x_min":0,"x_max":0,"o":"l 0 579 l 0 1301 l 467 1301 "},"ᴊ":{"ha":-190,"x_min":0,"x_max":0,"o":"m 57 19 l 67 46 b 232 18 115 28 171 18 b 496 276 404 18 496 108 l 496 722 l 524 722 l 524 276 b 232 -10 524 88 417 -10 b 57 19 167 -10 108 0 z "},"ᴋ":{"ha":0,"x_min":0,"x_max":0,"o":"l -100 536 l 396 160 l 350 160 "},"ᴌ":{"ha":-54,"x_min":0,"x_max":0,"o":"m 190 360 l 47 293 l 36 318 l 190 390 l 190 722 l 218 722 l 218 403 l 514 540 l 526 515 l 218 372 l 218 28 l 681 28 l 681 0 l 190 0 z "},"ᴍ":{"ha":0,"x_min":0,"x_max":0,"o":"m 478 26 l 481 26 l 732 722 l 779 722 l 888 0 l 860 0 l 756 699 l 753 699 l 500 0 l 458 0 "},"ᴎ":{"ha":0,"x_min":0,"x_max":0,"o":""},"ᴏ":{"ha":132,"x_min":0,"x_max":0,"o":"m 768 93 b 472 -10 693 25 594 -10 b 64 361 228 -10 64 139 b 472 732 64 583 228 732 b 881 361 717 732 881 583 b 768 93 881 250 843 161 z m 197 113 b 472 18 267 50 358 18 b 853 361 700 18 853 156 b 472 704 853 567 700 704 b 92 361 244 704 92 567 b 197 113 92 258 126 175 z "},"ᴐ":{"ha":15,"x_min":0,"x_max":0,"o":"m 99 54 l 113 78 b 356 18 182 38 263 18 b 736 361 588 18 736 154 b 356 704 736 576 594 704 b 113 644 263 704 182 685 l 99 668 b 356 732 172 711 257 732 b 764 361 607 732 764 590 b 356 -10 764 135 604 -10 b 99 54 257 -10 172 11 z "},"ᴕ":{"ha":-46,"x_min":0,"x_max":0,"o":"m 190 447 b 383 400 236 415 301 400 b 647 579 549 400 647 467 l 647 722 l 675 722 l 675 579 b 489 386 675 475 613 411 l 489 385 b 675 193 607 358 675 293 b 383 -10 675 67 563 -10 b 92 193 204 -10 92 67 b 278 385 92 293 160 358 l 278 386 b 92 579 154 411 92 475 l 92 722 l 119 722 l 119 579 b NaN NaN 119 522 143 NaN z m NaN NaN b NaN NaN NaN NaN NaN NaN b NaN NaN NaN NaN NaN NaN b NaN NaN NaN NaN NaN NaN b NaN NaN NaN NaN NaN NaN b NaN NaN NaN NaN NaN NaN z "},"ᴘ":{"ha":0,"x_min":0,"x_max":0,"o":""},"ᴙ":{"ha":0,"x_min":0,"x_max":0,"o":""},"ᴚ":{"ha":-111,"x_min":0,"x_max":0,"o":"m 28 365 l 28 367 b -89 510 -15 388 -44 425 l -200 722 l -168 722 l -64 522 b 161 375 4 389 28 375 l 297 375 l 297 722 l 325 722 l 325 0 l 161 0 b -176 164 -64 0 -176 54 b 28 365 -176 276 -108 343 z m 297 28 l 297 57 l 617 57 l 617 -79 b 307 -262 396 -79 307 -135 b 382 -365 307 -308 332 -343 b 617 -399 432 -387 510 -399 z "},"ᴛ":{"ha":0,"x_min":0,"x_max":0,"o":"m 678 722 l 678 694 l 388 694 l 388 0 l 360 0 l 360 694 l 71 694 l 71 722 z "},"ᴜ":{"ha":-32,"x_min":0,"x_max":0,"o":"m 99 722 l 126 722 l 126 267 b 390 18 126 104 218 18 b 654 267 563 18 654 104 l 654 722 l 682 722 l 682 267 b 390 -10 682 88 578 -10 b 99 267 203 -10 99 88 z "},"ᴠ":{"ha":-10,"x_min":0,"x_max":0,"o":"m 400 25 l 403 25 l 715 722 l 746 722 l 421 0 l 381 0 l 57 722 l 88 722 z "},"ᴡ":{"ha":0,"x_min":0,"x_max":0,"o":"m 556 694 l 554 694 l 332 0 l 289 0 l 71 722 l 100 722 l 310 28 l 311 28 l 533 722 l 576 722 l 799 28 l 801 28 l 1010 722 l 1039 722 l 821 0 l 779 0 z "},"ᴢ":{"ha":-93,"x_min":0,"x_max":0,"o":"m 592 693 l 592 694 l 92 694 l 92 722 l 628 722 l 628 694 l 128 29 l 128 28 l 628 28 l 628 0 l 92 0 l 92 28 z "},"ᴣ":{"ha":-149,"x_min":0,"x_max":0,"o":"m 515 692 l 515 694 l 76 694 l 76 722 l 561 722 l 561 694 l 236 418 l 236 415 l 285 415 b 572 218 476 415 572 350 b 281 -10 572 67 475 -10 b 71 44 201 -10 132 8 l 85 68 b 281 18 142 35 207 18 b 481 47 347 18 481 46 b NaN 97 481 58 463 97 b NaN NaN NaN 135 NaN NaN b NaN NaN NaN NaN NaN NaN l NaN NaN l NaN NaN z "},"ḁ":{"ha":-81,"x_min":0,"x_max":0,"o":"b 746 315 586 0 746 163 b NaN NaN 746 410 1017 NaN l NaN NaN l NaN NaN b NaN NaN NaN NaN NaN NaN b NaN NaN NaN NaN NaN NaN "},"ḃ":{"ha":-39,"x_min":0,"x_max":0,"o":"m -226 -1162 z "},"ḅ":{"ha":-39,"x_min":0,"x_max":0,"o":"m 150 129 "},"ḇ":{"ha":-39,"x_min":0,"x_max":0,"o":"m 150 129 z "},"ḉ":{"ha":-108,"x_min":0,"x_max":0,"o":"m 75 -982 l 139 -440 l 151 -465 b 31 -508 111 -487 71 -501 b 21 -537 65 -508 21 -492 b 114 -603 21 -585 69 -603 b 117 NaN 76 -603 117 NaN z "},"ḋ":{"ha":-39,"x_min":0,"x_max":0,"o":""},"ḍ":{"ha":-39,"x_min":0,"x_max":0,"o":""},"ḏ":{"ha":-39,"x_min":0,"x_max":0,"o":""},"ḑ":{"ha":0,"x_min":0,"x_max":0,"o":""},"ḓ":{"ha":-39,"x_min":0,"x_max":0,"o":""},"ḕ":{"ha":181,"x_min":0,"x_max":0,"o":"m 347 -403 l -97 -403 l -97 -375 l 347 -375 b -174 NaN 417 -375 -174 NaN z "},"ḗ":{"ha":181,"x_min":0,"x_max":0,"o":"m 543 1319 z m 640 917 l 196 917 l 196 944 l 640 944 b 119 NaN 710 944 119 NaN z "},"ḙ":{"ha":-67,"x_min":0,"x_max":0,"o":""},"ḛ":{"ha":0,"x_min":0,"x_max":0,"o":""},"ḝ":{"ha":-67,"x_min":0,"x_max":0,"o":"m 329 -1007 b 1483 -1018 483 -1007 1483 -972 b 1418 -1047 1483 -1000 1438 -1047 b 1426 NaN 1464 -1047 1426 -1004 b 1372 NaN 1403 NaN 1385 NaN b 1039 NaN 1167 NaN 1039 NaN l 1039 NaN l 1053 NaN b 903 NaN 1006 NaN 956 NaN z m 511 NaN z "},"ḟ":{"ha":-108,"x_min":0,"x_max":0,"o":"m 132 -264 b NaN NaN 488 -264 NaN NaN l NaN NaN b NaN NaN NaN NaN NaN NaN z "},"ḡ":{"ha":-60,"x_min":0,"x_max":0,"o":"m -7 -931 l -7 -311 l 107 -311 l 107 -314 "},"ḣ":{"ha":-46,"x_min":0,"x_max":0,"o":""},"ḥ":{"ha":-60,"x_min":0,"x_max":0,"o":"m 147 1042 l 147 572 l 150 572 b 293 754 239 572 293 679 b 46 615 293 854 175 708 l 46 129 l 18 129 l 18 1171 "},"ḧ":{"ha":-46,"x_min":0,"x_max":0,"o":""},"ḩ":{"ha":-33,"x_min":0,"x_max":0,"o":"m 160 1042 b -376 1025 -337 1042 -161 1115 l -376 594 l -404 594 l -404 1025 l -790 1025 l -790 2067 z "},"ḫ":{"ha":0,"x_min":0,"x_max":0,"o":""},"ḭ":{"ha":-421,"x_min":0,"x_max":0,"o":""},"ḯ":{"ha":-407,"x_min":0,"x_max":0,"o":"m 369 1319 "},"ḱ":{"ha":-81,"x_min":0,"x_max":0,"o":"m 532 1319 z m 182 1042 l 182 394 l 185 394 l 640 722 l 689 722 l 203 375 l 696 0 l 650 0 l 185 356 l 182 356 l 182 0 l 154 0 l 154 1042 z "},"ḳ":{"ha":-94,"x_min":0,"x_max":0,"o":"m 147 1042 l -500 1042 l -500 2083 "},"ḵ":{"ha":-94,"x_min":0,"x_max":0,"o":"m 147 1042 l -500 1042 l -500 2083 z "},"ḷ":{"ha":-421,"x_min":0,"x_max":0,"o":"m 111 0 l 0 0 l 0 -28 l 1042 -28 l 1042 0 "},"ḹ":{"ha":-421,"x_min":0,"x_max":0,"o":"m -208 -1250 l 210 -1250 l 210 -28 l 182 -28 l 182 1014 l 210 1014 "},"ḻ":{"ha":-421,"x_min":0,"x_max":0,"o":"m 210 0 l 182 0 l 182 1042 l 210 1042 z "},"ḽ":{"ha":-421,"x_min":0,"x_max":0,"o":"m 210 0 l 182 0 l 182 1042 l 210 1042 z "},"ḿ":{"ha":267,"x_min":0,"x_max":0,"o":""},"ṁ":{"ha":267,"x_min":0,"x_max":0,"o":""},"ṃ":{"ha":267,"x_min":0,"x_max":0,"o":""},"ṅ":{"ha":-67,"x_min":0,"x_max":0,"o":"m -243 -292 l -243 444 l -132 444 l -132 828 l -618 828 l -618 800 l 104 800 z "},"ṇ":{"ha":-67,"x_min":0,"x_max":0,"o":"m 140 722 l 140 576 l 143 576 b 283 758 232 576 283 688 b 39 615 283 857 161 715 l 39 129 l 11 129 l 11 851 "},"ṉ":{"ha":-67,"x_min":0,"x_max":0,"o":""},"ṋ":{"ha":-67,"x_min":0,"x_max":0,"o":""},"ṍ":{"ha":-32,"x_min":0,"x_max":0,"o":"m 550 1319 "},"ṏ":{"ha":-32,"x_min":0,"x_max":0,"o":""},"ṑ":{"ha":0,"x_min":0,"x_max":0,"o":""},"ṓ":{"ha":0,"x_min":0,"x_max":0,"o":"m 550 1319 "},"ṕ":{"ha":-46,"x_min":0,"x_max":0,"o":"m 497 1042 z m 439 -14 b 94 -336 207 -14 94 -157 z m 358 39 "},"ṗ":{"ha":-46,"x_min":0,"x_max":0,"o":""},"ṙ":{"ha":-226,"x_min":0,"x_max":0,"o":""},"ṛ":{"ha":-226,"x_min":0,"x_max":0,"o":""},"ṝ":{"ha":-226,"x_min":0,"x_max":0,"o":""},"ṟ":{"ha":-226,"x_min":0,"x_max":0,"o":""},"ṡ":{"ha":-143,"x_min":0,"x_max":0,"o":""},"ṣ":{"ha":-143,"x_min":0,"x_max":0,"o":""},"ṥ":{"ha":-143,"x_min":0,"x_max":0,"o":"m 118 -236 z m 257 -583 l 993 -514 l 981 -539 b 1022 -400 981 -458 1060 -476 z "},"ṧ":{"ha":-143,"x_min":0,"x_max":0,"o":"m 215 -146 l 951 -56 l 917 -493 l 904 -518 b 946 -379 904 -437 983 -456 z "},"ṩ":{"ha":-143,"x_min":0,"x_max":0,"o":""},"ṫ":{"ha":-136,"x_min":0,"x_max":0,"o":"m 194 -597 l 194 -228 l 167 -228 l 167 -512 l -306 -512 z "},"ṭ":{"ha":-136,"x_min":0,"x_max":0,"o":""},"ṯ":{"ha":-129,"x_min":0,"x_max":0,"o":""},"ṱ":{"ha":-136,"x_min":0,"x_max":0,"o":""},"ṳ":{"ha":-67,"x_min":0,"x_max":0,"o":"m 606 0 l 606 178 l 603 178 l 603 -544 "},"ṵ":{"ha":-67,"x_min":0,"x_max":0,"o":"m 606 0 l 606 178 l 603 178 l 603 -544 z m 144 -808 l 117 -808 b 207 -656 117 -707 147 -656 b 353 -719 244 -656 293 -676 b 485 -781 410 -760 454 -781 b 579 -701 485 -739 506 -701 b 456 -807 486 -701 456 -747 b 449 -883 456 -844 406 -822 z "},"ṷ":{"ha":-67,"x_min":0,"x_max":0,"o":"m 606 0 l 606 178 l 603 178 l 603 -544 z "},"ṹ":{"ha":-67,"x_min":0,"x_max":0,"o":"m 536 1319 z m 967 472 l 967 146 l 494 146 l 494 324 l 492 324 l 492 -399 z "},"ṻ":{"ha":-67,"x_min":0,"x_max":0,"o":"m 69 -326 l -375 -326 l -375 -299 l 69 -299 z m 76 -1201 l 76 -1024 l 74 -1024 b -162 -746 -94 -1024 -162 -944 l -162 -1468 z "},"ṽ":{"ha":-60,"x_min":0,"x_max":0,"o":"m -87 -111 l 88 722 l 375 22 z "},"ṿ":{"ha":0,"x_min":0,"x_max":0,"o":""},"ẇ":{"ha":301,"x_min":0,"x_max":0,"o":"m 201 -1014 "},"ẉ":{"ha":274,"x_min":0,"x_max":0,"o":"m 751 0 "},"ẋ":{"ha":-74,"x_min":0,"x_max":0,"o":"m -264 -292 l 119 -43 l -214 NaN l -211 NaN z "},"ẍ":{"ha":-74,"x_min":0,"x_max":0,"o":"m -403 -292 l -158 -43 l -492 NaN l -489 NaN z "},"ẏ":{"ha":-39,"x_min":0,"x_max":0,"o":""},"ẑ":{"ha":-74,"x_min":0,"x_max":0,"o":"l 0 390 l -236 390 l -236 -624 l -264 -624 l -264 -1137 "},"ẓ":{"ha":0,"x_min":0,"x_max":0,"o":""},"ẕ":{"ha":-87,"x_min":0,"x_max":0,"o":""},"ẖ":{"ha":-60,"x_min":0,"x_max":0,"o":""},"ẗ":{"ha":-136,"x_min":0,"x_max":0,"o":"m 56 -597 l 56 -367 l 1181 -367 l 1181 -394 l 896 -394 l 896 -867 z "},"ẘ":{"ha":301,"x_min":0,"x_max":0,"o":"m 126 -842 l 340 -628 l 560 68 l 589 68 l 360 -654 z "},"ẙ":{"ha":-39,"x_min":0,"x_max":0,"o":""},"ẚ":{"ha":42,"x_min":0,"x_max":0,"o":"m 307 778 l 307 806 b 432 931 375 806 432 860 b 307 1056 432 1001 375 1056 l 307 1083 b 460 931 392 1083 460 1015 b 307 778 460 846 392 778 b -32 NaN 586 778 -32 NaN z "},"ẛ":{"ha":-233,"x_min":0,"x_max":0,"o":"m -90 -1292 l 203 -1292 l 203 -1319 l 1022 -1319 z "},"ẜ":{"ha":-172,"x_min":0,"x_max":0,"o":"m 513 543 l 292 443 l 292 0 l 264 0 l 264 429 l 54 335 l 43 360 l 264 460 l 264 819 l 264 474 l 474 568 z "},"ẝ":{"ha":-101,"x_min":0,"x_max":0,"o":"m 307 806 l 85 806 l 85 833 l 307 833 b 501 1028 311 968 369 1028 b 335 861 386 1028 336 979 l 571 861 l 571 833 l 335 833 l 335 28 l 307 28 z "},"ẟ":{"ha":-32,"x_min":0,"x_max":0,"o":"m 293 722 b 182 1739 279 1764 182 1788 b 260 NaN 182 1790 260 NaN b 503 NaN 260 NaN 351 NaN b 739 NaN 583 NaN 663 NaN l 726 NaN b 503 NaN 653 NaN 578 NaN b 288 NaN 365 NaN 288 NaN b 503 NaN 288 NaN 360 NaN b 829 NaN 715 NaN 829 NaN b 936 NaN 829 NaN 704 NaN b 1250 NaN 1126 NaN 1211 NaN z m 1329 NaN b 1049 NaN 1156 NaN 1049 NaN b 1347 NaN 1049 NaN 1163 NaN b 1646 NaN 1532 NaN 1646 NaN b 1346 NaN 1646 NaN 1546 NaN b 1338 NaN 1344 NaN 1342 NaN z "},"ạ":{"ha":-101,"x_min":0,"x_max":0,"o":"m 578 0 "},"ả":{"ha":0,"x_min":0,"x_max":0,"o":""},"ấ":{"ha":0,"x_min":0,"x_max":0,"o":"m 229 -1042 z "},"ầ":{"ha":-82,"x_min":0,"x_max":0,"o":"m 229 -1042 z "},"ẩ":{"ha":0,"x_min":0,"x_max":0,"o":"b 1068 718 0 779 1125 718 b 1047 NaN 1061 718 1047 665 l 1047 NaN m 1276 NaN z "},"ẫ":{"ha":0,"x_min":0,"x_max":0,"o":"m 229 -1042 z "},"ậ":{"ha":-101,"x_min":0,"x_max":0,"o":"m 229 -1042 "},"ắ":{"ha":0,"x_min":0,"x_max":0,"o":"m 376 1069 l 342 1069 z m -61 778 l -33 778 b 168 639 -33 707 53 639 b 369 778 283 639 369 707 l 397 778 b 168 611 397 689 297 611 b -61 778 39 611 -61 689 "},"ằ":{"ha":0,"x_min":0,"x_max":0,"o":"m 231 1292 l 64 1514 z m 439 1222 l 467 1222 b 238 1056 467 1133 367 1056 b 8 1222 108 1056 8 1133 l 36 1222 b 238 1083 36 1151 122 1083 b 439 1222 353 1083 439 1151 "},"ẳ":{"ha":0,"x_min":0,"x_max":0,"o":"m -417 -181 l -389 -181 b -187 -319 -389 -251 -303 -319 b 14 -181 -72 -319 14 -251 l 42 -181 b -187 -347 42 -269 -58 -347 b -417 -181 -317 -347 -417 -269 "},"ẵ":{"ha":0,"x_min":0,"x_max":0,"o":"b -125 -549 -28 0 -125 438 b NaN NaN -125 -499 -114 NaN "},"ặ":{"ha":-101,"x_min":0,"x_max":0,"o":"b 1140 -562 140 0 1140 438 b NaN NaN 1140 -512 1151 NaN "},"ẹ":{"ha":0,"x_min":0,"x_max":0,"o":"m 390 14 b NaN NaN 442 14 411 NaN b NaN NaN NaN NaN NaN NaN b NaN NaN NaN NaN NaN NaN b NaN NaN NaN NaN NaN NaN b NaN NaN NaN NaN NaN NaN l NaN NaN l NaN NaN "},"ẻ":{"ha":69,"x_min":0,"x_max":0,"o":"b 1014 556 0 550 1014 574 "},"ẽ":{"ha":97,"x_min":0,"x_max":0,"o":"b NaN NaN 0 161 NaN NaN "},"ế":{"ha":-93,"x_min":0,"x_max":0,"o":""},"ề":{"ha":-93,"x_min":0,"x_max":0,"o":""},"ể":{"ha":-94,"x_min":0,"x_max":0,"o":"b 1068 711 0 772 1125 711 b 1047 NaN 1061 711 1047 658 l 1047 NaN "},"ễ":{"ha":0,"x_min":0,"x_max":0,"o":""},"ệ":{"ha":0,"x_min":0,"x_max":0,"o":"m 49 -1028 b 249 -924 167 -1058 194 -964 b 375 -862 288 -924 342 -862 b NaN NaN 428 -862 454 NaN b NaN NaN NaN NaN NaN NaN l NaN NaN l NaN NaN "},"ỉ":{"ha":-421,"x_min":0,"x_max":0,"o":"b 1014 389 0 383 1014 407 "},"ị":{"ha":-421,"x_min":0,"x_max":0,"o":"m 0 -1042 "},"ọ":{"ha":-60,"x_min":0,"x_max":0,"o":""},"ỏ":{"ha":-60,"x_min":0,"x_max":0,"o":"b 1014 569 0 564 1014 588 "},"ố":{"ha":0,"x_min":0,"x_max":0,"o":""},"ồ":{"ha":0,"x_min":0,"x_max":0,"o":""},"ổ":{"ha":0,"x_min":0,"x_max":0,"o":"b 1068 725 0 786 1125 725 b 1047 NaN 1061 725 1047 672 l 1047 NaN "},"ỗ":{"ha":175,"x_min":0,"x_max":0,"o":""},"ộ":{"ha":-60,"x_min":0,"x_max":0,"o":""},"ớ":{"ha":100,"x_min":0,"x_max":0,"o":"m 561 1042 z "},"ờ":{"ha":100,"x_min":0,"x_max":0,"o":""},"ở":{"ha":100,"x_min":0,"x_max":0,"o":""},"ỡ":{"ha":100,"x_min":0,"x_max":0,"o":""},"ợ":{"ha":0,"x_min":0,"x_max":0,"o":""},"ụ":{"ha":-74,"x_min":0,"x_max":0,"o":""},"ủ":{"ha":-74,"x_min":0,"x_max":0,"o":"b 1014 569 0 564 1014 588 "},"ứ":{"ha":72,"x_min":0,"x_max":0,"o":"m 540 1042 "},"ừ":{"ha":0,"x_min":0,"x_max":0,"o":""},"ử":{"ha":0,"x_min":0,"x_max":0,"o":""},"ữ":{"ha":72,"x_min":0,"x_max":0,"o":""},"ự":{"ha":72,"x_min":0,"x_max":0,"o":"l -28 0 l -28 146 l -31 146 b -292 -14 -82 57 -193 -14 b -165 -92 -292 -171 -364 -92 b -290 -15 -358 -92 -290 -149 b -49 229 -290 107 -149 229 l -49 715 l -21 715 l -21 558 b -22 578 -64 558 -22 600 b -46 699 -22 619 -31 661 "},"ỵ":{"ha":0,"x_min":0,"x_max":0,"o":""},"ỷ":{"ha":-39,"x_min":0,"x_max":0,"o":""},"ỹ":{"ha":-39,"x_min":0,"x_max":0,"o":""},"ỻ":{"ha":-4,"x_min":0,"x_max":0,"o":"m 210 792 l 432 792 l 432 819 l 210 819 l 210 1153 l 432 1153 l 432 1181 l 210 1181 l 210 1333 l 182 1333 l 182 1181 l -610 1181 l -610 1153 l 182 1153 l 182 819 l -610 819 l -610 792 z "},"ỽ":{"ha":-74,"x_min":0,"x_max":0,"o":"m 668 306 b 369 -14 668 106 557 -14 b 71 428 185 -14 71 254 b NaN 771 71 686 314 771 l NaN 742 b NaN 160 NaN 657 NaN 414 b NaN -174 NaN -50 NaN -174 b NaN 118 NaN -174 NaN -65 b NaN 403 NaN 247 NaN 354 l NaN 403 b NaN 118 NaN 343 NaN 239 z "},"ỿ":{"ha":-39,"x_min":0,"x_max":0,"o":"m 147 -319 b 1 -194 57 -319 1 -271 b 203 -49 1 -97 68 -49 l 368 -49 l 389 0 l 78 722 l 108 722 l 403 36 l 406 36 l 686 722 l 717 722 l 419 1 b 399 -49 413 -17 406 -33 l 585 -49 l 585 -76 l 386 -76 b 147 -319 301 -271 246 -319 z m 356 -76 l 203 -76 b 29 -194 64 -76 29 -126 b 147 -292 29 -256 74 -292 b 253 -249 188 -292 224 -278 b 356 -76 282 -221 317 -164 z "},"ↄ":{"ha":-108,"x_min":0,"x_max":0,"o":""},"ⱱ":{"ha":0,"x_min":0,"x_max":0,"o":""},"ⱻ":{"ha":-128,"x_min":0,"x_max":0,"o":"m 544 410 l 544 694 l 106 694 l 106 722 l 572 722 l 572 0 l 106 0 l 106 28 l 544 28 l 544 382 l 129 382 l 129 410 z "},"ꜰ":{"ha":-153,"x_min":0,"x_max":0,"o":"m 140 694 l 140 400 l 544 400 l 544 372 l 140 372 l 140 0 l 113 0 l 113 722 l 568 722 l 568 694 z "},"ꜱ":{"ha":-153,"x_min":0,"x_max":0,"o":"m 336 396 b 575 178 504 351 575 288 b 329 -10 575 57 489 -10 b 85 60 235 -10 153 14 l 100 82 b 329 18 163 39 239 18 b 547 178 475 18 547 71 b 328 368 547 261 501 322 b 96 574 174 410 96 478 b 329 732 96 669 181 732 b 563 683 417 732 494 715 l 551 657 b 329 704 483 689 410 704 b 124 574 200 704 124 656 b 336 396 124 493 194 433 z "},"ꞌ":{"ha":-504,"x_min":0,"x_max":0,"o":"m 168 597 l 140 597 l 140 1014 l 168 1014 z "},"ａ":{"ha":0,"x_min":0,"x_max":0,"o":"m 375 194 b 421 326 375 239 382 276 b 629 433 460 375 517 410 b 826 451 686 446 751 451 l 924 451 l 924 458 b 681 708 924 647 864 708 b 417 642 585 708 497 686 l 403 667 b 681 736 488 713 581 736 b 951 458 879 736 951 664 l 951 194 b 972 0 951 129 958 65 l 944 0 b 925 167 933 51 926 107 l 922 167 b 618 -14 872 57 757 -14 b 375 194 467 -14 375 63 z m 924 292 l 924 424 l 826 424 b 403 194 553 424 403 343 b 618 14 403 79 481 14 b 924 292 792 14 924 135 z "},"ｂ":{"ha":0,"x_min":0,"x_max":0,"o":"m 461 163 l 458 163 l 458 0 l 431 0 l 431 1042 l 458 1042 l 458 560 l 461 560 b 736 736 507 678 599 736 b 1042 361 924 736 1042 583 b 736 -14 1042 126 926 -14 b 461 163 599 -14 507 44 z m 1014 361 "},"ｃ":{"ha":0,"x_min":0,"x_max":0,"o":"m 925 60 l 938 35 b 729 -14 872 3 803 -14 b 354 361 507 -14 354 135 b 729 736 354 593 497 736 b 938 688 803 736 872 719 l 925 663 b 729 708 864 693 799 708 b 382 361 517 708 382 576 b 729 14 382 154 519 14 b 925 60 799 14 864 29 z "},"ｄ":{"ha":0,"x_min":0,"x_max":0,"o":"m 931 163 l 928 163 b 653 -14 882 44 790 -14 b 347 361 463 -14 347 126 b 653 736 347 583 465 736 b 928 560 790 736 882 678 l 931 560 l 931 1042 l 958 1042 l 958 0 l 931 0 z m 375 361 b 653 14 375 143 479 14 b 931 26 829 14 931 -87 b 619 -464 931 -150 763 -260 z "},"ｅ":{"ha":0,"x_min":0,"x_max":0,"o":"m 1000 354 l 389 354 b 708 14 390 142 510 14 b 944 75 793 14 871 35 l 958 50 b 708 -14 882 7 799 -14 b 361 361 493 -14 361 129 b 694 736 361 596 485 736 b 1000 368 889 736 1000 601 z m 389 382 l 971 382 b 694 708 967 593 868 708 b 389 382 507 708 396 589 z "},"ｆ":{"ha":0,"x_min":0,"x_max":0,"o":"m 868 1000 b 660 778 719 1000 660 938 l 660 694 l 410 694 l 410 722 l 660 722 l 660 806 b 896 1056 660 978 733 1056 z "},"ｇ":{"ha":0,"x_min":0,"x_max":0,"o":"m 928 601 l 931 601 l 931 722 l 958 722 l 958 486 b 674 250 958 340 850 250 b 489 297 600 250 538 265 b 444 215 460 272 444 244 b 539 128 444 175 456 150 b 708 111 579 117 636 111 b 1014 -90 918 111 1014 47 b 667 -319 1014 -233 885 -319 b 347 -111 468 -319 347 -240 b 496 110 347 -24 408 67 b 417 215 443 131 417 165 b 465 314 417 251 433 285 b 389 486 414 357 389 414 b 660 736 389 635 500 736 b 928 601 790 736 879 692 z m 417 486 b 674 278 417 354 513 278 b 931 486 835 278 931 354 b 660 708 931 624 826 708 b 417 486 514 708 417 619 z m 986 -90 b 940 29 986 -40 976 -7 b 708 83 904 65 825 83 b 539 97 636 83 579 88 b 375 -111 449 68 375 -26 b 667 -292 375 -222 488 -292 b 986 -90 867 -292 986 -217 z "},"ｈ":{"ha":0,"x_min":0,"x_max":0,"o":"m 444 1042 l 444 542 l 1486 542 z "},"ｉ":{"ha":722,"x_min":0,"x_max":0,"o":""},"ｊ":{"ha":0,"x_min":0,"x_max":0,"o":"m -347 -1347 l -347 -597 l -319 -597 b 0 -319 -62 -597 0 -543 l 0 403 l 28 403 l 28 -319 b -319 -625 28 -560 -47 -625 z "},"ｋ":{"ha":0,"x_min":0,"x_max":0,"o":"m 465 1042 l 465 394 l 468 394 l 950 722 l 1000 722 l 486 375 l 1007 0 l 960 0 l 468 356 l 465 356 l 465 0 l 438 0 l 438 1042 z "},"ｌ":{"ha":0,"x_min":0,"x_max":0,"o":"m 1042 0 l 1014 0 l 1014 1042 l 1042 1042 z "},"ｍ":{"ha":0,"x_min":0,"x_max":0,"o":"m 708 472 b 343 483 236 472 343 538 b NaN NaN 343 376 367 NaN l NaN NaN b NaN NaN NaN NaN NaN NaN b NaN NaN NaN NaN NaN NaN b NaN NaN NaN NaN NaN NaN z "},"ｎ":{"ha":0,"x_min":0,"x_max":0,"o":"m 444 722 l 444 542 l 1167 542 z "},"ｏ":{"ha":0,"x_min":0,"x_max":0,"o":"m 446 88 b 354 361 385 154 354 246 b 694 736 354 593 485 736 b 1035 361 904 736 1035 593 b 694 -14 1035 129 904 -14 b 446 88 590 -14 507 19 z m 467 107 b 694 14 522 44 599 14 b 1007 361 888 14 1007 146 b 694 708 1007 576 888 708 b 382 361 501 708 382 576 b 467 107 382 254 410 169 z "},"ｐ":{"ha":0,"x_min":0,"x_max":0,"o":"m 454 163 l 451 163 l 451 -306 l 424 -306 l 424 722 l 451 722 l 451 560 l 454 560 b 729 736 500 678 592 736 b 1035 361 918 736 1035 593 b 729 -14 1035 129 918 -14 b 454 163 592 -14 500 44 z m 1007 361 "},"ｑ":{"ha":0,"x_min":0,"x_max":0,"o":"m 938 163 l 935 163 b 771 13 817 163 771 71 b 850 -33 771 -125 908 -33 b 778 NaN 732 -33 778 NaN l 781 NaN l 781 NaN l 808 NaN l 808 NaN l 781 NaN z m 225 NaN b 503 NaN 225 NaN 329 NaN b 781 NaN 679 NaN 781 NaN b NaN NaN 781 NaN 610 NaN z "},"ｒ":{"ha":0,"x_min":0,"x_max":0,"o":"m 556 722 l 556 508 l 558 508 b 986 736 624 643 792 736 l 986 708 b 556 389 749 708 556 565 l 556 0 l 528 0 l 528 722 z "},"ｓ":{"ha":0,"x_min":0,"x_max":0,"o":"m 951 181 b 900 290 951 224 935 260 b 692 361 865 319 796 343 b 424 556 501 394 424 450 b 694 736 424 665 518 736 b 958 681 785 736 872 718 l 947 656 b 694 708 868 690 783 708 b 451 556 543 708 451 651 b 501 456 451 517 468 483 b 697 389 533 428 599 406 b 979 181 896 354 979 292 b 694 -14 979 58 879 -14 b 424 56 599 -14 508 10 l 438 81 b 694 14 518 36 604 14 b 858 43 751 14 801 21 b 951 181 914 64 951 113 z "},"ｔ":{"ha":0,"x_min":0,"x_max":0,"o":"m 597 667 l 597 194 b 771 14 597 51 633 14 b 915 33 819 14 868 21 l 924 7 b 771 -14 875 -7 825 -14 b 569 NaN 617 -14 569 NaN l 569 NaN l 382 NaN l 382 NaN l 569 NaN l 569 NaN l 542 NaN z "},"ｕ":{"ha":0,"x_min":0,"x_max":0,"o":"m 938 0 l 938 181 l 935 181 b 660 -14 885 64 782 -14 b 786 -112 660 -192 588 -112 b 669 -24 607 -112 669 -183 b NaN NaN 669 131 793 NaN l NaN NaN l NaN NaN l NaN NaN z "},"ｖ":{"ha":0,"x_min":0,"x_max":0,"o":"m 392 722 l 693 22 l 696 22 l 997 722 l 1028 722 l 715 0 l 674 0 l 361 722 z "},"ｗ":{"ha":0,"x_min":0,"x_max":0,"o":"m 910 0 "},"ｘ":{"ha":0,"x_min":0,"x_max":0,"o":"m 971 0 l 696 343 l 693 343 l 418 0 l 382 0 l 676 365 l 389 722 l 425 722 l 693 388 l 696 388 l 964 722 l 1000 722 l 713 365 l 1007 0 z "},"ｙ":{"ha":0,"x_min":0,"x_max":0,"o":"m 700 0 l 368 722 l 399 722 l 714 36 l 717 36 l 1018 722 l 1049 722 l 731 1 b 354 -319 614 -261 538 -319 l 354 -292 b 594 -187 469 -292 529 -271 b 700 0 626 -147 663 -85 z "},"ｚ":{"ha":0,"x_min":0,"x_max":0,"o":"m 417 28 l 935 692 l 935 694 l 417 694 l 417 722 l 972 722 l 972 694 l 454 31 l 454 28 l 972 28 l 972 0 l 417 0 z "},"ų":{"ha":-75,"x_min":0,"x_max":0,"o":"m 624 -278 l 624 -308 b 471 -340 575 -329 524 -340 b 624 -136 471 -268 528 -193 l 624 -7 l 621 -7 z "},"ů":{"ha":-74,"x_min":0,"x_max":0,"o":""},"ũ":{"ha":-74,"x_min":0,"x_max":0,"o":""},"v":{"ha":-74,"x_min":0,"x_max":0,"o":""},"w":{"ha":0,"x_min":0,"x_max":0,"o":"m 751 0 z "},"ẃ":{"ha":274,"x_min":0,"x_max":0,"o":"m 665 1042 z m 786 0 z "},"ŵ":{"ha":274,"x_min":0,"x_max":0,"o":"m 229 -1042 z "},"ẅ":{"ha":274,"x_min":0,"x_max":0,"o":"m 56 -1014 z "},"ẁ":{"ha":274,"x_min":0,"x_max":0,"o":"m 296 -1042 z "},"x":{"ha":0,"x_min":0,"x_max":0,"o":""},"y":{"ha":-39,"x_min":0,"x_max":0,"o":""},"ý":{"ha":-39,"x_min":0,"x_max":0,"o":""},"ŷ":{"ha":-39,"x_min":0,"x_max":0,"o":""},"ÿ":{"ha":-39,"x_min":0,"x_max":0,"o":""},"ỳ":{"ha":-39,"x_min":0,"x_max":0,"o":""},"z":{"ha":-87,"x_min":0,"x_max":0,"o":""},"ź":{"ha":-87,"x_min":0,"x_max":0,"o":"m 490 1042 z "},"ž":{"ha":-87,"x_min":0,"x_max":0,"o":""},"ż":{"ha":-87,"x_min":0,"x_max":0,"o":""},"ﬁ":{"ha":-18,"x_min":0,"x_max":0,"o":"m -410 -222 z "},"ﬂ":{"ha":-18,"x_min":0,"x_max":0,"o":"m 675 1000 l 675 0 l 647 0 l 647 978 l 647 993 l 571 993 l 571 922 l 578 922 l 578 854 l 453 854 l 453 1111 l 425 1111 l 425 854 l 550 854 b 744 1063 550 999 610 1063 b 988 1035 822 1063 903 1053 z "},"ﬅ":{"ha":142,"x_min":0,"x_max":0,"o":"l 0 842 l -174 842 l -174 869 l 0 869 l 0 1153 "},"ﬆ":{"ha":454,"x_min":0,"x_max":0,"o":"l 0 1154 l 283 1154 l 283 1049 b 367 1015 307 1042 335 1031 l 354 990 b 386 1068 354 1031 396 1025 "},"ª":{"ha":51,"x_min":0,"x_max":0,"o":"m 594 439 l 594 560 l 593 560 b 367 428 550 478 468 428 b 200 594 263 428 200 490 b 522 797 200 721 307 797 l 594 797 l 594 850 b 433 1000 594 963 554 1000 b 228 960 361 1000 293 986 l 228 989 b 433 1028 293 1015 363 1028 b 622 850 568 1028 622 978 l 622 439 z m 594 678 l 594 769 l 522 769 b 336 740 456 769 401 763 b 228 594 269 718 228 667 b 367 456 228 507 279 456 b 594 678 500 456 594 549 z m 731 311 l 133 311 l 133 339 l 731 339 z "},"º":{"ha":51,"x_min":0,"x_max":0,"o":"m 247 950 b 432 1028 290 1001 353 1028 b 682 728 592 1028 682 918 b 432 428 682 538 592 428 b 182 728 272 428 182 538 b 247 950 182 824 204 897 z m 268 526 b 432 456 306 479 361 456 b 654 728 575 456 654 551 b 432 1000 654 904 575 1000 b 210 728 289 1000 210 904 b 268 526 210 640 229 572 z m 731 311 l 133 311 l 133 339 l 731 339 z "},"ⁿ":{"ha":-292,"x_min":0,"x_max":0,"o":"m 133 768 l 135 768 b 281 847 169 814 226 847 b 422 664 381 847 422 797 l 422 406 l 394 406 l 394 664 b 281 819 394 788 360 819 b 133 697 213 819 133 749 l 133 406 l 106 406 l 106 839 l 133 839 z "},"ƻ":{"ha":38,"x_min":0,"x_max":0,"o":"m 543 431 l 133 431 l 133 458 l 565 458 b 690 750 649 565 690 663 b 432 1000 690 910 594 1000 b 136 894 338 1000 215 957 l 119 917 b 432 1028 204 983 331 1028 b 718 750 611 1028 718 924 b 599 458 718 661 678 564 l 731 458 l 731 431 l 576 431 b 175 31 494 329 360 196 l 175 28 l 731 28 l 731 0 l 133 0 l 133 28 b 543 431 324 196 461 331 z "},"ǀ":{"ha":0,"x_min":0,"x_max":0,"o":""},"ǁ":{"ha":-87,"x_min":0,"x_max":0,"o":"m 333 -1431 l 543 -1431 l 543 -1458 l 1974 -1458 l 1974 -1431 z "},"ǂ":{"ha":121,"x_min":0,"x_max":0,"o":"m 453 236 l 133 236 l 133 264 l 453 264 l 453 542 l 133 542 l 133 569 l 453 569 l 453 1125 l 481 1125 l 481 569 l 203 569 l 203 28 l 175 28 z "},"ǃ":{"ha":-449,"x_min":0,"x_max":0,"o":""},"ʰ":{"ha":-285,"x_min":0,"x_max":0,"o":"m 140 760 l 142 760 b 286 847 176 810 232 847 b 429 653 388 847 429 790 l 429 1278 l 457 1278 z "},"ʱ":{"ha":-285,"x_min":0,"x_max":0,"o":"m 429 653 l 429 1161 b 554 1131 517 1161 554 1199 b NaN 1035 554 1106 528 1035 l NaN 881 l NaN 881 b NaN 968 NaN 931 NaN 968 b NaN 774 NaN 968 NaN 911 z "},"ʲ":{"ha":-419,"x_min":0,"x_max":0,"o":"m 260 947 l 232 947 l 232 1031 l 260 1031 z m 232 381 b 57 222 232 253 197 222 l 57 250 b 204 381 183 250 204 269 z "},"ʳ":{"ha":-396,"x_min":0,"x_max":0,"o":"m 133 733 l 135 733 b 322 839 174 804 236 839 l 339 839 l 339 811 l 322 811 b 133 619 211 811 133 732 l 133 406 l 106 406 l 106 839 l 133 839 z "},"ʴ":{"ha":-396,"x_min":0,"x_max":0,"o":"m 283 511 l 282 511 l 282 78 l 254 78 z "},"ʵ":{"ha":-265,"x_min":0,"x_max":0,"o":"m 469 360 l 469 329 b 411 319 453 322 433 319 b 283 485 310 319 283 381 l 283 511 l 282 511 l 282 157 b 382 19 282 53 310 19 b 440 32 403 19 422 24 z "},"ʶ":{"ha":-296,"x_min":0,"x_max":0,"o":"m 339 628 l 339 625 b 440 514 407 610 440 574 b 265 406 440 442 382 406 l 119 406 l 119 839 l 147 839 l 147 635 l 251 635 b 367 725 322 635 322 635 l 422 839 l 453 839 l 392 714 b 339 628 368 667 351 638 z m 251 607 l 147 607 l 147 433 l 265 433 b 394 464 333 433 378 443 b 413 514 411 485 413 493 b 381 581 413 540 401 563 b 251 607 358 599 315 607 z "},"ʷ":{"ha":-118,"x_min":0,"x_max":0,"o":"m 349 803 l 346 803 l 235 406 l 192 406 l 64 839 l 93 839 l 213 429 l 214 429 l 329 839 l 367 839 l 481 429 l 482 429 l 601 839 l 631 839 l 504 406 l 460 406 z "},"ʸ":{"ha":-314,"x_min":0,"x_max":0,"o":"m 258 450 l 418 839 l 449 839 l 271 407 b 57 214 214 263 151 214 l 57 242 b 243 414 136 242 188 279 l 65 839 l 96 839 l 257 450 z "},"ˡ":{"ha":-435,"x_min":0,"x_max":0,"o":"m 203 406 l 175 406 l 175 1031 l 203 1031 z "},"ˢ":{"ha":-351,"x_min":0,"x_max":0,"o":"m 225 650 b 376 514 326 629 376 585 b 226 397 376 442 319 397 b 85 429 178 397 131 408 l 85 460 b 226 425 131 436 178 425 b 349 514 303 425 349 458 b 219 622 349 564 324 600 b 85 739 124 640 85 676 b 226 847 85 804 142 847 b 364 822 271 847 317 839 l 364 793 b 226 819 317 811 271 819 b 113 739 164 819 113 794 b 225 650 113 696 131 668 z "},"ˣ":{"ha":-329,"x_min":0,"x_max":0,"o":"m 243 601 l 240 601 l 104 406 l 71 406 l 225 625 l 75 839 l 108 839 l 240 650 l 243 650 l 375 839 l 408 839 l 258 625 l 413 406 l 379 406 z "},"ⁱ":{"ha":-435,"x_min":0,"x_max":0,"o":"m 203 947 l 175 947 l 175 1031 l 203 1031 z m 203 406 l 175 406 l 175 839 l 203 839 z "},"ₐ":{"ha":-317,"x_min":0,"x_max":0,"o":"m 365 83 l 364 83 b 208 -8 332 22 279 -8 b 71 117 125 -8 71 40 b 325 271 71 215 164 271 l 364 271 l 364 275 b 242 414 364 388 332 414 b 101 376 190 414 143 401 l 88 400 b 242 442 136 428 188 442 b 392 275 351 442 392 399 l 392 117 b 404 0 392 78 396 39 l 376 0 b 365 83 369 31 367 58 z m 99 117 b 208 19 99 56 140 19 b 364 203 301 19 364 88 l 364 243 l 325 243 b 99 117 181 243 99 199 z "},"ₑ":{"ha":-325,"x_min":0,"x_max":0,"o":"m 424 207 l 85 207 b 257 19 86 89 151 19 b 385 54 303 19 344 31 l 399 31 b 257 -8 356 4 308 -8 b 57 217 133 -8 57 78 b 249 442 57 357 128 442 b 424 221 360 442 424 361 z m 85 235 l 396 235 b 249 414 392 354 342 414 b 85 235 150 414 90 347 z "},"ₒ":{"ha":-307,"x_min":0,"x_max":0,"o":"m 396 53 b 253 -8 361 13 313 -8 b 57 217 132 -8 57 78 b 253 442 57 356 132 442 b 449 217 374 442 449 356 b 396 53 449 147 431 93 z m 129 72 b 253 19 158 38 200 19 b 421 217 358 19 421 93 b 253 414 421 340 358 414 b 85 217 147 414 85 340 b 129 72 85 154 100 107 z "},"ₓ":{"ha":-321,"x_min":0,"x_max":0,"o":"m 247 194 l 244 194 l 106 0 l 71 0 l 229 218 l 72 433 l 107 433 l 244 242 l 247 242 l 385 433 l 419 433 l 263 218 l 421 0 l 386 0 z "},"ₔ":{"ha":-325,"x_min":0,"x_max":0,"o":"m 64 226 l 403 226 b 231 414 401 344 336 414 b 103 379 185 414 143 403 l 89 403 b 231 442 132 429 179 442 b 431 217 354 442 431 356 b 239 -8 431 76 360 -8 b 64 213 128 -8 64 72 z m 403 199 l 92 199 b 239 19 96 79 146 19 b 403 199 338 19 397 86 z "},"А":{"ha":0,"x_min":0,"x_max":0,"o":"m 813 0 z "},"Б":{"ha":-4,"x_min":0,"x_max":0,"o":"m 154 986 l 154 597 l 321 597 l 126 597 l 126 1611 l 668 1611 l 668 1583 z m 321 1167 "},"В":{"ha":-11,"x_min":0,"x_max":0,"o":""},"Г":{"ha":0,"x_min":0,"x_max":0,"o":""},"Ѓ":{"ha":-60,"x_min":0,"x_max":0,"o":"m 525 1319 z m 703 986 l 189 986 l 189 0 l 161 0 l 161 1014 l 703 1014 z "},"Ґ":{"ha":-60,"x_min":0,"x_max":0,"o":"m 668 1236 l 668 986 l 154 986 l 154 0 l 126 0 l 126 1014 l 640 1014 l 640 1236 z "},"Д":{"ha":176,"x_min":0,"x_max":0,"o":"m 265 1014 l 807 1014 l 807 222 l 585 222 l 585 194 l 835 194 l 835 278 b 932 515 890 356 922 435 b 946 1236 942 594 946 835 z m 869 278 l 1460 278 l 1460 1236 l 974 1236 b 960 518 974 844 969 606 b 869 278 950 431 921 351 z "},"Е":{"ha":-18,"x_min":0,"x_max":0,"o":""},"Ѐ":{"ha":83,"x_min":0,"x_max":0,"o":"l 485 0 l 485 336 l -293 336 "},"Ё":{"ha":0,"x_min":0,"x_max":0,"o":""},"Ж":{"ha":385,"x_min":0,"x_max":0,"o":"m 613 0 "},"З":{"ha":-60,"x_min":0,"x_max":0,"o":""},"И":{"ha":0,"x_min":0,"x_max":0,"o":""},"Й":{"ha":121,"x_min":0,"x_max":0,"o":""},"Ѝ":{"ha":0,"x_min":0,"x_max":0,"o":""},"Ҋ":{"ha":176,"x_min":0,"x_max":0,"o":"m -97 -264 l -97 -12 l -1082 -12 l -1082 -10 l -449 975 l -404 975 l -404 -11 l -279 -11 l 706 -11 l 706 -14 "},"К":{"ha":-3,"x_min":0,"x_max":0,"o":"m 697 0 l 157 510 z "},"Ќ":{"ha":-18,"x_min":0,"x_max":0,"o":"m 560 1319 z m 732 0 l 192 510 z "},"Л":{"ha":156,"x_min":0,"x_max":0,"o":"m 286 486 l 286 472 l 1314 472 l 1314 1000 l 1869 1000 l 1869 -14 l 1842 -14 l 1842 972 l 1342 972 l 1342 472 b 1225 15 1342 218 1300 72 z "},"М":{"ha":0,"x_min":0,"x_max":0,"o":"m 960 0 l 832 985 z "},"Н":{"ha":0,"x_min":0,"x_max":0,"o":""},"О":{"ha":149,"x_min":0,"x_max":0,"o":""},"П":{"ha":0,"x_min":0,"x_max":0,"o":"m 126 0 l 126 1014 l 765 1014 l 765 0 l 738 0 l 738 986 l 154 986 l 154 0 z "},"Р":{"ha":0,"x_min":0,"x_max":0,"o":""},"С":{"ha":0,"x_min":0,"x_max":0,"o":"m 703 65 l 703 35 "},"Т":{"ha":65,"x_min":0,"x_max":0,"o":""},"У":{"ha":79,"x_min":0,"x_max":0,"o":"m 110 1014 l 471 322 l 474 322 l 811 1014 l 842 1014 l 488 292 b 64 -14 375 63 265 -14 l 64 14 b 457 292 251 14 353 85 l 78 1014 z "},"Ў":{"ha":79,"x_min":0,"x_max":0,"o":"m -114 -264 l 110 97 l -582 NaN l -579 NaN l -242 NaN l -211 NaN l -565 NaN b -989 NaN -678 NaN -787 NaN l -989 NaN b -596 NaN -801 NaN -700 NaN l -975 NaN z "},"Ф":{"ha":0,"x_min":0,"x_max":0,"o":""},"Х":{"ha":0,"x_min":0,"x_max":0,"o":""},"Ч":{"ha":65,"x_min":0,"x_max":0,"o":""},"Ц":{"ha":135,"x_min":0,"x_max":0,"o":"m 765 1014 l 765 292 l 1779 292 l 1779 319 l 793 319 l 793 903 l 1779 903 z "},"Ш":{"ha":385,"x_min":0,"x_max":0,"o":"m 1071 1014 l 1071 0 l 126 0 l 126 1014 l 154 1014 l 154 28 l 585 28 l 585 1014 l 613 1014 l 613 28 l 1043 28 l 1043 1014 z "},"Щ":{"ha":440,"x_min":0,"x_max":0,"o":"m 154 1014 l 154 28 l 585 28 l 585 1014 l 613 1014 l 613 28 l 1043 28 l 1043 1014 l 1071 1014 l 1071 -14 l 2085 -14 z "},"Џ":{"ha":79,"x_min":0,"x_max":0,"o":"m 738 28 l 738 1014 l 765 1014 l 765 0 l 460 0 l 460 -222 l 432 -222 l 432 0 l 126 0 l 126 1014 l 154 1014 l 154 28 z "},"Ь":{"ha":0,"x_min":0,"x_max":0,"o":"l -4 0 l -4 154 l 1010 154 l 1010 -40 l 2024 -40 m 2218 -485 "},"Ъ":{"ha":253,"x_min":0,"x_max":0,"o":"m 578 0 l 383 0 l 383 986 l 64 986 l 64 1014 l 411 1014 l 411 597 l 578 597 z m 578 1167 "},"Ы":{"ha":288,"x_min":0,"x_max":0,"o":"l 154 0 l 154 1014 l -40 1014 l -40 2028 m 807 1014 l 779 1014 l 779 2028 l 807 2028 z m 154 1583 "},"Љ":{"ha":607,"x_min":0,"x_max":0,"o":"m 293 486 l 293 1014 l 807 1014 l 807 597 l 932 597 l 779 597 l 779 1583 l 321 1583 l 321 1083 b 203 626 321 829 278 683 z m 717 710 l 717 681 l 679 681 l 679 632 l 138 632 l 138 757 b 526 1042 406 757 526 849 b 138 1299 526 1213 397 1299 z "},"Њ":{"ha":0,"x_min":0,"x_max":0,"o":"m 724 0 l 724 569 l 154 569 l 154 0 l 126 0 l 126 1014 l 154 1014 l 154 597 l -262 597 l -262 736 z m -401 1306 l -401 764 l -262 764 b 126 1049 6 764 126 856 b -262 1306 126 1219 -3 1306 z "},"Ѕ":{"ha":-74,"x_min":0,"x_max":0,"o":"m 363 1028 z "},"Є":{"ha":17,"x_min":0,"x_max":0,"o":"m 703 65 l 703 35 b 508 -62 671 35 593 -46 b 892 458 508 265 658 458 b 1140 410 979 458 1063 442 l 1140 379 b 892 431 1061 414 979 431 b 536 -28 679 431 546 260 l 1106 -28 l 1106 -56 l 536 -56 l 536 -62 b 904 -556 536 -367 678 -556 b 1147 -504 988 -556 1068 -539 z "},"Э":{"ha":17,"x_min":0,"x_max":0,"o":"m 738 514 l 168 514 l 168 542 l 738 542 b 382 1000 728 829 594 1000 b 213 NaN 294 1000 213 NaN b 461 NaN 290 NaN 374 NaN b 844 NaN 694 NaN 844 NaN b 449 NaN 844 NaN 686 NaN b 206 NaN 364 NaN 283 NaN l 206 NaN b 250 NaN 171 NaN 250 NaN b 696 NaN 250 NaN 392 NaN z "},"І":{"ha":0,"x_min":0,"x_max":0,"o":""},"Ї":{"ha":-421,"x_min":0,"x_max":0,"o":""},"Ј":{"ha":-108,"x_min":0,"x_max":0,"o":""},"Ћ":{"ha":322,"x_min":0,"x_max":0,"o":"m 453 535 b 786 194 682 535 786 432 b 481 507 786 413 696 507 b 244 438 390 507 313 483 z "},"Ю":{"ha":468,"x_min":0,"x_max":0,"o":"m 1104 125 b 821 -14 1033 32 939 -14 b 432 507 583 -14 432 181 l 432 542 l 154 542 l 154 821 b 542 1279 172 1110 319 1279 b 931 758 779 1279 931 1085 b 825 376 931 596 896 468 z m 278 399 b 542 265 343 310 431 265 b 903 758 764 265 903 454 b 542 1251 903 1063 764 1251 b 181 758 319 1251 181 1063 b 278 399 181 607 213 486 z "},"Я":{"ha":10,"x_min":0,"x_max":0,"o":"m 351 503 l 351 506 b 99 785 178 535 99 624 b 190 954 99 864 139 922 b 393 1010 242 986 326 1004 b 501 1014 425 1013 461 1014 l 696 1014 l 696 0 l 668 0 l 668 493 l 501 493 b 358 478 424 493 396 489 b 275 382 321 467 299 426 b 226 281 263 360 247 326 l 101 0 l 71 0 l 201 292 b 279 443 233 363 258 414 b 351 503 299 472 322 492 z m 501 521 l 668 521 l 668 986 l 501 986 b 126 785 236 986 126 918 b 501 521 126 601 236 521 z "},"Ђ":{"ha":301,"x_min":0,"x_max":0,"o":"m 1036 319 b 633 -7 1036 121 878 -7 l 633 21 b 1008 319 865 21 1008 138 b 689 604 1008 501 890 604 b 453 535 599 604 521 581 b 800 222 669 535 800 417 z "},"Ѡ":{"ha":385,"x_min":0,"x_max":0,"o":""},"Ѣ":{"ha":253,"x_min":0,"x_max":0,"o":"m 411 833 l 411 597 l 578 597 l 383 597 l 383 1431 l 64 1431 l 64 1458 l 383 1458 l 383 1611 l 411 1611 l 411 1458 l 731 1458 l 731 1431 z m 578 1167 "},"Ѯ":{"ha":-60,"x_min":0,"x_max":0,"o":"m -286 -164 l 63 933 l 50 958 b 328 1028 149 1010 221 1028 b 619 806 507 1028 619 943 b 378 558 619 682 532 593 l 378 556 b 640 292 553 525 640 438 b 293 -14 640 92 521 -14 b 58 -54 171 -14 92 -28 b 15 -139 24 -81 15 -101 b 50 -239 15 -178 22 -206 b 150 -154 103 -239 125 -200 b 388 -118 196 -131 275 -118 b 707 160 600 -118 707 -25 b 318 410 707 326 578 410 l 263 410 l 263 438 l 318 438 b 686 674 547 438 686 525 b 422 868 686 796 588 868 b 157 801 318 868 251 851 z "},"Ѱ":{"ha":260,"x_min":0,"x_max":0,"o":"m 550 1014 l 550 264 b 939 625 796 268 939 399 l 939 1014 l 967 1014 l 967 625 b 550 236 967 382 815 240 l 550 0 l 522 0 l 522 236 b 106 625 257 240 106 382 l 106 1014 l 133 1014 l 133 625 b 522 264 133 399 276 268 l 522 1014 z "},"Ѳ":{"ha":0,"x_min":0,"x_max":0,"o":"m -82 406 b 50 475 -58 451 -14 475 b 314 397 107 475 194 449 b 564 322 426 347 510 322 b 692 474 653 322 692 369 b 307 878 668 735 533 878 b -243 NaN 61 878 -243 872 z m -239 NaN b 146 NaN -215 NaN -81 NaN b 696 NaN 392 NaN 696 NaN b 564 NaN 672 NaN 628 NaN b 303 NaN 508 NaN 421 NaN b 50 NaN 188 NaN 104 NaN b -78 NaN -39 NaN -78 NaN z "},"Ѵ":{"ha":328,"x_min":0,"x_max":0,"o":"m 86 1014 l 451 1311 l 1282 NaN b 1504 NaN 1328 NaN 1388 NaN b 1621 NaN 1540 NaN 1579 NaN l 1621 NaN b 1504 NaN 1579 NaN 1540 NaN b 1308 NaN 1400 NaN 1351 NaN l 1004 NaN l 963 NaN l 588 NaN z "},"Ѷ":{"ha":357,"x_min":0,"x_max":0,"o":"m 324 -475 l 757 -793 l -87 NaN l -129 NaN l -518 NaN l -487 NaN l -110 NaN l 721 NaN b 943 NaN 769 NaN 826 NaN b 1068 NaN 983 NaN 1025 NaN l 1060 NaN b 943 NaN 1018 NaN 979 NaN b 747 NaN 839 NaN 792 NaN z "},"Ѹ":{"ha":1163,"x_min":0,"x_max":0,"o":""},"Ғ":{"ha":0,"x_min":0,"x_max":0,"o":"m 293 389 l -96 389 l -96 361 z "},"Ҕ":{"ha":3,"x_min":0,"x_max":0,"o":"m 390 604 b 154 535 300 604 222 581 b 654 1014 154 0 126 1014 b 126 NaN 626 1014 126 596 z "},"Җ":{"ha":447,"x_min":0,"x_max":0,"o":"m 613 0 l 585 0 l 585 542 l 456 542 l 97 0 l 64 0 l 432 556 l 78 1014 l 113 1014 l 457 569 l 585 569 l 585 1014 l 613 1014 l 613 569 l 740 569 l 1085 1014 l 1119 1014 l 765 556 l 1115 28 l 1196 28 l 1196 -222 l 1168 -222 l 1168 0 l 1133 0 l 1100 0 l 742 542 l 613 542 z "},"Ҙ":{"ha":-31,"x_min":0,"x_max":0,"o":"m 442 558 l 442 556 b 718 292 626 525 718 438 b 508 -29 639 128 540 -29 b 415 -31 482 -29 451 -31 b 115 63 308 -31 208 0 l 131 85 l 72 172 l 167 143 l 269 128 l 294 NaN "},"Қ":{"ha":86,"x_min":0,"x_max":0,"o":"m 724 0 l 157 551 l 624 NaN l 667 NaN l 90 NaN l 650 NaN l 743 NaN l 743 NaN l 715 NaN l 715 NaN l 681 NaN z "},"Ҝ":{"ha":100,"x_min":0,"x_max":0,"o":"m 126 0 l 126 1014 l 154 1014 l 154 542 l 342 542 l 342 833 l 369 833 l 369 542 l 457 542 l 801 1014 l 835 1014 l 481 528 l 849 0 l 815 0 l 457 514 l 369 514 l 369 222 l 342 222 l 342 514 l 154 514 l 154 0 z "},"Ҟ":{"ha":114,"x_min":0,"x_max":0,"o":"l 231 0 l 231 847 l 369 847 l 369 875 l 231 875 l 231 1090 l 203 1090 l 203 875 l -97 875 l -97 878 "},"Ҡ":{"ha":204,"x_min":0,"x_max":0,"o":"m 64 986 l 64 1014 l 349 1014 l 349 547 l 351 547 l 1338 547 z "},"Ң":{"ha":190,"x_min":0,"x_max":0,"o":"m 793 569 l 793 1014 l 821 1014 l 821 931 l 793 931 l 793 1472 l 154 1472 z "},"Ҧ":{"ha":642,"x_min":0,"x_max":0,"o":"m 793 535 b 154 986 793 0 765 986 b -860 2667 -832 986 -860 2000 b -974 2143 -860 2221 -950 2143 b -1087 NaN -1019 2143 -1087 NaN z "},"Ҫ":{"ha":142,"x_min":0,"x_max":0,"o":""},"Ҭ":{"ha":100,"x_min":0,"x_max":0,"o":"m 467 28 l 578 28 l 578 -222 l 550 -222 l 550 0 l 467 0 l 439 0 l 439 986 l 92 986 l 92 1014 l 814 1014 l 814 986 l 467 986 z "},"Ү":{"ha":51,"x_min":0,"x_max":0,"o":""},"Ұ":{"ha":0,"x_min":0,"x_max":0,"o":"l 432 0 l 432 38 l 50 597 l 83 597 l 444 67 l 447 67 l 808 597 l 842 597 l 460 38 l 460 0 "},"Ҳ":{"ha":114,"x_min":0,"x_max":0,"o":"m 758 1 l 433 488 l 760 3 l 840 3 l 840 -247 l 813 -247 l 813 -25 l 778 -25 l 743 -25 z "},"Ҷ":{"ha":121,"x_min":0,"x_max":0,"o":"l 0 -83 l -28 -83 l -28 307 "},"Ҹ":{"ha":65,"x_min":0,"x_max":0,"o":"m 425 42 l 425 328 b 535 15 425 106 440 15 b 553 6 764 15 553 93 b NaN NaN 553 213 540 NaN l NaN NaN l NaN NaN l NaN NaN l NaN NaN b NaN NaN NaN NaN NaN NaN l NaN NaN l NaN NaN l NaN NaN l NaN NaN l NaN NaN b NaN NaN NaN NaN NaN NaN l NaN NaN l NaN NaN z "},"Һ":{"ha":0,"x_min":0,"x_max":0,"o":"m 738 0 l 738 347 b 390 660 738 579 647 660 b 154 590 300 660 222 636 l 154 0 l 126 0 l 126 1014 l 154 1014 l 154 624 b 390 688 225 667 303 688 b 765 347 661 688 765 596 l 765 0 z "},"Ҽ":{"ha":0,"x_min":0,"x_max":0,"o":"b 926 -482 399 0 926 -296 b NaN -289 926 -285 1243 -289 l NaN -289 b NaN -87 NaN -289 NaN -233 "},"Ҿ":{"ha":0,"x_min":0,"x_max":0,"o":"b 121 806 399 0 121 264 b 96 750 121 774 92 775 b 151 893 96 800 114 847 b -217 1396 -76 939 -215 1124 l -237 1396 b -439 1597 -386 1396 -439 1451 "},"Ӏ":{"ha":0,"x_min":0,"x_max":0,"o":""},"Ӂ":{"ha":385,"x_min":0,"x_max":0,"o":"m 243 -1278 "},"Ӄ":{"ha":44,"x_min":0,"x_max":0,"o":"m 369 576 b 154 514 299 576 228 556 l 154 0 l 706 467 l 749 467 l 236 35 l 238 32 b 367 57 282 49 325 57 b 790 -283 650 57 790 -62 b 346 -665 790 -511 613 -665 l 346 -637 b 763 -283 594 -637 763 -496 b 367 29 763 -75 631 29 z "},"Ӆ":{"ha":176,"x_min":0,"x_max":0,"o":"m 835 1014 l 835 28 l 960 28 l 1946 28 l 1946 -472 l 1446 -472 z "},"Ӈ":{"ha":135,"x_min":0,"x_max":0,"o":"m 793 -111 l 793 542 l -332 542 z "},"Ӊ":{"ha":163,"x_min":0,"x_max":0,"o":"m 793 569 l 793 1014 l 821 1014 l 821 28 l 946 28 l 1488 28 l 1488 -611 z "},"Ӌ":{"ha":65,"x_min":0,"x_max":0,"o":"l 0 -1014 l -14 -1014 l -111 -1014 l -111 -1236 l -139 -1236 l -139 -986 l -28 -986 l -28 -624 "},"Ӎ":{"ha":357,"x_min":0,"x_max":0,"o":"l 1015 128 l 29 NaN l 131 NaN l 68 NaN "},"Ӑ":{"ha":121,"x_min":0,"x_max":0,"o":"m 610 -1278 z "},"Ӓ":{"ha":121,"x_min":0,"x_max":0,"o":"m 228 -1292 z "},"Ӗ":{"ha":97,"x_min":0,"x_max":0,"o":"l 182 0 l 182 472 l -554 472 "},"Ә":{"ha":211,"x_min":0,"x_max":0,"o":""},"Ӛ":{"ha":211,"x_min":0,"x_max":0,"o":""},"Ӝ":{"ha":385,"x_min":0,"x_max":0,"o":"m -139 -1292 l -167 -1292 l -167 -750 l -296 -750 l -654 -1292 l -687 -1292 l -319 -736 l -674 -278 l -639 -278 l -294 -722 l -167 -722 l -167 -278 l -139 -278 l -139 -722 l -11 -722 l 333 -278 l 368 -278 l 14 -736 l 382 -1292 l 349 -1292 l -10 -750 l -139 -750 z "},"Ӟ":{"ha":-10,"x_min":0,"x_max":0,"o":"l 274 1125 l 178 392 l 193 414 l 135 501 l 229 472 l 332 457 l 357 NaN "},"Ӡ":{"ha":0,"x_min":0,"x_max":0,"o":""},"Ӣ":{"ha":121,"x_min":0,"x_max":0,"o":""},"Ӥ":{"ha":121,"x_min":0,"x_max":0,"o":""},"Ӧ":{"ha":288,"x_min":0,"x_max":0,"o":""},"Ө":{"ha":0,"x_min":0,"x_max":0,"o":"m -82 399 l 696 399 b 307 878 692 708 553 878 b -82 399 61 878 -78 708 z m 696 371 l -82 371 b 307 -108 -78 61 61 -108 b 696 371 553 -108 692 61 z "},"Ӫ":{"ha":288,"x_min":0,"x_max":0,"o":""},"Ӭ":{"ha":149,"x_min":0,"x_max":0,"o":"m 257 -778 l -437 -778 l -437 -750 l 256 -750 b -201 -292 243 -467 71 -292 b -492 -376 -314 -292 -410 -319 l -507 -354 b -201 -264 -419 -294 -318 -264 b 285 -785 99 -264 285 -464 b -201 -1306 285 -1101 94 -1306 b -507 -1215 -318 -1306 -419 -1275 l -492 -1193 b -201 -1278 -408 -1250 -311 -1278 b 257 -785 76 -1278 257 -1085 z "},"Ӯ":{"ha":107,"x_min":0,"x_max":0,"o":""},"Ӱ":{"ha":107,"x_min":0,"x_max":0,"o":""},"Ӳ":{"ha":107,"x_min":0,"x_max":0,"o":"m 528 1319 z m 778 1319 "},"Ӵ":{"ha":65,"x_min":0,"x_max":0,"o":""},"Ӷ":{"ha":-60,"x_min":0,"x_max":0,"o":"m 238 0 l 126 0 l 126 1014 l 668 1014 l 668 986 l 154 986 l 154 28 l 265 28 l 265 -222 l 238 -222 z "},"Ӹ":{"ha":288,"x_min":0,"x_max":0,"o":"m 425 1125 l 397 1125 l 397 1292 l -151 1292 l -151 1014 l -346 1014 l -346 2028 z m 501 1014 l 474 1014 l 474 2028 l 501 2028 z m -151 1583 "},"Ӻ":{"ha":107,"x_min":0,"x_max":0,"o":"m 321 28 l 432 28 l 432 -111 l 432 0 l 349 0 l 321 0 l 321 389 z "},"Ӽ":{"ha":114,"x_min":0,"x_max":0,"o":"m 775 28 l 856 28 l 856 -111 l 856 0 l 821 0 l 788 0 l 461 488 z "},"Ӿ":{"ha":79,"x_min":0,"x_max":0,"o":"m 421 500 l 92 500 l 92 528 l 418 528 l 92 1014 l 125 1014 l 444 538 l 447 538 l 767 1014 l 800 1014 l 474 528 l 800 528 l 800 500 l 471 500 l 807 0 l 774 0 l 447 488 l 444 488 l 118 0 l 85 0 z "},"Ԁ":{"ha":0,"x_min":0,"x_max":0,"o":"m 654 597 l 654 1014 l 682 1014 l 682 0 l 488 0 b 71 313 210 0 71 104 b 488 597 71 503 210 597 z m 654 28 b 1271 57 1196 28 1003 149 z "},"Ԃ":{"ha":503,"x_min":0,"x_max":0,"o":"m 488 597 l 654 597 l 654 1014 l 682 1014 l 682 111 b 890 14 682 67 772 14 b 1196 375 1101 14 1196 125 b 1107 738 1196 485 1167 606 l 1132 749 b 1224 375 1193 613 1224 488 b 890 -14 1224 107 1114 -14 b 660 90 775 -14 681 33 l 657 90 b 411 -14 588 21 506 -14 b 71 313 196 -14 71 103 b 488 597 71 503 210 597 z m 99 313 b 381 304 99 207 300 304 b 493 NaN 418 304 493 369 b NaN NaN 936 NaN NaN NaN z "},"Ԅ":{"ha":503,"x_min":0,"x_max":0,"o":"m 411 561 l 411 558 b 682 292 604 535 682 454 b 932 14 682 93 754 14 b 1144 75 1042 14 1013 135 l 1169 86 b 1261 -287 1231 -50 1261 -175 b 983 18 1071 -287 983 -197 b 574 268 983 201 886 268 z "},"Ԇ":{"ha":51,"x_min":0,"x_max":0,"o":"m 765 0 l 654 0 l 654 292 b 244 542 654 475 557 542 l 244 539 b 515 272 438 515 515 435 l 515 8 l 626 8 l 626 -242 l 599 -242 z "},"Ԉ":{"ha":656,"x_min":0,"x_max":0,"o":"m 807 264 l 807 986 l 307 986 l 307 486 z "},"Ԋ":{"ha":642,"x_min":0,"x_max":0,"o":"m 793 264 z "},"Ԍ":{"ha":218,"x_min":0,"x_max":0,"o":"m 92 507 b 490 886 92 747 213 886 l 490 997 l 46 997 l 46 1025 l 518 1025 l 518 886 b 129 442 518 590 381 442 b -357 963 -161 442 -357 647 b 157 1483 -357 1279 -156 1483 b 483 1400 283 1483 392 1456 l 469 1376 b 157 1456 382 1429 278 1456 b -329 963 -143 1456 -329 1267 z "},"Ԏ":{"ha":288,"x_min":0,"x_max":0,"o":"m 467 986 l 467 264 l 1189 264 l 1189 -83 l 1217 -83 l 1217 639 l 1189 639 z "},"Ԑ":{"ha":0,"x_min":0,"x_max":0,"o":"m 340 556 l 340 558 b 85 806 178 593 85 682 b 390 1028 85 943 201 1028 b 689 943 497 1028 596 1000 l 675 918 b 390 1000 585 972 490 1000 b 113 806 219 1000 113 926 b 501 569 113 660 261 569 l 557 569 l 557 542 l 501 542 b 92 292 228 542 92 458 b 425 14 92 107 203 14 b 708 101 526 14 621 43 l 725 79 b 425 -14 632 17 532 -14 b 64 292 185 -14 64 88 b 340 556 64 438 156 525 z "},"Ԓ":{"ha":149,"x_min":0,"x_max":0,"o":"m 807 -111 l 807 986 l 307 986 l 307 486 l 307 1042 l -818 1042 z "},"Ԛ":{"ha":267,"x_min":0,"x_max":0,"o":""},"Ԝ":{"ha":0,"x_min":0,"x_max":0,"o":"m 917 0 "},"Ҁ":{"ha":-60,"x_min":0,"x_max":0,"o":"m 501 14 b 515 15 504 14 508 14 l 529 15 l 529 -306 l 501 -306 l 501 -14 b 64 507 228 -14 64 174 b 447 1028 64 835 214 1028 b 696 979 535 1028 618 1011 l 696 949 b 447 1000 617 983 535 1000 b 92 507 225 1000 92 814 b 501 14 92 194 242 14 z "},"Ҍ":{"ha":169,"x_min":0,"x_max":0,"o":"m 328 833 l 328 597 l 494 597 l 300 597 l 300 1431 l 64 1431 l 64 1458 l 300 1458 l 300 1611 l 328 1611 l 328 1458 l 647 1458 l 647 1431 z m 494 1167 "},"Ҏ":{"ha":0,"x_min":0,"x_max":0,"o":"m 508 460 l 640 194 l 610 194 l 479 454 b 349 444 443 447 400 444 b 1571 211 1363 444 1571 288 b NaN 85 1571 117 1418 85 z m NaN 611 l NaN 611 l NaN 97 l NaN 97 b NaN 106 NaN 97 NaN 100 l NaN 264 l NaN 264 l NaN 110 b NaN 368 NaN 139 NaN 222 b NaN 579 NaN 474 NaN 536 z "},"а":{"ha":0,"x_min":0,"x_max":0,"o":"m 578 0 z "},"б":{"ha":-32,"x_min":0,"x_max":0,"o":"m 133 681 l 133 539 l 136 539 b 110 94 249 539 110 317 b -203 -197 110 -24 -29 -197 b -183 NaN -321 -197 -183 26 l -183 NaN b 178 NaN -183 NaN -74 NaN b 358 NaN 242 NaN 301 NaN l 358 NaN b 178 NaN 301 NaN 242 NaN b -156 NaN -60 NaN -156 NaN z m 372 NaN b 108 NaN 372 NaN 271 NaN b -156 NaN -60 NaN -156 NaN l -156 NaN b 108 NaN -156 NaN -54 NaN b 372 NaN 268 NaN 372 NaN z "},"в":{"ha":0,"x_min":0,"x_max":0,"o":""},"г":{"ha":0,"x_min":0,"x_max":0,"o":"m 140 694 l 140 0 l 113 0 l 113 722 l 613 722 l 613 694 z "},"ѓ":{"ha":-136,"x_min":0,"x_max":0,"o":"m 442 1042 z m 175 694 l 175 0 l 147 0 l 147 722 l 647 722 l 647 694 z "},"ґ":{"ha":-122,"x_min":0,"x_max":0,"o":"m 613 944 l 613 694 l 140 694 l 140 0 l 113 0 l 113 722 l 585 722 l 585 944 z "},"д":{"ha":38,"x_min":0,"x_max":0,"o":"m 238 722 l 689 722 l 689 28 l 786 28 l 786 -639 l 619 -639 l 619 -667 l 814 -667 l 814 -590 b 899 -415 863 -531 890 -472 b 911 76 907 -360 911 -196 z m 850 -590 l 1335 -590 l 1335 76 l 939 76 b 928 -414 939 -189 935 -351 b 850 -590 919 -476 893 -535 z "},"е":{"ha":-94,"x_min":0,"x_max":0,"o":""},"ѐ":{"ha":83,"x_min":0,"x_max":0,"o":""},"ё":{"ha":111,"x_min":0,"x_max":0,"o":""},"ж":{"ha":190,"x_min":0,"x_max":0,"o":"m 515 0 "},"з":{"ha":0,"x_min":0,"x_max":0,"o":""},"и":{"ha":0,"x_min":0,"x_max":0,"o":""},"й":{"ha":-15,"x_min":0,"x_max":0,"o":""},"ѝ":{"ha":-15,"x_min":0,"x_max":0,"o":""},"ҋ":{"ha":49,"x_min":0,"x_max":0,"o":"m -40 -278 l -40 -97 l 960 -97 l 960 -787 l 963 -787 l 1488 -97 l 1526 -97 l 1526 -792 l 1651 -792 l 2342 -792 l 2342 -793 l 1817 -1483 l 1776 -1483 l 1776 -761 z "},"к":{"ha":0,"x_min":0,"x_max":0,"o":"m 140 722 l -187 722 l -187 1444 z "},"ќ":{"ha":-101,"x_min":0,"x_max":0,"o":"m -336 -319 l -224 -319 l -224 208 l -551 208 l -551 931 z "},"л":{"ha":24,"x_min":0,"x_max":0,"o":"m 246 349 l 246 722 l 724 722 l 724 0 l 696 0 l 696 694 l 274 694 l 274 349 b 43 -14 274 69 214 -14 l 43 14 b 224 135 144 14 193 36 b 246 349 239 183 246 256 z "},"м":{"ha":0,"x_min":0,"x_max":0,"o":"m 454 28 l 457 28 l 685 722 l 733 722 l 840 0 l 813 0 l 708 699 l 706 699 l 476 0 l 435 0 "},"н":{"ha":0,"x_min":0,"x_max":0,"o":""},"о":{"ha":-60,"x_min":0,"x_max":0,"o":""},"п":{"ha":-64,"x_min":0,"x_max":0,"o":"m 113 0 l 113 722 l 636 722 l 636 0 l 608 0 l 608 694 l 140 694 l 140 0 z "},"р":{"ha":-46,"x_min":0,"x_max":0,"o":""},"с":{"ha":-129,"x_min":0,"x_max":0,"o":"m 376 708 z "},"т":{"ha":0,"x_min":0,"x_max":0,"o":"m 654 722 l 654 694 l 376 694 l 376 0 l 349 0 l 349 694 l 71 694 l 71 722 z "},"у":{"ha":-39,"x_min":0,"x_max":0,"o":""},"ў":{"ha":-39,"x_min":0,"x_max":0,"o":""},"ф":{"ha":163,"x_min":0,"x_max":0,"o":"m 501 67 l 501 -306 l 474 -306 l 474 67 l 471 67 b 307 -14 424 13 369 -14 b 71 361 164 -14 71 115 b 307 736 71 607 164 736 b 471 656 369 736 424 710 l 474 656 l 474 1042 l 501 1042 l 501 656 l 504 656 b 668 736 551 710 606 736 b 904 361 811 736 904 607 b 668 -14 904 115 811 -14 b 504 67 606 -14 551 13 z m 154 618 b 99 361 117 557 99 471 b 307 14 99 140 175 14 b 474 111 369 14 425 46 l 474 611 b 307 708 425 676 369 708 b 154 618 242 708 190 678 z m 822 106 b 876 361 858 165 876 251 b 668 708 876 582 800 708 b 501 611 606 708 550 676 l 501 111 b 668 14 550 46 606 14 b 822 106 733 14 785 44 z "},"х":{"ha":0,"x_min":0,"x_max":0,"o":""},"ч":{"ha":-46,"x_min":0,"x_max":0,"o":"l 0 -722 l -28 -722 l -28 -461 "},"ц":{"ha":-8,"x_min":0,"x_max":0,"o":"m 636 722 l 636 28 l 29 28 l 29 750 l 57 750 l 57 56 l 525 56 l 525 750 z "},"ш":{"ha":133,"x_min":0,"x_max":0,"o":"m 833 722 l 833 0 l 113 0 l 113 722 l 140 722 l 140 28 l 460 28 l 460 722 l 488 722 l 488 28 l 806 28 l 806 722 z "},"щ":{"ha":189,"x_min":0,"x_max":0,"o":"m 140 722 l 140 28 l 460 28 l 460 722 l 488 722 l 488 28 l 806 28 l 806 722 l 833 722 l 833 28 l 29 28 l 29 750 z "},"џ":{"ha":-64,"x_min":0,"x_max":0,"o":"m 608 28 l 608 722 l 636 722 l 636 0 l 389 0 l 389 -167 l 361 -167 l 361 0 l 113 0 l 113 722 l 140 722 l 140 28 z "},"ь":{"ha":-115,"x_min":0,"x_max":0,"o":"m 174 -271 "},"ъ":{"ha":0,"x_min":0,"x_max":0,"o":""},"ы":{"ha":107,"x_min":0,"x_max":0,"o":""},"љ":{"ha":399,"x_min":0,"x_max":0,"o":"m 626 694 l 265 694 l 265 347 b 243 124 265 250 258 175 b 43 -14 213 18 154 -14 l 43 14 b 217 133 142 14 188 36 b 238 347 231 182 238 253 l 238 722 l 654 722 l 654 438 l 800 438 b 1147 229 1032 438 1147 368 b 800 0 1147 78 1040 0 l 626 0 z m 800 410 l 654 410 l 654 28 l 800 28 b 1068 97 935 28 1028 53 b 1119 229 1108 142 1119 178 b 1068 347 1119 275 1108 308 b 800 410 1028 386 935 410 z "},"њ":{"ha":378,"x_min":0,"x_max":0,"o":"m 633 722 l 633 438 l 779 438 b 1126 229 1011 438 1126 368 b 779 0 1126 78 1019 0 l 606 0 l 606 382 l 140 382 l 140 847 l 453 847 z m 626 535 l 481 535 l 481 153 l 626 153 b 894 222 761 153 854 178 b 946 354 935 267 946 303 b 894 472 946 400 935 433 b 626 535 854 511 761 535 z "},"ѕ":{"ha":-143,"x_min":0,"x_max":0,"o":""},"є":{"ha":-122,"x_min":0,"x_max":0,"o":"m 99 375 l 536 375 l 536 347 l 99 347 b 397 14 103 125 203 14 b 585 50 463 14 525 26 b 258 425 374 50 258 176 b 32 317 149 425 71 383 b -26 92 -8 249 -25 176 z "},"э":{"ha":-122,"x_min":0,"x_max":0,"o":"m 592 347 l 154 347 l 154 375 l 592 375 b 535 600 590 460 574 532 b 307 708 494 667 417 708 b -19 333 307 460 192 333 b -207 368 -83 333 -146 344 l -207 397 b -19 361 -147 374 -85 361 b 279 694 175 361 275 472 z "},"і":{"ha":0,"x_min":0,"x_max":0,"o":"m NaN 903 "},"ї":{"ha":-421,"x_min":0,"x_max":0,"o":""},"ј":{"ha":-344,"x_min":0,"x_max":0,"o":"m -28 -1083 l -28 -797 l 875 -797 l 875 -33 l 903 -33 l 903 -797 "},"ћ":{"ha":0,"x_min":0,"x_max":0,"o":"l 0 -347 l -28 -347 l -28 0 l -431 0 l -431 -28 "},"ю":{"ha":246,"x_min":0,"x_max":0,"o":"m 682 -14 b 376 347 497 -14 381 121 l 140 347 l 140 0 l 113 0 l 113 722 l 140 722 l 140 375 l 376 375 b NaN NaN 381 601 497 NaN b NaN NaN NaN NaN NaN NaN b NaN NaN NaN NaN NaN NaN z m NaN NaN b NaN NaN NaN NaN NaN NaN b NaN NaN NaN NaN NaN NaN b NaN NaN NaN NaN NaN NaN b NaN NaN NaN NaN NaN NaN b NaN NaN NaN NaN NaN NaN z "},"я":{"ha":0,"x_min":0,"x_max":0,"o":""},"ђ":{"ha":0,"x_min":0,"x_max":0,"o":"l 0 -458 b -29 -628 0 -593 -35 -628 b -50 NaN -18 -628 -50 NaN l -50 NaN b 51 NaN -18 NaN 15 NaN l 51 NaN l 100 NaN l 100 NaN l -303 NaN l -303 NaN "},"ѡ":{"ha":232,"x_min":0,"x_max":0,"o":"b 113 456 0 718 24 456 b -32 NaN -167 456 -32 299 "},"ѣ":{"ha":51,"x_min":0,"x_max":0,"o":"m 307 750 l 307 479 l 453 479 l 279 479 l 279 1229 l 57 1229 l 57 1257 l 279 1257 l 279 1479 l 251 1479 z m 175 1181 "},"ѯ":{"ha":0,"x_min":0,"x_max":0,"o":"m -42 -833 b 1049 -1035 229 -833 1049 -994 b 982 -1125 1049 -1086 975 -1125 b 982 NaN 954 -1125 982 -1158 b 1211 NaN 982 NaN 1050 NaN b 1496 NaN 1394 NaN 1496 NaN b 1156 NaN 1496 NaN 1378 NaN l 1086 NaN b 1183 NaN 1114 NaN 1183 NaN b NaN NaN 1183 NaN 1151 NaN b NaN NaN NaN NaN NaN NaN b NaN NaN NaN NaN NaN NaN z "},"ѱ":{"ha":135,"x_min":0,"x_max":0,"o":"m 488 958 l 488 14 b 613 347 488 236 492 347 b 593 90 849 347 593 219 b NaN NaN 593 -143 589 NaN l NaN NaN l NaN NaN l NaN NaN b NaN NaN NaN NaN NaN NaN b NaN NaN NaN NaN NaN NaN b NaN NaN NaN NaN NaN NaN l NaN NaN z "},"ѳ":{"ha":-60,"x_min":0,"x_max":0,"o":"m 607 85 b 376 -14 553 19 475 -14 b 751 339 513 -14 751 225 b 1064 674 751 475 950 674 b 689 489 928 674 689 554 z m 174 793 b 269 838 192 822 224 838 b 464 778 311 838 376 818 b 647 721 546 740 607 721 b 739 835 710 721 739 756 b 458 1113 718 1017 621 1113 b 174 793 282 1113 183 1000 z m 178 696 b 458 418 199 514 296 418 b 743 738 635 418 733 531 b 696 690 714 738 696 706 b 628 665 696 625 715 665 b 444 722 544 703 483 722 b 353 608 382 722 353 688 z "},"ѵ":{"ha":0,"x_min":0,"x_max":0,"o":""},"ѷ":{"ha":149,"x_min":0,"x_max":0,"o":"m 429 -306 b 664 -371 758 -306 664 -342 b NaN NaN 664 -494 614 NaN l NaN NaN l NaN NaN l NaN NaN l NaN NaN l NaN NaN l NaN NaN b NaN NaN NaN NaN NaN NaN z "},"ѹ":{"ha":794,"x_min":0,"x_max":0,"o":"m 151 88 b 64 361 93 154 64 246 b 53 235 64 260 -15 293 z m -1047 -214 b -569 960 -579 907 -642 960 b NaN NaN -600 960 -507 NaN b NaN NaN NaN NaN NaN NaN b NaN NaN NaN NaN NaN NaN b NaN NaN NaN NaN NaN NaN b NaN NaN NaN NaN NaN NaN z "},"ғ":{"ha":58,"x_min":0,"x_max":0,"o":"m 300 389 l 71 389 l 71 417 l 300 417 l 300 722 l 800 722 l 800 694 l 328 694 l 328 417 l -61 417 l -61 389 z "},"ҕ":{"ha":-115,"x_min":0,"x_max":0,"o":"m 342 396 b 140 335 267 396 200 375 l 140 0 l 113 0 l 113 722 l 557 722 l 557 694 l 140 694 l 140 368 b 342 424 199 406 265 424 b 626 167 538 424 626 340 b 286 -118 626 -6 503 -111 l 285 -90 b 599 167 486 -83 599 7 b 342 396 599 328 524 396 z "},"җ":{"ha":225,"x_min":0,"x_max":0,"o":"m 515 0 l 608 0 l 608 326 l 636 326 l 636 0 l 729 0 l 1003 326 l 1039 326 l 754 -14 l 1025 -368 l 1101 -368 l 1101 -396 l 1067 -396 l 786 -28 l 692 -28 z "},"ҙ":{"ha":0,"x_min":0,"x_max":0,"o":"b 226 351 397 419 296 351 b 46 328 100 351 74 328 b NaN NaN 44 328 10 NaN b NaN NaN NaN NaN NaN NaN l NaN NaN l NaN NaN l NaN NaN l NaN NaN l NaN NaN l NaN NaN l NaN NaN l NaN NaN l NaN NaN b NaN NaN NaN NaN NaN NaN "},"қ":{"ha":-51,"x_min":0,"x_max":0,"o":"l 113 592 l 572 243 l 664 243 l 664 215 l 618 215 "},"ҝ":{"ha":-11,"x_min":0,"x_max":0,"o":"m 140 0 l 113 0 l 113 722 l 140 722 l 140 389 l 307 389 l 307 625 l 335 625 l 335 389 l 407 389 l 681 722 l 717 722 l 432 375 l 724 0 l 689 0 l 407 361 l 335 361 l 335 125 l 307 125 l 307 361 l 140 361 z "},"ҟ":{"ha":25,"x_min":0,"x_max":0,"o":"m 231 847 l -215 847 l -215 850 l -243 850 z "},"ҡ":{"ha":88,"x_min":0,"x_max":0,"o":"m 293 0 l 293 694 l 64 694 l 64 722 l 321 722 l 321 401 l 324 401 z "},"ң":{"ha":51,"x_min":0,"x_max":0,"o":"m 779 0 l 668 0 l 668 382 l 140 382 l 140 910 l 453 910 l 453 938 l -242 938 l -242 1049 l -436 1049 l -436 1021 z "},"ҧ":{"ha":364,"x_min":0,"x_max":0,"o":"m 113 722 l 626 722 l 626 368 b 828 424 685 406 751 424 b 1113 167 1024 424 1113 340 b 772 -118 1113 -6 989 -111 l 771 -90 b 1085 167 972 -83 1085 7 b 828 396 1085 328 1010 396 b 626 335 753 396 686 375 l 626 0 l 599 0 l 599 694 l 140 694 l 140 0 l 113 0 z "},"ҫ":{"ha":-108,"x_min":0,"x_max":0,"o":"m 593 60 l 606 35 b 485 -8 565 13 525 -1 b 475 -37 519 -8 475 8 b 568 -103 475 -85 524 -103 b 571 NaN 531 -103 571 NaN z "},"ҭ":{"ha":-50,"x_min":0,"x_max":0,"o":"m 394 28 l 311 28 l 283 28 l 283 722 l -6 722 l -6 750 l 601 750 l 601 722 l 311 722 z "},"ү":{"ha":-74,"x_min":0,"x_max":0,"o":"m 89 722 l 368 199 l 371 199 l 650 722 l 682 722 l 383 167 l 383 -306 l 356 -306 l 356 167 l 57 722 z "},"ұ":{"ha":-18,"x_min":0,"x_max":0,"o":"m 383 0 l 92 0 l 92 28 l 383 28 l 383 167 l 64 722 l 96 722 l 396 199 l 399 199 l 699 722 l 731 722 l 411 167 l 411 28 l 703 28 l 703 0 l 411 0 l 411 -306 l 383 -306 z "},"ҳ":{"ha":-39,"x_min":0,"x_max":0,"o":"m 119 694 l 92 694 l 50 694 l 50 704 z "},"ҷ":{"ha":10,"x_min":0,"x_max":0,"o":"l 0 -694 l -83 -694 l -111 -694 l -111 -433 "},"ҹ":{"ha":-46,"x_min":0,"x_max":0,"o":"l 0 -722 l -28 -722 l -28 -461 b -264 -514 -99 -493 -178 -511 l -264 -708 l -292 -708 l -292 -514 b -556 -278 -492 -512 -556 -454 l -556 0 l -528 0 l -528 -278 b -292 -486 -528 -439 -476 -485 l -292 -208 l -264 -208 l -264 -486 b -28 -431 -171 -483 -93 -465 "},"һ":{"ha":0,"x_min":0,"x_max":0,"o":"m 140 431 l 140 0 l 113 0 l 113 722 l 140 722 l 140 461 b 397 514 215 496 301 514 b 668 278 603 514 668 457 l 668 0 l 640 0 l 640 278 b 397 486 640 439 588 486 b 140 431 307 486 197 463 z "},"ҽ":{"ha":65,"x_min":0,"x_max":0,"o":"m 168 382 l 196 382 b 515 736 203 604 321 736 l 515 722 l -68 722 l -54 697 b -290 633 -126 654 -206 633 b -624 1001 -494 633 -619 774 l -651 1001 b -790 1140 -756 1001 -790 1036 l -790 1231 l -762 1231 l -762 1140 b -651 1029 -762 1051 -740 1029 z m -596 1029 z "},"ҿ":{"ha":65,"x_min":0,"x_max":0,"o":"m 464 -8 b 519 136 464 43 482 90 b 283 492 374 175 285 304 l 256 492 b 117 631 151 492 117 526 l 117 721 l 144 721 l 144 631 b 256 519 144 542 167 519 l 283 519 b 603 874 290 742 408 874 l 603 860 l 19 860 l 33 835 b -203 771 -39 792 -118 771 b -268 776 -228 771 -250 772 z m -508 1167 z "},"ӏ":{"ha":0,"x_min":0,"x_max":0,"o":"m NaN 0 l NaN 0 l NaN 1042 l NaN 1042 z "},"ӂ":{"ha":190,"x_min":0,"x_max":0,"o":"m 243 -1000 "},"ӄ":{"ha":-67,"x_min":0,"x_max":0,"o":"m 647 722 l 246 438 l 247 435 b 363 451 285 446 324 451 b 682 181 575 451 682 357 b 300 -118 682 7 528 -118 l 300 -90 b 654 181 510 -90 654 21 b 363 424 654 343 557 424 b 140 361 278 424 204 403 l 140 0 l 113 0 l 113 722 l 140 722 l 140 394 l 143 394 l 599 722 z "},"ӆ":{"ha":60,"x_min":0,"x_max":0,"o":"m 240 349 l 240 722 l 718 722 l 718 28 l 843 28 l 753 28 l 725 28 l 725 722 l 303 722 l 303 376 z "},"ӈ":{"ha":-4,"x_min":0,"x_max":0,"o":"m 668 -111 l 668 382 l 140 382 l 140 910 l 453 910 l 453 938 l -381 938 z "},"ӊ":{"ha":38,"x_min":0,"x_max":0,"o":"m 786 0 l 668 0 l 668 382 l 140 382 l 140 910 l 453 910 l 453 938 l -242 938 l -242 1063 l -308 813 l -336 813 z "},"ӌ":{"ha":-46,"x_min":0,"x_max":0,"o":"l 0 -722 l -14 -722 l -111 -722 l -111 -889 l -139 -889 l -139 -694 l -28 -694 l -28 -461 "},"ӎ":{"ha":128,"x_min":0,"x_max":0,"o":"m 438 28 l 440 28 l 668 722 l 710 722 l 803 28 l 911 28 l 842 28 l 814 28 l 722 717 l 719 717 l 493 28 l 454 28 l 228 717 l 225 717 l 133 28 l 106 28 l 203 750 l 244 750 z "},"ӑ":{"ha":97,"x_min":0,"x_max":0,"o":"b 1147 -401 147 0 1147 439 "},"ӓ":{"ha":111,"x_min":0,"x_max":0,"o":"b 308 NaN 251 0 308 -854 "},"ӗ":{"ha":97,"x_min":0,"x_max":0,"o":"b 1154 -125 154 0 1154 521 "},"ә":{"ha":-67,"x_min":0,"x_max":0,"o":"m 71 368 l 654 368 b 349 708 653 581 538 708 b 126 647 267 708 193 688 b -165 1015 -58 647 -165 782 "},"ӛ":{"ha":-67,"x_min":0,"x_max":0,"o":"m -472 -646 l 111 -646 b -194 -306 110 -433 -6 -306 b -417 -367 -276 -306 -350 -326 b -708 1 -601 -367 -708 -232 "},"ӝ":{"ha":190,"x_min":0,"x_max":0,"o":"m -139 -1014 l -46 -1014 l -46 -687 l -18 -687 l -18 -1014 l 75 -1014 l 349 -687 l 385 -687 l 100 -1028 l 392 -1410 l 357 -1410 l 76 -1042 l -18 -1042 z "},"ӟ":{"ha":0,"x_min":0,"x_max":0,"o":"b -206 -401 0 215 -74 -401 b -396 -683 -319 -401 -396 -600 b -461 -733 -396 -767 -379 -733 l -450 -708 l -482 -708 l -482 -632 l -403 -632 l -403 -647 l -321 -647 l -321 -717 b -224 -874 -293 -717 -224 -797 b NaN -962 -224 -889 -256 -962 b NaN -1125 NaN -962 NaN -1097 "},"ӡ":{"ha":10,"x_min":0,"x_max":0,"o":"m 682 0 b 367 250 682 167 576 250 l 256 250 l 256 278 l 656 692 l 656 694 l 119 694 l 119 722 l 696 722 l 696 694 b 449 269 282 293 361 269 b 768 561 661 269 768 367 z "},"ӣ":{"ha":7,"x_min":0,"x_max":0,"o":""},"ӥ":{"ha":7,"x_min":0,"x_max":0,"o":"m 285 847 "},"ӧ":{"ha":-32,"x_min":0,"x_max":0,"o":""},"ө":{"ha":0,"x_min":0,"x_max":0,"o":""},"ӫ":{"ha":0,"x_min":0,"x_max":0,"o":"m -392 -926 b -479 -653 -450 -860 -479 -768 b -490 -779 -479 -754 -558 -721 z m -550 -492 l 47 -492 b -251 -158 43 -286 -72 -158 b -550 -492 -431 -158 -546 -286 z m 47 -519 l -550 -519 b -251 -853 -546 -725 -431 -853 b 47 -519 -72 -853 43 -725 z "},"ӭ":{"ha":0,"x_min":0,"x_max":0,"o":"m 139 -667 l 342 -667 l 342 -1139 l 342 -1111 l 814 -1111 b 494 -778 808 -901 690 -778 l 482 -753 b 676 -704 543 -721 608 -704 b 1024 -1079 892 -704 1024 -847 b 676 -1454 1024 -1303 883 -1454 b 482 -1406 608 -1454 543 -1437 "},"ӯ":{"ha":-39,"x_min":0,"x_max":0,"o":""},"ӱ":{"ha":-39,"x_min":0,"x_max":0,"o":""},"ӳ":{"ha":-39,"x_min":0,"x_max":0,"o":""},"ӵ":{"ha":-46,"x_min":0,"x_max":0,"o":"m 49 -722 l 49 -422 l 896 -422 l 896 8 l 924 8 l 924 -714 l 896 -714 l 896 -453 "},"ӷ":{"ha":-129,"x_min":0,"x_max":0,"o":"m 140 694 l 140 28 l 57 28 l 29 28 l 29 750 l 529 750 l 529 722 z "},"ӹ":{"ha":107,"x_min":0,"x_max":0,"o":"m 335 847 l 307 847 l 307 1014 "},"ӻ":{"ha":65,"x_min":0,"x_max":0,"o":"m 411 -111 l 411 0 l 328 0 l 300 0 l 300 389 l 71 389 l 71 417 l 300 417 l 300 722 l 800 722 l 800 694 l 328 694 l 328 417 l 654 417 l 654 389 l 328 389 l 328 28 l 439 28 l 439 -111 z "},"ӽ":{"ha":-39,"x_min":0,"x_max":0,"o":"m 689 -111 l 689 0 l 661 0 l 696 0 l 557 0 z "},"ӿ":{"ha":-46,"x_min":0,"x_max":0,"o":"m 357 354 l 99 354 l 99 382 l 354 382 l 99 722 l 133 722 l -122 382 l 133 382 l 133 354 l -125 354 l 140 0 l 106 0 z "},"ԁ":{"ha":-39,"x_min":0,"x_max":0,"o":""},"ԃ":{"ha":468,"x_min":0,"x_max":0,"o":"m 635 182 l 632 182 b 331 18 506 182 465 88 b 811 -732 333 18 811 46 b 853 -847 811 -889 722 -824 z "},"ԅ":{"ha":425,"x_min":0,"x_max":0,"o":"m 407 401 l 407 399 b 611 208 542 381 611 325 b 861 14 611 79 694 14 b 583 236 676 14 583 88 b 511 371 583 299 560 344 b 243 410 463 397 374 410 l 174 410 l 174 438 l 243 438 b 82 247 172 438 111 376 z "},"ԇ":{"ha":-33,"x_min":0,"x_max":0,"o":"m 694 0 l 583 0 l 583 208 b 511 343 583 271 560 317 b 243 382 463 369 374 382 l 174 382 l 174 410 l 243 410 b 82 219 172 410 111 349 l 82 217 b 286 26 217 199 286 143 l 286 -154 l 397 -154 l 397 -349 l 369 -349 z "},"ԉ":{"ha":532,"x_min":0,"x_max":0,"o":"m 690 236 l 690 694 l 268 694 l 268 349 l 268 722 l 746 722 l 746 236 b 996 14 746 81 819 14 b 718 264 807 14 718 93 z "},"ԋ":{"ha":454,"x_min":0,"x_max":0,"o":"m 1067 661 b 1714 458 1067 647 1803 458 b 1964 NaN 1793 458 1964 NaN l 1964 NaN l 1492 NaN l 1492 NaN l 1804 NaN l 1804 NaN l 1318 NaN b 1568 NaN 1318 NaN 1392 NaN b 1888 NaN 1675 NaN 1888 NaN b NaN NaN 1888 NaN 1829 NaN z "},"ԍ":{"ha":47,"x_min":0,"x_max":0,"o":"m 92 361 b 469 18 92 150 236 18 b 747 307 658 18 747 111 l 747 382 l 403 382 l 403 410 l 775 410 l 775 307 b 469 -10 775 96 674 -10 b 64 361 219 -10 64 133 b 483 732 64 588 228 732 b 746 672 583 732 671 713 l 733 649 b 483 704 664 686 581 704 b 92 361 244 704 92 571 z "},"ԏ":{"ha":204,"x_min":0,"x_max":0,"o":"m 390 694 l 390 236 b 640 14 390 81 464 14 b 363 264 451 14 363 93 z "},"ԑ":{"ha":-110,"x_min":0,"x_max":0,"o":"m 282 394 b 581 568 282 504 393 568 b 822 518 667 568 747 551 l 811 493 b 581 540 738 525 661 540 l 650 540 l 650 513 l 581 513 b 240 325 358 513 240 447 b 525 144 240 208 342 144 b 763 192 607 144 686 160 l 774 167 b 525 117 692 133 608 117 b 733 178 601 117 733 168 b NaN 272 733 222 801 272 b NaN 326 NaN 297 NaN 315 z "},"ԓ":{"ha":18,"x_min":0,"x_max":0,"o":"m 690 -111 l 690 694 l 268 694 l 268 349 l 268 722 l 746 722 l 746 -111 l 611 -151 l 574 -144 l 585 -118 b 685 -137 617 -131 650 -137 z "},"ԛ":{"ha":-46,"x_min":0,"x_max":0,"o":"m 150 88 b 71 361 97 154 71 246 b 232 -639 74 361 232 389 b 625 -757 232 -667 696 -757 b 726 NaN 658 -757 726 -808 z "},"ԝ":{"ha":0,"x_min":0,"x_max":0,"o":"m 772 0 "},"ҁ":{"ha":-185,"x_min":0,"x_max":0,"o":"m 418 14 b 432 15 421 14 425 14 l 446 15 l 446 -250 l 418 -250 l 418 -14 b 64 346 182 -14 64 232 b 328 540 64 475 263 540 b 293 NaN 317 540 293 604 b NaN NaN 293 NaN 178 NaN z "},"ҍ":{"ha":10,"x_min":0,"x_max":0,"o":"m 265 750 l 265 479 l 411 479 l 238 479 l 238 1229 l 57 1229 l 57 1257 l 238 1257 l 238 1438 l 265 1438 l 265 1257 l 488 1257 l 488 1229 z m 411 931 "},"ҏ":{"ha":-46,"x_min":0,"x_max":0,"o":"m 529 14 l 606 -139 l 575 -139 l 504 3 b 404 -14 474 -8 440 -14 b 118 -242 233 -14 172 -136 z m 81 -228 l -58 50 l -28 50 l 106 -217 b 257 106 207 -167 257 -60 b -7 453 257 318 156 453 b -271 140 -175 453 -271 339 l -271 71 b -7 -242 -271 -128 -175 -242 b 81 -228 26 -242 56 -237 z "},"Ҥ":{"ha":572,"x_min":0,"x_max":0,"o":"m 1300 986 l 821 986 l 821 0 l 793 0 l 793 542 l 1300 542 z "},"ҥ":{"ha":343,"x_min":0,"x_max":0,"o":"m 668 722 l 1085 722 l 1085 694 l 696 694 l 696 0 l 668 0 l 668 382 l 140 382 l 140 910 z "},"Ҵ":{"ha":419,"x_min":0,"x_max":0,"o":"m 64 986 l 64 1014 l 703 1014 l 703 986 l 397 986 l 397 28 l 1022 28 l 1022 1014 l 1050 1014 l 1050 250 l 2036 250 z "},"ҵ":{"ha":149,"x_min":0,"x_max":0,"o":"m 64 694 l 64 722 l 522 722 l 522 694 l 307 694 l 307 28 l 765 28 l 765 722 l 793 722 l 793 28 l 196 28 l 196 722 z "},"Ӕ":{"ha":329,"x_min":0,"x_max":0,"o":"m 1029 1014 l 1029 986 l 599 986 l 599 569 l 1001 569 l 1001 542 l 599 542 z m 617 514 l 383 -97 l 724 -97 l 724 514 z "},"ӕ":{"ha":406,"x_min":0,"x_max":0,"o":"m 1147 354 l 613 354 b 890 14 617 144 722 14 b 1099 74 967 14 1036 33 l 1113 51 b 890 -14 1044 8 969 -14 b 597 238 740 -14 632 81 b 307 -14 563 69 467 -14 b 78 194 168 -14 78 68 b 501 451 78 338 242 451 l 583 451 b 363 708 576 658 517 708 b 119 643 275 708 194 686 l 106 667 b 363 736 185 713 271 736 b 606 524 519 736 588 681 b 876 736 646 658 743 736 z m 342 750 l 849 750 b 585 424 686 750 590 631 z m 78 236 b 279 56 78 125 156 56 b 557 444 468 56 557 179 l 557 465 l 474 465 b 78 236 233 465 78 360 z "},"Α":{"ha":0,"x_min":0,"x_max":0,"o":"m 813 0 z "},"Β":{"ha":-11,"x_min":0,"x_max":0,"o":""},"Γ":{"ha":0,"x_min":0,"x_max":0,"o":""},"Δ":{"ha":375,"x_min":0,"x_max":0,"o":"m 842 0 l 79 0 l 50 0 z m 385 -986 l 31 -24 l 28 -24 l -326 -986 z "},"Ε":{"ha":-18,"x_min":0,"x_max":0,"o":""},"Ζ":{"ha":24,"x_min":0,"x_max":0,"o":""},"Η":{"ha":0,"x_min":0,"x_max":0,"o":""},"Θ":{"ha":149,"x_min":0,"x_max":0,"o":"m 539 351 l 631 351 l 631 490 l 1131 490 l 1131 629 l 631 629 l 631 657 l 1131 657 z "},"Ι":{"ha":0,"x_min":0,"x_max":0,"o":""},"Κ":{"ha":0,"x_min":0,"x_max":0,"o":"m 697 0 l 157 508 l 154 508 l 154 0 l 126 0 l 126 1014 l 154 1014 l 154 546 l 157 546 l 682 1014 l 724 1014 l 175 528 l 738 0 z "},"Λ":{"ha":-365,"x_min":0,"x_max":0,"o":"m 813 0 l 447 990 l 444 990 z "},"Μ":{"ha":0,"x_min":0,"x_max":0,"o":"m 960 0 l 832 985 z "},"Ν":{"ha":0,"x_min":0,"x_max":0,"o":""},"Ξ":{"ha":10,"x_min":0,"x_max":0,"o":"m 710 986 l 113 986 l 113 1014 l 710 1014 z m 682 542 l 140 542 l 140 569 l 682 569 z m 710 0 l 113 0 l 113 28 l 710 28 z "},"Ο":{"ha":274,"x_min":0,"x_max":0,"o":""},"Π":{"ha":0,"x_min":0,"x_max":0,"o":"m 126 0 l 126 1014 l 807 1014 l 807 0 l 779 0 l 779 986 l 154 986 l 154 0 z "},"Ρ":{"ha":0,"x_min":0,"x_max":0,"o":""},"Σ":{"ha":0,"x_min":0,"x_max":0,"o":""},"Τ":{"ha":65,"x_min":0,"x_max":0,"o":""},"Υ":{"ha":51,"x_min":0,"x_max":0,"o":""},"Φ":{"ha":0,"x_min":0,"x_max":0,"o":""},"Χ":{"ha":0,"x_min":0,"x_max":0,"o":""},"Ψ":{"ha":232,"x_min":0,"x_max":0,"o":"m 911 625 l 911 1014 l 939 1014 l 939 625 b 536 236 939 386 788 242 l 536 0 l 508 0 l 508 236 b 106 625 257 242 106 386 l 106 1014 l 133 1014 l 133 625 b 508 264 133 401 269 269 l 508 1014 l 536 1014 l 536 264 b 911 625 775 269 911 401 z "},"Ω":{"ha":232,"x_min":0,"x_max":0,"o":""},"Ά":{"ha":72,"x_min":0,"x_max":0,"o":"m 261 1042 "},"Έ":{"ha":174,"x_min":0,"x_max":0,"o":"m 244 1042 l 881 1042 l 881 542 z "},"Ή":{"ha":271,"x_min":0,"x_max":0,"o":"m 244 1042 "},"Ί":{"ha":-243,"x_min":0,"x_max":0,"o":"m 286 1042 z m 422 0 "},"Ό":{"ha":306,"x_min":0,"x_max":0,"o":"m 244 1042 "},"Ύ":{"ha":306,"x_min":0,"x_max":0,"o":"m 244 1042 z m 374 1014 l 719 483 l 351 1043 z "},"Ώ":{"ha":347,"x_min":0,"x_max":0,"o":"m 244 1042 "},"Ϊ":{"ha":-418,"x_min":0,"x_max":0,"o":""},"Ϋ":{"ha":51,"x_min":0,"x_max":0,"o":""},"Ͱ":{"ha":0,"x_min":0,"x_max":0,"o":"m 154 569 "},"Ͳ":{"ha":135,"x_min":0,"x_max":0,"o":"m 460 0 l 460 986 l 126 986 l 126 542 l 99 542 l 99 1014 l 849 1014 l 849 542 l 821 542 l 821 986 l 488 986 l 488 0 z "},"Ͷ":{"ha":0,"x_min":0,"x_max":0,"o":""},"Ϙ":{"ha":0,"x_min":0,"x_max":0,"o":"b -157 1010 149 0 -157 1333 b -354 607 -157 863 -347 607 b -757 1128 -610 614 -757 804 "},"Ϛ":{"ha":0,"x_min":0,"x_max":0,"o":"m 633 986 l 633 0 b 503 -14 593 -10 550 -14 b 64 507 240 -14 64 196 b 503 1028 64 818 240 1028 b 633 1014 550 1028 593 1024 l 1064 1014 l 1064 986 z m 606 22 l 606 992 b 503 1000 572 997 538 1000 b 92 507 257 1000 92 801 b 503 14 92 213 257 14 b 606 22 538 14 572 17 z "},"Ϝ":{"ha":0,"x_min":0,"x_max":0,"o":""},"Ϟ":{"ha":106,"x_min":0,"x_max":0,"o":"m 731 -58 l 717 -83 b 532 54 650 -72 544 -21 b 581 215 525 92 542 144 l 813 617 l 810 618 l 81 296 l 57 310 l 314 754 b 360 863 340 799 356 835 b 283 981 368 918 344 946 b 188 1014 250 999 218 1010 l 201 1039 b 386 903 268 1028 374 978 b 338 740 393 865 376 811 l 107 339 l 108 338 l 838 661 l 861 647 l 604 201 b 560 93 578 157 564 121 b 635 -24 551 38 574 11 b 731 -58 671 -43 703 -54 z "},"Ϡ":{"ha":357,"x_min":0,"x_max":0,"o":"m 469 936 b 1013 393 708 829 906 632 b 1099 28 1065 272 1094 151 l 1071 1 b 929 490 1069 171 1022 333 l 461 21 l 442 40 l 915 514 b 590 839 833 643 719 757 "},"Ϗ":{"ha":-18,"x_min":0,"x_max":0,"o":"m 175 528 l 738 0 l 571 -361 l 540 -361 l 704 -7 l 157 510 l 154 0 l 679 467 l 721 467 z "},"ϒ":{"ha":218,"x_min":0,"x_max":0,"o":""},"ϓ":{"ha":368,"x_min":0,"x_max":0,"o":""},"ϔ":{"ha":218,"x_min":0,"x_max":0,"o":""},"ϴ":{"ha":0,"x_min":0,"x_max":0,"o":""},"Ϸ":{"ha":0,"x_min":0,"x_max":0,"o":""},"Ϲ":{"ha":0,"x_min":0,"x_max":0,"o":""},"Ϻ":{"ha":0,"x_min":0,"x_max":0,"o":"m 1099 0 l 1071 0 l 1071 988 l 1068 988 l 629 486 l 596 486 l 157 988 l 154 0 l 594 -503 l 597 -503 l 1038 0 l 1082 0 z "},"Ͻ":{"ha":142,"x_min":0,"x_max":0,"o":"m 99 76 l 114 99 b 404 14 197 42 294 14 b 99 104 288 14 186 44 z "},"Ͼ":{"ha":142,"x_min":0,"x_max":0,"o":""},"Ͽ":{"ha":142,"x_min":0,"x_max":0,"o":"m 99 76 l 114 99 b 404 14 197 42 294 14 b 99 104 288 14 186 44 "},"Ἀ":{"ha":79,"x_min":0,"x_max":0,"o":""},"Ἁ":{"ha":79,"x_min":0,"x_max":0,"o":""},"Ἂ":{"ha":225,"x_min":0,"x_max":0,"o":""},"Ἃ":{"ha":225,"x_min":0,"x_max":0,"o":""},"Ἄ":{"ha":218,"x_min":0,"x_max":0,"o":""},"Ἅ":{"ha":218,"x_min":0,"x_max":0,"o":""},"Ἆ":{"ha":163,"x_min":0,"x_max":0,"o":""},"Ἇ":{"ha":163,"x_min":0,"x_max":0,"o":""},"Ὰ":{"ha":0,"x_min":0,"x_max":0,"o":""},"Ά":{"ha":0,"x_min":0,"x_max":0,"o":""},"Ᾰ":{"ha":0,"x_min":0,"x_max":0,"o":""},"Ᾱ":{"ha":79,"x_min":0,"x_max":0,"o":""},"ᾼ":{"ha":79,"x_min":0,"x_max":0,"o":"m 813 0 "},"ᾈ":{"ha":0,"x_min":0,"x_max":0,"o":"b 29 1410 79 0 -268 1410 b -707 1378 -665 1410 -674 1378 b NaN NaN -711 1378 -743 NaN b NaN NaN NaN NaN NaN NaN l NaN NaN l NaN NaN l NaN NaN b NaN NaN NaN NaN NaN NaN "},"ᾉ":{"ha":0,"x_min":0,"x_max":0,"o":"b 29 1410 79 0 -268 1410 b -707 1378 -665 1410 -674 1378 b NaN NaN -711 1378 -743 NaN b NaN NaN NaN NaN NaN NaN l NaN NaN l NaN NaN l NaN NaN b NaN NaN NaN NaN NaN NaN "},"ᾊ":{"ha":225,"x_min":0,"x_max":0,"o":""},"ᾋ":{"ha":225,"x_min":0,"x_max":0,"o":""},"ᾌ":{"ha":218,"x_min":0,"x_max":0,"o":""},"ᾍ":{"ha":218,"x_min":0,"x_max":0,"o":""},"ᾎ":{"ha":163,"x_min":0,"x_max":0,"o":""},"ᾏ":{"ha":163,"x_min":0,"x_max":0,"o":""},"Ἐ":{"ha":0,"x_min":0,"x_max":0,"o":"l 121 0 l 121 182 l 204 182 l 204 960 l -289 960 "},"Ἑ":{"ha":0,"x_min":0,"x_max":0,"o":"m 182 1063 l 182 1035 b NaN NaN 89 1035 NaN NaN b NaN NaN NaN NaN NaN NaN l NaN NaN b NaN NaN NaN NaN NaN NaN b NaN NaN NaN NaN NaN NaN l NaN NaN l NaN NaN z "},"Ἒ":{"ha":0,"x_min":0,"x_max":0,"o":"l 371 0 l 371 439 l 447 439 l 447 1078 l 169 1078 "},"Ἓ":{"ha":0,"x_min":0,"x_max":0,"o":"l 378 0 l 378 446 l 454 446 l 454 1085 l 176 1085 "},"Ἔ":{"ha":0,"x_min":0,"x_max":0,"o":"l 371 0 l 371 446 l 440 446 l 440 1210 l 163 1210 "},"Ἕ":{"ha":0,"x_min":0,"x_max":0,"o":"l 364 0 l 364 439 l 433 439 l 433 1203 l 156 1203 "},"Ὲ":{"ha":0,"x_min":0,"x_max":0,"o":"l 149 0 l 149 569 l 565 569 l 565 1208 l 288 1208 "},"Έ":{"ha":0,"x_min":0,"x_max":0,"o":"l 142 0 l 142 217 l 211 217 l 211 981 l -67 981 "},"Ἠ":{"ha":218,"x_min":0,"x_max":0,"o":""},"Ἡ":{"ha":197,"x_min":0,"x_max":0,"o":""},"Ἢ":{"ha":468,"x_min":0,"x_max":0,"o":""},"Ἣ":{"ha":475,"x_min":0,"x_max":0,"o":""},"Ἤ":{"ha":468,"x_min":0,"x_max":0,"o":""},"Ἥ":{"ha":461,"x_min":0,"x_max":0,"o":""},"Ἦ":{"ha":260,"x_min":0,"x_max":0,"o":""},"Ἧ":{"ha":239,"x_min":0,"x_max":0,"o":""},"Ὴ":{"ha":0,"x_min":0,"x_max":0,"o":""},"Ή":{"ha":239,"x_min":0,"x_max":0,"o":""},"ῌ":{"ha":79,"x_min":0,"x_max":0,"o":"l 28 0 l 28 -83 b 139 -236 28 -226 35 -236 "},"ᾘ":{"ha":218,"x_min":0,"x_max":0,"o":""},"ᾙ":{"ha":197,"x_min":0,"x_max":0,"o":"l 0 674 l -493 674 l -1076 674 l -1076 132 l -1104 132 l -1104 1146 l -1076 1146 l -1076 701 l -1049 701 l -1049 618 b -937 465 -1049 475 -1042 465 "},"ᾚ":{"ha":468,"x_min":0,"x_max":0,"o":""},"ᾛ":{"ha":475,"x_min":0,"x_max":0,"o":"b 753 -250 63 0 785 -250 b NaN NaN 749 -250 715 NaN b NaN NaN NaN NaN NaN NaN l NaN NaN l NaN NaN l NaN NaN b NaN NaN NaN NaN NaN NaN "},"ᾜ":{"ha":468,"x_min":0,"x_max":0,"o":"b 167 -97 111 0 167 -32 b NaN NaN 167 -149 121 NaN l NaN NaN b NaN NaN NaN NaN NaN NaN b NaN NaN NaN NaN NaN NaN m NaN NaN "},"ᾝ":{"ha":461,"x_min":0,"x_max":0,"o":"m 56 -243 "},"ᾞ":{"ha":260,"x_min":0,"x_max":0,"o":"l 0 -89 l 1083 -89 l 1083 15 l 1035 15 l 1035 918 l 569 918 l -14 918 l -14 376 l -42 376 l -42 1390 l -14 1390 l -14 946 l 14 946 l 14 863 b 125 710 14 719 21 710 "},"ᾟ":{"ha":239,"x_min":0,"x_max":0,"o":"b 2097 -137 1083 -117 1382 -137 b 1539 -142 1604 -137 1572 -142 b 1400 39 1417 -142 1400 -115 l 1400 122 l 1428 122 l 1428 39 b 1539 -114 1428 -104 1435 -114 "},"Ἰ":{"ha":-337,"x_min":0,"x_max":0,"o":"m 15 -1035 "},"Ἱ":{"ha":-358,"x_min":0,"x_max":0,"o":"m 90 -1062 "},"Ἲ":{"ha":-87,"x_min":0,"x_max":0,"o":"m 139 -819 "},"Ἳ":{"ha":-81,"x_min":0,"x_max":0,"o":"m 139 -819 "},"Ἴ":{"ha":-87,"x_min":0,"x_max":0,"o":"m 264 -819 "},"Ἵ":{"ha":-94,"x_min":0,"x_max":0,"o":"m 264 -819 "},"Ἶ":{"ha":-289,"x_min":0,"x_max":0,"o":"m 319 -1035 "},"Ἷ":{"ha":-317,"x_min":0,"x_max":0,"o":"m 132 -1062 "},"Ὶ":{"ha":-310,"x_min":0,"x_max":0,"o":"m 139 -819 "},"Ί":{"ha":-317,"x_min":0,"x_max":0,"o":"m 264 -819 "},"Ῐ":{"ha":-421,"x_min":0,"x_max":0,"o":"m 243 -1278 "},"Ῑ":{"ha":0,"x_min":0,"x_max":0,"o":""},"Ὀ":{"ha":246,"x_min":0,"x_max":0,"o":""},"Ὁ":{"ha":218,"x_min":0,"x_max":0,"o":""},"Ὂ":{"ha":496,"x_min":0,"x_max":0,"o":""},"Ὃ":{"ha":496,"x_min":0,"x_max":0,"o":""},"Ὄ":{"ha":461,"x_min":0,"x_max":0,"o":""},"Ὅ":{"ha":454,"x_min":0,"x_max":0,"o":""},"Ὸ":{"ha":281,"x_min":0,"x_max":0,"o":""},"Ό":{"ha":243,"x_min":0,"x_max":0,"o":""},"Ῥ":{"ha":100,"x_min":0,"x_max":0,"o":""},"Ὑ":{"ha":246,"x_min":0,"x_max":0,"o":""},"Ὓ":{"ha":496,"x_min":0,"x_max":0,"o":""},"Ὕ":{"ha":510,"x_min":0,"x_max":0,"o":"m 236 194 l 251 194 l 251 1451 l 285 1451 l 632 921 z "},"Ὗ":{"ha":260,"x_min":0,"x_max":0,"o":""},"Ὺ":{"ha":288,"x_min":0,"x_max":0,"o":""},"Ύ":{"ha":288,"x_min":0,"x_max":0,"o":""},"Ῠ":{"ha":51,"x_min":0,"x_max":0,"o":""},"Ῡ":{"ha":51,"x_min":0,"x_max":0,"o":""},"Ὠ":{"ha":294,"x_min":0,"x_max":0,"o":""},"Ὡ":{"ha":267,"x_min":0,"x_max":0,"o":""},"Ὢ":{"ha":538,"x_min":0,"x_max":0,"o":""},"Ὣ":{"ha":538,"x_min":0,"x_max":0,"o":"m 0 -299 z "},"Ὤ":{"ha":503,"x_min":0,"x_max":0,"o":""},"Ὥ":{"ha":496,"x_min":0,"x_max":0,"o":""},"Ὦ":{"ha":281,"x_min":0,"x_max":0,"o":""},"Ὧ":{"ha":253,"x_min":0,"x_max":0,"o":""},"Ὼ":{"ha":322,"x_min":0,"x_max":0,"o":""},"Ώ":{"ha":285,"x_min":0,"x_max":0,"o":""},"ῼ":{"ha":232,"x_min":0,"x_max":0,"o":""},"ᾨ":{"ha":294,"x_min":0,"x_max":0,"o":""},"ᾩ":{"ha":267,"x_min":0,"x_max":0,"o":""},"ᾪ":{"ha":538,"x_min":0,"x_max":0,"o":""},"ᾫ":{"ha":538,"x_min":0,"x_max":0,"o":"m 0 -299 "},"ᾬ":{"ha":503,"x_min":0,"x_max":0,"o":"b 596 -89 118 751 604 -89 b 499 -93 564 -89 531 -93 b 360 88 376 -93 360 -67 l 360 171 l 388 171 l 388 88 b 499 -65 388 -56 394 -65 "},"ᾭ":{"ha":496,"x_min":0,"x_max":0,"o":""},"ᾮ":{"ha":281,"x_min":0,"x_max":0,"o":"b 1104 29 104 -89 618 29 b 222 -3 264 29 256 -3 b NaN NaN 218 -3 186 NaN b NaN NaN NaN NaN NaN NaN l NaN NaN l NaN NaN l NaN NaN b NaN NaN NaN NaN NaN NaN "},"ᾯ":{"ha":253,"x_min":0,"x_max":0,"o":""},"α":{"ha":0,"x_min":0,"x_max":0,"o":""},"β":{"ha":-18,"x_min":0,"x_max":0,"o":"m 147 17 b -76 743 147 -306 119 743 b -317 436 -207 743 -317 499 b -383 388 -317 367 -307 388 z m -133 1371 b -383 1114 -304 1371 -383 1290 l -383 417 b -175 385 -304 396 -235 385 b 15 418 -107 385 -47 393 b 151 546 78 443 122 479 b 172 663 165 579 172 618 b -217 913 172 829 43 913 z "},"γ":{"ha":-46,"x_min":0,"x_max":0,"o":"m 382 83 l 385 83 b 678 722 438 265 535 479 l 710 722 b 397 28 547 449 443 217 l 397 -306 l 369 -306 l 369 28 b 57 722 324 217 219 449 l 89 722 b 382 83 232 479 329 265 z "},"δ":{"ha":0,"x_min":0,"x_max":0,"o":"m 161 875 b 376 736 161 793 233 746 b 689 361 576 721 689 590 b 376 -14 689 132 565 -14 b 64 361 188 -14 64 132 b 283 721 64 549 146 681 b 133 875 183 744 133 796 b 383 1028 133 965 226 1028 b 606 975 460 1028 535 1010 l 606 944 b 383 1000 535 982 460 1000 b 161 875 246 1000 161 953 z m 360 710 b 92 361 194 703 92 567 b 376 14 92 149 200 14 b 661 361 553 14 661 149 b 375 708 661 576 563 696 b 368 710 374 708 371 708 z "},"ε":{"ha":-122,"x_min":0,"x_max":0,"o":"m 383 14 b 619 63 461 14 540 31 l 619 31 b 383 -14 543 1 465 -14 b 592 47 460 -14 592 38 b NaN 142 592 92 660 142 b NaN 196 NaN 167 NaN 185 b NaN 369 NaN 306 NaN 369 b NaN 325 NaN 369 NaN 354 l NaN 293 b NaN 342 NaN 325 NaN 342 l NaN 342 l NaN 314 l NaN 314 b NaN 126 NaN 314 NaN 249 b NaN -54 NaN 10 NaN -54 z "},"ζ":{"ha":-74,"x_min":0,"x_max":0,"o":"m 475 1011 l 475 1014 l 119 1014 l 119 1042 l 550 1042 l 550 1014 b 113 347 339 954 113 621 b 467 14 113 110 215 14 b 696 -139 628 14 696 -39 b 460 -319 696 -260 617 -319 b 279 -287 392 -319 332 -308 b 419 -449 279 -556 165 -449 b 960 65 669 -449 854 -140 z "},"η":{"ha":0,"x_min":0,"x_max":0,"o":""},"θ":{"ha":-46,"x_min":0,"x_max":0,"o":"m 156 897 b 383 1042 213 993 288 1042 b 671 1229 546 1042 574 1172 z m 614 853 l 1183 853 b 899 1346 1179 1153 1069 1346 b 614 853 728 1346 618 1153 z m 1183 825 l 614 825 b 899 332 618 525 728 332 b 1183 825 1069 332 1179 525 z "},"ι":{"ha":-226,"x_min":0,"x_max":0,"o":"m 175 722 z "},"κ":{"ha":0,"x_min":0,"x_max":0,"o":"m 140 722 l -187 722 l -187 1444 z "},"λ":{"ha":-39,"x_min":0,"x_max":0,"o":"m 406 674 l 406 674 l 406 1701 l 403 1701 l 108 1028 l 78 1028 l 389 1736 b 64 2028 289 1968 204 2028 l 64 2056 b 419 1735 224 2056 318 1978 l 717 1028 l 686 1028 z "},"μ":{"ha":-67,"x_min":0,"x_max":0,"o":"m 606 178 l 603 178 l 603 150 z "},"ν":{"ha":-67,"x_min":0,"x_max":0,"o":"m 88 722 l 363 21 l 365 21 b 640 722 583 325 640 468 l 668 722 b 383 0 668 463 610 311 l 342 0 l 57 722 z "},"ξ":{"ha":-67,"x_min":0,"x_max":0,"o":"m 343 554 l 343 557 b 133 785 210 589 133 669 b 349 1011 133 881 208 968 l 349 1014 l 126 1014 l 126 1042 l 557 1042 l 557 1014 b 161 785 308 1014 161 914 b 467 569 161 651 272 569 l 585 569 l 585 542 l 467 542 b 119 278 260 542 119 429 b 474 14 119 101 238 14 b 703 -139 635 14 703 -39 b 467 -319 703 -260 624 -319 b 286 -287 400 -319 340 -308 b 353 -444 286 -542 158 -444 b 621 -185 486 -444 583 -339 z "},"ο":{"ha":-60,"x_min":0,"x_max":0,"o":""},"π":{"ha":51,"x_min":0,"x_max":0,"o":"m 779 694 l 640 694 l 640 0 l 613 0 l 613 694 l 251 694 l 251 0 l 224 0 l 224 694 l 85 694 l 85 722 l 779 722 z "},"ρ":{"ha":-60,"x_min":0,"x_max":0,"o":""},"ς":{"ha":-136,"x_min":0,"x_max":0,"o":"m 397 736 b 92 389 208 736 92 604 b 369 42 92 176 199 42 b 633 -111 557 42 633 -10 b 369 -292 633 -232 551 -292 b 189 -260 303 -292 243 -281 l 189 -229 b 369 -264 246 -253 306 -264 b 567 -212 469 -264 538 -246 b 606 -111 596 -181 606 -151 b 558 -19 606 -74 590 -43 b 549 -72 581 -19 549 -83 b 657 -19 549 -165 428 -19 b 1018 328 886 -19 1018 126 z "},"σ":{"ha":3,"x_min":0,"x_max":0,"o":"m 661 694 l 772 694 l 772 667 l 579 667 b 689 361 653 601 689 500 b 376 -14 689 122 575 -14 b 751 339 513 -14 751 225 b 993 511 751 475 950 511 b 972 NaN 986 511 972 560 b 1129 NaN 1021 NaN 1074 NaN "},"τ":{"ha":-4,"x_min":0,"x_max":0,"o":"m 738 694 l 738 694 l 738 1417 l 418 1417 l 418 722 l 390 722 l 390 1417 l 71 1417 l 71 1444 l 738 1444 z "},"υ":{"ha":0,"x_min":0,"x_max":0,"o":""},"φ":{"ha":79,"x_min":0,"x_max":0,"o":"m 64 361 b 335 736 64 568 185 736 l 335 708 b 92 361 201 708 92 551 b 432 14 92 151 222 19 l 432 569 b 571 736 432 686 476 736 b 828 361 703 736 828 567 b 460 -14 828 135 683 -8 b 92 361 236 -8 92 135 z m 488 569 l 488 14 b 828 361 697 19 828 151 b 599 708 828 551 711 708 b 488 569 525 708 488 676 z "},"χ":{"ha":-74,"x_min":0,"x_max":0,"o":"m 371 179 l 368 179 l 89 -306 l 57 -306 l 353 208 l 57 722 l 89 722 l 368 238 l 371 238 l 650 722 l 682 722 l 386 208 l 682 -306 l 650 -306 z "},"ψ":{"ha":121,"x_min":0,"x_max":0,"o":"m 481 958 l 481 14 b 607 340 481 232 486 340 b 588 85 842 340 588 214 b NaN NaN 588 -143 582 NaN l NaN NaN l NaN NaN l NaN NaN b NaN NaN NaN NaN NaN NaN b NaN NaN NaN NaN NaN NaN b NaN NaN NaN NaN NaN NaN l NaN NaN z "},"ω":{"ha":0,"x_min":0,"x_max":0,"o":""},"ί":{"ha":-226,"x_min":0,"x_max":0,"o":"m 376 1042 z m 210 722 z "},"ϊ":{"ha":-219,"x_min":0,"x_max":0,"o":"m -153 -292 l -153 -819 l -153 -292 z "},"ΐ":{"ha":-206,"x_min":0,"x_max":0,"o":"m 439 1319 z m 272 1028 l 300 1028 l 300 500 z "},"ύ":{"ha":0,"x_min":0,"x_max":0,"o":""},"ϋ":{"ha":-53,"x_min":0,"x_max":0,"o":""},"ΰ":{"ha":-53,"x_min":0,"x_max":0,"o":"m 511 1319 "},"ό":{"ha":379,"x_min":0,"x_max":0,"o":""},"ώ":{"ha":0,"x_min":0,"x_max":0,"o":""},"ά":{"ha":3,"x_min":0,"x_max":0,"o":""},"έ":{"ha":0,"x_min":0,"x_max":0,"o":"m 483 1042 "},"ή":{"ha":0,"x_min":0,"x_max":0,"o":""},"ͱ":{"ha":0,"x_min":0,"x_max":0,"o":"m 140 410 "},"ͳ":{"ha":-32,"x_min":0,"x_max":0,"o":"m 376 0 l 376 986 l 119 986 l 119 681 l 92 681 l 92 1014 l 689 1014 l 689 681 l 661 681 l 661 986 l 404 986 l 404 0 z "},"ͷ":{"ha":0,"x_min":0,"x_max":0,"o":"m 140 722 l 140 32 l 143 32 l 668 722 l 707 722 l 707 0 l 679 0 l 679 690 l 678 690 l 153 0 l 113 0 l 113 722 z "},"ͻ":{"ha":-108,"x_min":0,"x_max":0,"o":""},"ͼ":{"ha":-108,"x_min":0,"x_max":0,"o":"m 593 60 l 606 35 "},"ͽ":{"ha":-108,"x_min":0,"x_max":0,"o":""},"ϙ":{"ha":-60,"x_min":0,"x_max":0,"o":"m 390 -14 b 92 361 200 -7 92 128 b 404 736 92 600 206 736 b 717 361 603 736 717 600 b 418 -14 717 128 608 -7 "},"ϛ":{"ha":-129,"x_min":0,"x_max":0,"o":"m 335 -306 l 335 -11 b 64 361 158 10 64 135 b 376 736 64 607 178 736 b 571 701 442 736 507 725 b NaN 1000 571 801 456 1000 l NaN 1000 l NaN 972 l NaN 972 b NaN 974 NaN 972 NaN 972 l NaN 974 l NaN 681 z "},"ϝ":{"ha":-87,"x_min":0,"x_max":0,"o":"m 626 722 l 626 694 l 140 694 l 140 264 l 613 264 l 613 236 l 140 236 l 140 -306 l 113 -306 l 113 722 z "},"ϟ":{"ha":-46,"x_min":0,"x_max":0,"o":"m 106 375 l 696 375 l 696 347 l 390 -69 l 368 -53 l 661 347 l 71 347 l 71 375 l 376 792 l 399 775 z "},"ϡ":{"ha":357,"x_min":0,"x_max":0,"o":"m 469 633 b 1013 90 708 526 906 329 b 1099 -274 1065 -29 1094 -150 l 1071 -301 b 896 242 1069 -107 1011 74 l 465 -187 l 446 -168 l 879 265 b 643 500 818 350 736 433 "},"ϗ":{"ha":-101,"x_min":0,"x_max":0,"o":"m 161 375 l 640 0 l 474 -361 l 443 -361 l 606 -8 l 143 356 l 140 356 l 140 0 l 113 0 l 113 722 l 140 722 l 140 394 l 143 394 l 586 722 l 633 722 z "},"ϐ":{"ha":-32,"x_min":0,"x_max":0,"o":"m 397 -14 b 106 292 188 -14 106 68 b -200 424 106 743 -85 618 z m -200 451 b 92 729 -21 451 92 558 b -297 979 92 896 -37 979 b -547 722 -468 979 -547 899 l -547 271 b -283 -7 -547 65 -478 -7 z "},"ϑ":{"ha":-53,"x_min":0,"x_max":0,"o":"m 661 493 l 599 493 b 622 254 599 160 432 254 b 886 532 774 254 886 367 b 1171 25 886 222 997 25 b 1456 518 1342 25 1451 218 z m 1393 546 l 1456 546 b 1171 1039 1451 846 1342 1039 b 921 803 1025 1039 921 942 b 1393 546 921 632 1078 546 z "},"ϕ":{"ha":79,"x_min":0,"x_max":0,"o":"m 460 1042 l 460 736 b 311 1104 460 963 454 1104 b -62 735 85 1104 -57 961 b 86 367 -62 508 -57 367 b 460 736 313 367 454 510 l 460 1042 z m 460 14 l 460 708 b 119 361 250 703 119 571 b 460 14 119 151 250 19 z m 488 708 l 488 14 b 828 361 697 19 828 151 b 488 708 828 571 697 703 z "},"ϖ":{"ha":288,"x_min":0,"x_max":0,"o":"m 204 694 l 64 694 l 64 722 l 224 722 l 842 722 l 1036 722 l 1036 694 l 896 694 b 988 347 957 599 988 482 b 758 -14 988 125 882 -14 b 551 222 649 -14 579 65 l 549 222 b 342 -14 521 65 451 -14 b 113 151 218 -14 113 121 b NaN 364 113 268 174 364 z m NaN 364 l NaN 364 b NaN 267 NaN 299 NaN 267 b NaN 247 NaN 267 NaN 140 b NaN 508 NaN 376 NaN 508 l NaN 613 l NaN 613 l NaN 508 b NaN 113 NaN 244 NaN 113 b NaN 446 NaN 113 NaN 239 b NaN 793 NaN 583 NaN 699 z "},"ϰ":{"ha":149,"x_min":0,"x_max":0,"o":"m 239 56 l 772 722 l 800 722 b 682 278 721 536 682 388 b 890 14 682 82 739 14 l 890 -14 b 654 278 719 -14 654 68 b 729 622 654 374 679 488 l 726 622 l 231 0 l 203 0 l 258 569 b 71 708 268 676 231 708 l 71 736 b 286 567 247 736 299 694 l 236 56 z "},"ϱ":{"ha":-53,"x_min":0,"x_max":0,"o":"m 133 183 l 133 42 b 467 -292 133 -192 233 -292 l 647 -292 l 647 -319 l 467 -319 b 106 42 221 -319 106 -210 l 106 375 b 397 736 106 599 224 736 b 689 375 571 736 689 597 b 397 14 689 153 576 14 b 136 183 268 14 181 71 z m 661 375 b 397 708 661 576 557 708 b 64 NaN 269 708 64 NaN l 64 NaN b 328 NaN 64 NaN 160 NaN b 592 NaN 490 NaN 592 NaN z "},"ϲ":{"ha":-108,"x_min":0,"x_max":0,"o":"m 593 60 l 606 35 z "},"ϳ":{"ha":-365,"x_min":0,"x_max":0,"o":"m -292 -1347 l -292 -1082 l -264 -1082 b 0 -804 -51 -1082 0 -1032 l 0 -82 l 28 -82 l 28 -804 b -264 -1110 28 -1044 -35 -1110 z "},"ϵ":{"ha":-101,"x_min":0,"x_max":0,"o":"m 593 60 l 606 35 b 444 -47 574 35 513 -31 b 792 328 444 185 576 328 b 986 279 860 328 925 311 l 974 254 b 792 300 915 285 854 300 b 472 -33 596 300 478 176 l 944 -33 l 944 -61 l 472 -61 b 792 -394 478 -261 607 -394 b 974 -349 854 -394 915 -379 z "},"ϸ":{"ha":-46,"x_min":0,"x_max":0,"o":"m 143 158 l 140 158 l 140 -306 l 113 -306 l 113 1042 l 140 1042 l 140 564 l 143 564 z m 668 767 "},"ϻ":{"ha":182,"x_min":0,"x_max":0,"o":"m 496 271 l 499 271 l 838 722 l 882 722 l 882 0 l 854 0 l 854 696 l 853 696 l 515 247 l 479 247 l 143 696 l 140 696 l 140 -306 l 113 -306 l 113 722 l 157 722 z "},"ϼ":{"ha":-58,"x_min":0,"x_max":0,"o":"l 100 0 l 100 -167 l 600 -167 l 597 -167 l 597 -464 l 896 -464 l 896 -492 l 597 -492 l 597 -631 l 569 -631 m 597 36 l 597 1 z "},"ἀ":{"ha":3,"x_min":0,"x_max":0,"o":""},"ἁ":{"ha":3,"x_min":0,"x_max":0,"o":""},"ἂ":{"ha":3,"x_min":0,"x_max":0,"o":"m 189 1035 l 189 1063 b 356 965 300 1063 356 1031 b 279 819 356 914 331 865 l 238 819 b 328 965 297 868 328 917 b 189 1035 328 1011 282 1035 "},"ἃ":{"ha":3,"x_min":0,"x_max":0,"o":"m 356 1063 l 356 1035 b 217 965 263 1035 217 1011 b 307 819 217 917 247 868 l 265 819 b 189 965 214 865 189 914 b 356 1063 189 1031 244 1063 "},"ἄ":{"ha":3,"x_min":0,"x_max":0,"o":""},"ἅ":{"ha":3,"x_min":0,"x_max":0,"o":""},"ἆ":{"ha":3,"x_min":0,"x_max":0,"o":""},"ἇ":{"ha":3,"x_min":0,"x_max":0,"o":""},"ὰ":{"ha":0,"x_min":0,"x_max":0,"o":""},"ά":{"ha":0,"x_min":0,"x_max":0,"o":"m 594 1042 "},"ᾶ":{"ha":0,"x_min":0,"x_max":0,"o":""},"ᾰ":{"ha":0,"x_min":0,"x_max":0,"o":""},"ᾱ":{"ha":0,"x_min":0,"x_max":0,"o":""},"ᾳ":{"ha":0,"x_min":0,"x_max":0,"o":""},"ᾲ":{"ha":0,"x_min":0,"x_max":0,"o":""},"ᾴ":{"ha":3,"x_min":0,"x_max":0,"o":""},"ᾀ":{"ha":0,"x_min":0,"x_max":0,"o":"b -110 753 -83 3 -14 753 b -824 721 -783 753 -792 721 b NaN NaN -828 721 -861 NaN b NaN NaN NaN NaN NaN NaN l NaN NaN l NaN NaN l NaN NaN b NaN NaN NaN NaN NaN NaN "},"ᾁ":{"ha":0,"x_min":0,"x_max":0,"o":"b -110 753 -83 3 -14 753 b -824 721 -783 753 -792 721 b NaN NaN -828 721 -861 NaN b NaN NaN NaN NaN NaN NaN l NaN NaN l NaN NaN l NaN NaN b NaN NaN NaN NaN NaN NaN "},"ᾂ":{"ha":0,"x_min":0,"x_max":0,"o":"m 189 1035 l 189 1063 b 356 965 300 1063 356 1031 b 279 819 356 914 331 865 l 238 819 b 328 965 297 868 328 917 b 189 1035 328 1011 282 1035 "},"ᾃ":{"ha":0,"x_min":0,"x_max":0,"o":"m 356 1063 l 356 1035 b 217 965 263 1035 217 1011 b 307 819 217 917 247 868 l 265 819 b 189 965 214 865 189 914 b 356 1063 189 1031 244 1063 "},"ᾄ":{"ha":0,"x_min":0,"x_max":0,"o":"b -110 753 -83 3 -14 753 b -824 721 -783 753 -792 721 b NaN NaN -828 721 -861 NaN b NaN NaN NaN NaN NaN NaN l NaN NaN l NaN NaN l NaN NaN b NaN NaN NaN NaN NaN NaN "},"ᾅ":{"ha":0,"x_min":0,"x_max":0,"o":"b -110 753 -83 3 -14 753 b -824 721 -783 753 -792 721 b NaN NaN -828 721 -861 NaN b NaN NaN NaN NaN NaN NaN l NaN NaN l NaN NaN l NaN NaN b NaN NaN NaN NaN NaN NaN "},"ᾆ":{"ha":0,"x_min":0,"x_max":0,"o":"b -110 753 -83 3 -14 753 b -824 721 -783 753 -792 721 b NaN NaN -828 721 -861 NaN b NaN NaN NaN NaN NaN NaN l NaN NaN l NaN NaN l NaN NaN b NaN NaN NaN NaN NaN NaN "},"ᾇ":{"ha":0,"x_min":0,"x_max":0,"o":"b -110 753 -83 3 -14 753 b -824 721 -783 753 -792 721 b NaN NaN -828 721 -861 NaN b NaN NaN NaN NaN NaN NaN l NaN NaN l NaN NaN l NaN NaN b NaN NaN NaN NaN NaN NaN "},"ᾷ":{"ha":0,"x_min":0,"x_max":0,"o":""},"ἐ":{"ha":0,"x_min":0,"x_max":0,"o":""},"ἑ":{"ha":0,"x_min":0,"x_max":0,"o":""},"ἒ":{"ha":0,"x_min":0,"x_max":0,"o":""},"ἓ":{"ha":0,"x_min":0,"x_max":0,"o":"m NaN -21 l NaN -21 l NaN -243 l NaN -243 "},"ἔ":{"ha":0,"x_min":0,"x_max":0,"o":""},"ἕ":{"ha":0,"x_min":0,"x_max":0,"o":"m NaN -243 l NaN -465 "},"ὲ":{"ha":0,"x_min":0,"x_max":0,"o":""},"έ":{"ha":0,"x_min":0,"x_max":0,"o":"m 525 1042 "},"ἠ":{"ha":-67,"x_min":0,"x_max":0,"o":""},"ἡ":{"ha":-67,"x_min":0,"x_max":0,"o":""},"ἢ":{"ha":-67,"x_min":0,"x_max":0,"o":"l 0 722 l 28 722 "},"ἣ":{"ha":-67,"x_min":0,"x_max":0,"o":""},"ἤ":{"ha":-67,"x_min":0,"x_max":0,"o":"b 179 24 133 0 244 56 b NaN NaN 179 -28 133 NaN l NaN NaN b NaN NaN NaN NaN NaN NaN b NaN NaN NaN NaN NaN NaN l NaN NaN l NaN NaN "},"ἥ":{"ha":-67,"x_min":0,"x_max":0,"o":""},"ἦ":{"ha":-67,"x_min":0,"x_max":0,"o":""},"ἧ":{"ha":0,"x_min":0,"x_max":0,"o":""},"ὴ":{"ha":0,"x_min":0,"x_max":0,"o":""},"ή":{"ha":0,"x_min":0,"x_max":0,"o":"m 539 1042 "},"ῆ":{"ha":0,"x_min":0,"x_max":0,"o":"l 0 722 l 28 722 "},"ῃ":{"ha":0,"x_min":0,"x_max":0,"o":""},"ῂ":{"ha":0,"x_min":0,"x_max":0,"o":""},"ῄ":{"ha":-67,"x_min":0,"x_max":0,"o":"m 456 1056 "},"ᾐ":{"ha":0,"x_min":0,"x_max":0,"o":"b -39 83 -67 0 -150 83 b -1121 51 -1081 83 -1089 51 b NaN NaN -1125 51 -1158 NaN b NaN NaN NaN NaN NaN NaN l NaN NaN l NaN NaN l NaN NaN b NaN NaN NaN NaN NaN NaN "},"ᾑ":{"ha":0,"x_min":0,"x_max":0,"o":"b -39 83 -67 0 -150 83 b -1121 51 -1081 83 -1089 51 b NaN NaN -1125 51 -1158 NaN b NaN NaN NaN NaN NaN NaN l NaN NaN l NaN NaN l NaN NaN b NaN NaN NaN NaN NaN NaN "},"ᾒ":{"ha":-67,"x_min":0,"x_max":0,"o":""},"ᾓ":{"ha":0,"x_min":0,"x_max":0,"o":"b -39 83 -67 0 -150 83 b -1121 51 -1081 83 -1089 51 b NaN NaN -1125 51 -1158 NaN b NaN NaN NaN NaN NaN NaN l NaN NaN l NaN NaN l NaN NaN b NaN NaN NaN NaN NaN NaN "},"ᾔ":{"ha":-67,"x_min":0,"x_max":0,"o":"b 179 24 133 0 244 56 b NaN NaN 179 -28 133 NaN l NaN NaN b NaN NaN NaN NaN NaN NaN b NaN NaN NaN NaN NaN NaN "},"ᾕ":{"ha":0,"x_min":0,"x_max":0,"o":"b -39 83 -67 0 -150 83 b -1121 51 -1081 83 -1089 51 b NaN NaN -1125 51 -1158 NaN b NaN NaN NaN NaN NaN NaN l NaN NaN l NaN NaN l NaN NaN b NaN NaN NaN NaN NaN NaN "},"ᾖ":{"ha":-67,"x_min":0,"x_max":0,"o":""},"ᾗ":{"ha":0,"x_min":0,"x_max":0,"o":""},"ῇ":{"ha":-67,"x_min":0,"x_max":0,"o":""},"ἰ":{"ha":-226,"x_min":0,"x_max":0,"o":"m 63 -312 z "},"ἱ":{"ha":-226,"x_min":0,"x_max":0,"o":"m -174 -340 z "},"ἲ":{"ha":-206,"x_min":0,"x_max":0,"o":"m -264 -97 l -249 -97 l -249 -69 l -776 -69 z "},"ἳ":{"ha":-206,"x_min":0,"x_max":0,"o":"m -264 -97 l -82 -97 l -82 -69 l -610 -69 z "},"ἴ":{"ha":-206,"x_min":0,"x_max":0,"o":"m -132 -97 l 146 -97 l 146 -69 l -382 -69 z "},"ἵ":{"ha":-206,"x_min":0,"x_max":0,"o":"m -132 -97 l 50 -97 l 50 -69 l -478 -69 z "},"ἶ":{"ha":-226,"x_min":0,"x_max":0,"o":"m 42 -312 z "},"ἷ":{"ha":-226,"x_min":0,"x_max":0,"o":"m -153 -340 z "},"ὶ":{"ha":-226,"x_min":0,"x_max":0,"o":"m 79 -319 z "},"ί":{"ha":-226,"x_min":0,"x_max":0,"o":"m 400 1042 z m 210 722 z "},"ῖ":{"ha":-164,"x_min":0,"x_max":0,"o":"m 174 -111 l 279 -111 l 279 722 l 307 722 l 307 194 z "},"ῐ":{"ha":-199,"x_min":0,"x_max":0,"o":"m 174 -278 z "},"ῑ":{"ha":-178,"x_min":0,"x_max":0,"o":"m -278 -236 l 265 -236 l 265 -208 l -262 -208 z "},"ῒ":{"ha":-185,"x_min":0,"x_max":0,"o":"b -49 293 28 300 -8 293 b -236 NaN -192 293 -236 NaN "},"ΐ":{"ha":-219,"x_min":0,"x_max":0,"o":"m 439 1319 b 85 1313 161 1319 124 1313 b -103 NaN -58 1313 -103 NaN z "},"ῗ":{"ha":-164,"x_min":0,"x_max":0,"o":"l 76 0 l 76 -264 l 49 -264 l 49 -97 l 76 -97 m -104 -389 b NaN NaN -111 -426 -150 NaN b NaN NaN NaN NaN NaN NaN z "},"ὀ":{"ha":258,"x_min":0,"x_max":0,"o":""},"ὁ":{"ha":494,"x_min":0,"x_max":0,"o":""},"ὂ":{"ha":140,"x_min":0,"x_max":0,"o":""},"ὃ":{"ha":307,"x_min":0,"x_max":0,"o":""},"ὄ":{"ha":140,"x_min":0,"x_max":0,"o":""},"ὅ":{"ha":307,"x_min":0,"x_max":0,"o":""},"ὸ":{"ha":408,"x_min":0,"x_max":0,"o":""},"ό":{"ha":96,"x_min":0,"x_max":0,"o":"m 546 1042 z "},"ῤ":{"ha":-60,"x_min":0,"x_max":0,"o":""},"ῥ":{"ha":-60,"x_min":0,"x_max":0,"o":""},"ὐ":{"ha":0,"x_min":0,"x_max":0,"o":""},"ὑ":{"ha":0,"x_min":0,"x_max":0,"o":""},"ὒ":{"ha":0,"x_min":0,"x_max":0,"o":""},"ὓ":{"ha":0,"x_min":0,"x_max":0,"o":""},"ὔ":{"ha":0,"x_min":0,"x_max":0,"o":""},"ὕ":{"ha":0,"x_min":0,"x_max":0,"o":""},"ὖ":{"ha":-53,"x_min":0,"x_max":0,"o":""},"ὗ":{"ha":0,"x_min":0,"x_max":0,"o":""},"ὺ":{"ha":0,"x_min":0,"x_max":0,"o":""},"ύ":{"ha":-53,"x_min":0,"x_max":0,"o":""},"ῦ":{"ha":0,"x_min":0,"x_max":0,"o":""},"ῠ":{"ha":0,"x_min":0,"x_max":0,"o":""},"ῡ":{"ha":0,"x_min":0,"x_max":0,"o":""},"ῢ":{"ha":0,"x_min":0,"x_max":0,"o":""},"ΰ":{"ha":-53,"x_min":0,"x_max":0,"o":"m 571 1319 "},"ῧ":{"ha":-53,"x_min":0,"x_max":0,"o":""},"ὠ":{"ha":0,"x_min":0,"x_max":0,"o":""},"ὡ":{"ha":0,"x_min":0,"x_max":0,"o":""},"ὢ":{"ha":232,"x_min":0,"x_max":0,"o":"m 286 1035 l 286 1757 l 383 1757 l 383 1785 b 550 1688 494 1785 550 1753 b 474 1542 550 1636 525 1588 l 432 1542 b 522 1688 492 1590 522 1639 b 383 1757 522 1733 476 1757 "},"ὣ":{"ha":232,"x_min":0,"x_max":0,"o":"m 453 1063 l 453 1785 l 550 1785 l 550 1757 b 411 1688 457 1757 411 1733 b 501 1542 411 1639 442 1590 l 460 1542 b 383 1688 408 1588 383 1636 b 550 1785 383 1753 439 1785 "},"ὤ":{"ha":232,"x_min":0,"x_max":0,"o":""},"ὥ":{"ha":232,"x_min":0,"x_max":0,"o":""},"ὦ":{"ha":232,"x_min":0,"x_max":0,"o":"b -229 186 -124 0 -229 149 b NaN 413 -229 311 -156 413 l NaN 413 b NaN 294 NaN 333 NaN 294 b NaN 275 NaN 294 NaN 168 b NaN 536 NaN 404 NaN 536 l NaN 536 l NaN 307 b NaN -89 NaN 43 NaN -89 b NaN 244 NaN -89 NaN 38 b NaN 469 NaN 369 NaN 469 l NaN 469 b NaN 581 NaN 543 NaN 581 b NaN NaN NaN 581 NaN 457 "},"ὧ":{"ha":0,"x_min":0,"x_max":0,"o":""},"ὼ":{"ha":0,"x_min":0,"x_max":0,"o":""},"ώ":{"ha":232,"x_min":0,"x_max":0,"o":"m 692 1042 "},"ῶ":{"ha":0,"x_min":0,"x_max":0,"o":""},"ῳ":{"ha":0,"x_min":0,"x_max":0,"o":""},"ῲ":{"ha":0,"x_min":0,"x_max":0,"o":""},"ῴ":{"ha":0,"x_min":0,"x_max":0,"o":"m 608 1042 "},"ᾠ":{"ha":0,"x_min":0,"x_max":0,"o":""},"ᾡ":{"ha":0,"x_min":0,"x_max":0,"o":""},"ᾢ":{"ha":286,"x_min":0,"x_max":0,"o":"m 0 -833 "},"ᾣ":{"ha":453,"x_min":0,"x_max":0,"o":"m 0 -833 "},"ᾤ":{"ha":0,"x_min":0,"x_max":0,"o":"b 10 69 232 0 149 69 b -336 38 -296 69 -304 38 b NaN NaN -340 38 -374 NaN b NaN NaN NaN NaN NaN NaN l NaN NaN l NaN NaN l NaN NaN b NaN NaN NaN NaN NaN NaN "},"ᾥ":{"ha":0,"x_min":0,"x_max":0,"o":"b 10 69 232 0 149 69 b -336 38 -296 69 -304 38 b NaN NaN -340 38 -374 NaN b NaN NaN NaN NaN NaN NaN l NaN NaN l NaN NaN l NaN NaN b NaN NaN NaN NaN NaN NaN "},"ᾦ":{"ha":232,"x_min":0,"x_max":0,"o":"b -229 186 -124 0 -229 149 b NaN 413 -229 311 -156 413 l NaN 413 b NaN 294 NaN 333 NaN 294 b NaN 275 NaN 294 NaN 168 b NaN 536 NaN 404 NaN 536 l NaN 536 l NaN 307 b NaN -89 NaN 43 NaN -89 b NaN 244 NaN -89 NaN 38 b NaN 469 NaN 369 NaN 469 l NaN 469 b NaN 581 NaN 543 NaN 581 b NaN NaN NaN 581 NaN 457 "},"ᾧ":{"ha":232,"x_min":0,"x_max":0,"o":"m 111 -1076 "},"ῷ":{"ha":0,"x_min":0,"x_max":0,"o":""},"ι":{"ha":-386,"x_min":0,"x_max":0,"o":""},"ͺ":{"ha":-365,"x_min":0,"x_max":0,"o":"m 126 -167 l 126 -83 l 154 -83 l 154 -167 b 18 -72 11 -167 18 -176 b 156 -168 18 -194 1 -168 z "},"ᵞ":{"ha":-312,"x_min":0,"x_max":0,"o":"m 249 476 l 251 476 b 418 839 282 581 338 701 l 450 839 b 264 422 353 676 290 538 l 264 222 l 236 222 l 236 422 b 50 839 210 538 147 676 l 82 839 b 249 476 163 701 218 581 z "},"ᵠ":{"ha":-231,"x_min":0,"x_max":0,"o":"m 278 222 l 278 397 b 57 622 143 403 57 490 b 219 847 57 746 129 847 l 219 819 b 85 622 146 819 85 729 b 278 425 85 506 157 431 l 278 747 b 367 847 278 818 304 847 b 525 622 450 847 525 746 b 306 397 525 488 440 403 l 306 222 z m 306 747 l 306 425 b 497 622 426 431 497 504 b 367 819 497 733 432 819 b 306 747 322 819 306 804 z "},"⺅":{"ha":0,"x_min":0,"x_max":0,"o":""},"⺉":{"ha":0,"x_min":0,"x_max":0,"o":""},"⺌":{"ha":0,"x_min":0,"x_max":0,"o":"m 708 331 l 681 331 l 681 739 l 708 739 z m 433 371 l 411 357 b 194 661 343 464 271 565 l 215 679 b 433 371 286 592 358 489 z m 978 356 l 956 372 b 1172 678 1043 482 1115 583 l 1196 663 b 978 356 1133 561 1061 458 z "},"⺍":{"ha":0,"x_min":0,"x_max":0,"o":"m 754 397 l 729 385 b 554 704 672 508 614 614 l 576 718 b 754 397 639 622 699 515 z m 211 439 l 393 369 l 369 358 b 193 663 317 465 258 567 l 215 678 b 393 369 278 588 336 485 z "},"⺎":{"ha":0,"x_min":0,"x_max":0,"o":""},"⺐":{"ha":0,"x_min":0,"x_max":0,"o":""},"⺒":{"ha":0,"x_min":0,"x_max":0,"o":""},"⺓":{"ha":0,"x_min":0,"x_max":0,"o":""},"⺔":{"ha":0,"x_min":0,"x_max":0,"o":""},"⺖":{"ha":0,"x_min":0,"x_max":0,"o":""},"⺘":{"ha":0,"x_min":0,"x_max":0,"o":""},"⺙":{"ha":0,"x_min":0,"x_max":0,"o":""},"⺟":{"ha":0,"x_min":0,"x_max":0,"o":""},"⺠":{"ha":0,"x_min":0,"x_max":0,"o":""},"⺡":{"ha":0,"x_min":0,"x_max":0,"o":""},"⺢":{"ha":0,"x_min":0,"x_max":0,"o":""},"⺣":{"ha":0,"x_min":0,"x_max":0,"o":""},"⺨":{"ha":0,"x_min":0,"x_max":0,"o":""},"⺫":{"ha":0,"x_min":0,"x_max":0,"o":""},"⺭":{"ha":0,"x_min":0,"x_max":0,"o":""},"⺮":{"ha":0,"x_min":0,"x_max":0,"o":"m 636 361 l 617 381 b 899 838 743 510 849 681 b 838 NaN 925 829 908 792 l 1288 NaN l 1288 NaN l 967 NaN b 1056 NaN 993 NaN 1022 NaN l 1029 NaN b 938 NaN 1004 NaN 974 NaN l 822 NaN b 631 NaN 768 NaN 704 NaN z m 101 NaN l 79 NaN b 308 NaN 186 NaN 274 NaN l 335 NaN b 281 NaN 322 NaN 304 NaN l 703 NaN l 703 NaN l 394 NaN b 485 NaN 432 NaN 463 NaN l 458 NaN b 365 NaN 440 NaN 408 NaN l 271 NaN b 101 NaN 225 NaN 169 NaN z "},"⺲":{"ha":0,"x_min":0,"x_max":0,"o":""},"⺹":{"ha":0,"x_min":0,"x_max":0,"o":""},"⺼":{"ha":0,"x_min":0,"x_max":0,"o":"m 926 51 l 926 1024 l 483 1024 l 483 554 b 261 -87 483 250 421 72 l 243 -69 b 456 554 397 82 456 258 l 456 1051 l 953 1051 l 953 51 b 836 -50 843 51 836 38 b 776 -10 836 -78 776 -10 b 872 NaN 776 -10 872 NaN z m 811 NaN l 796 NaN b 492 NaN 686 NaN 585 NaN l 504 NaN b 811 NaN 601 NaN 704 NaN z m 811 NaN l 796 NaN b 492 NaN 693 NaN 592 NaN l 504 NaN b 811 NaN 603 NaN 706 NaN z "},"⺾":{"ha":0,"x_min":0,"x_max":0,"o":""},"⻂":{"ha":0,"x_min":0,"x_max":0,"o":""},"⻃":{"ha":0,"x_min":0,"x_max":0,"o":""},"⻄":{"ha":0,"x_min":0,"x_max":0,"o":""},"⻊":{"ha":0,"x_min":0,"x_max":0,"o":""},"⻌":{"ha":0,"x_min":0,"x_max":0,"o":"m 126 1035 l 146 1054 b 364 822 219 982 293 904 l 344 804 b 126 1035 279 881 206 957 z "},"⻍":{"ha":0,"x_min":0,"x_max":0,"o":"m 0 -314 "},"⻑":{"ha":0,"x_min":0,"x_max":0,"o":""},"⻗":{"ha":0,"x_min":0,"x_max":0,"o":"m 708 800 l 708 664 l 1253 664 l 1253 336 l 1225 336 l 1225 636 l 708 636 l 708 228 l 681 228 l 681 636 l 164 636 l 164 336 l 136 336 l 136 664 l 681 664 l 681 800 l 178 800 l 178 826 l 1211 826 l 1211 800 l 1211 828 l 1539 828 l 1539 856 l 1867 856 z m 1322 651 l 994 651 l 994 679 l 1322 679 z m 1867 651 l 1539 651 l 1539 679 l 1867 679 z "},"⻘":{"ha":0,"x_min":0,"x_max":0,"o":""},"⻟":{"ha":0,"x_min":0,"x_max":0,"o":""},"⻨":{"ha":0,"x_min":0,"x_max":0,"o":""},"⻩":{"ha":0,"x_min":0,"x_max":0,"o":""},"⻫":{"ha":0,"x_min":0,"x_max":0,"o":""},"⻭":{"ha":0,"x_min":0,"x_max":0,"o":""},"⻯":{"ha":0,"x_min":0,"x_max":0,"o":""},"⻲":{"ha":0,"x_min":0,"x_max":0,"o":""},"⼀":{"ha":0,"x_min":0,"x_max":0,"o":""},"⼁":{"ha":-99,"x_min":0,"x_max":0,"o":"m 1197 -99 l 1169 -99 l 1169 1099 l 1197 1099 z "},"⼂":{"ha":0,"x_min":0,"x_max":0,"o":""},"⼃":{"ha":0,"x_min":0,"x_max":0,"o":""},"⼄":{"ha":0,"x_min":0,"x_max":0,"o":""},"⼅":{"ha":0,"x_min":0,"x_max":0,"o":""},"⼆":{"ha":0,"x_min":0,"x_max":0,"o":""},"⼇":{"ha":0,"x_min":0,"x_max":0,"o":""},"⼈":{"ha":0,"x_min":0,"x_max":0,"o":""},"⼉":{"ha":0,"x_min":0,"x_max":0,"o":""},"⼊":{"ha":0,"x_min":0,"x_max":0,"o":""},"⼋":{"ha":0,"x_min":0,"x_max":0,"o":""},"⼌":{"ha":0,"x_min":0,"x_max":0,"o":""},"⼍":{"ha":0,"x_min":0,"x_max":0,"o":""},"⼎":{"ha":0,"x_min":0,"x_max":0,"o":""},"⼏":{"ha":0,"x_min":0,"x_max":0,"o":""},"⼐":{"ha":0,"x_min":0,"x_max":0,"o":""},"⼑":{"ha":0,"x_min":0,"x_max":0,"o":""},"⼒":{"ha":0,"x_min":0,"x_max":0,"o":""},"⼓":{"ha":0,"x_min":0,"x_max":0,"o":""},"⼔":{"ha":0,"x_min":0,"x_max":0,"o":""},"⼕":{"ha":0,"x_min":0,"x_max":0,"o":""},"⼖":{"ha":0,"x_min":0,"x_max":0,"o":""},"⼗":{"ha":0,"x_min":0,"x_max":0,"o":""},"⼘":{"ha":0,"x_min":0,"x_max":0,"o":""},"⼙":{"ha":0,"x_min":0,"x_max":0,"o":""},"⼚":{"ha":0,"x_min":0,"x_max":0,"o":""},"⼛":{"ha":0,"x_min":0,"x_max":0,"o":""},"⼜":{"ha":0,"x_min":0,"x_max":0,"o":""},"⼝":{"ha":0,"x_min":0,"x_max":0,"o":""},"⼞":{"ha":0,"x_min":0,"x_max":0,"o":""},"⼟":{"ha":0,"x_min":0,"x_max":0,"o":""},"⼠":{"ha":0,"x_min":0,"x_max":0,"o":""},"⼡":{"ha":0,"x_min":0,"x_max":0,"o":""},"⼢":{"ha":0,"x_min":0,"x_max":0,"o":""},"⼣":{"ha":0,"x_min":0,"x_max":0,"o":""},"⼤":{"ha":0,"x_min":0,"x_max":0,"o":"m 681 826 l 953 826 l 953 854 l 681 854 l 681 1413 l 654 1413 l 654 854 l 96 854 l 96 881 z "},"⼥":{"ha":0,"x_min":0,"x_max":0,"o":""},"⼦":{"ha":0,"x_min":0,"x_max":0,"o":""},"⼧":{"ha":0,"x_min":0,"x_max":0,"o":""},"⼨":{"ha":0,"x_min":0,"x_max":0,"o":""},"⼩":{"ha":0,"x_min":0,"x_max":0,"o":""},"⼪":{"ha":0,"x_min":0,"x_max":0,"o":""},"⼫":{"ha":0,"x_min":0,"x_max":0,"o":""},"⼬":{"ha":0,"x_min":0,"x_max":0,"o":""},"⼭":{"ha":0,"x_min":0,"x_max":0,"o":""},"⼮":{"ha":0,"x_min":0,"x_max":0,"o":""},"⼯":{"ha":0,"x_min":0,"x_max":0,"o":""},"⼰":{"ha":0,"x_min":0,"x_max":0,"o":"m 1103 608 l 1103 1004 l 232 1004 l 232 1031 l 1131 1031 l 1131 1526 z "},"⼱":{"ha":0,"x_min":0,"x_max":0,"o":""},"⼲":{"ha":0,"x_min":0,"x_max":0,"o":""},"⼳":{"ha":0,"x_min":0,"x_max":0,"o":""},"⼴":{"ha":0,"x_min":0,"x_max":0,"o":"m 1239 936 l 1239 -57 l 939 -57 l 939 269 l 1443 269 l 1443 447 l 1469 447 l 1469 269 l 1960 269 z "},"⼵":{"ha":0,"x_min":0,"x_max":0,"o":""},"⼶":{"ha":0,"x_min":0,"x_max":0,"o":""},"⼷":{"ha":0,"x_min":0,"x_max":0,"o":""},"⼸":{"ha":0,"x_min":0,"x_max":0,"o":""},"⼺":{"ha":0,"x_min":0,"x_max":0,"o":""},"⼻":{"ha":0,"x_min":0,"x_max":0,"o":""},"⼼":{"ha":0,"x_min":0,"x_max":0,"o":""},"⼽":{"ha":0,"x_min":0,"x_max":0,"o":""},"⼾":{"ha":0,"x_min":0,"x_max":0,"o":""},"⼿":{"ha":0,"x_min":0,"x_max":0,"o":""},"⽀":{"ha":0,"x_min":0,"x_max":0,"o":"l -854 0 "},"⽁":{"ha":0,"x_min":0,"x_max":0,"o":"l -882 0 "},"⽂":{"ha":0,"x_min":0,"x_max":0,"o":""},"⽃":{"ha":0,"x_min":0,"x_max":0,"o":""},"⽄":{"ha":0,"x_min":0,"x_max":0,"o":""},"⽅":{"ha":0,"x_min":0,"x_max":0,"o":""},"⽆":{"ha":0,"x_min":0,"x_max":0,"o":""},"⽇":{"ha":0,"x_min":0,"x_max":0,"o":""},"⽈":{"ha":0,"x_min":0,"x_max":0,"o":""},"⽉":{"ha":0,"x_min":0,"x_max":0,"o":""},"⽊":{"ha":0,"x_min":0,"x_max":0,"o":""},"⽋":{"ha":0,"x_min":0,"x_max":0,"o":""},"⽌":{"ha":0,"x_min":0,"x_max":0,"o":""},"⽍":{"ha":0,"x_min":0,"x_max":0,"o":""},"⽎":{"ha":0,"x_min":0,"x_max":0,"o":""},"⽏":{"ha":0,"x_min":0,"x_max":0,"o":""},"⽐":{"ha":0,"x_min":0,"x_max":0,"o":""},"⽑":{"ha":0,"x_min":0,"x_max":0,"o":"m 164 922 l 163 949 b 1140 1071 558 963 885 1003 l 1147 1044 b 551 946 976 999 778 967 l 551 686 l 1224 738 l 1226 711 l 551 660 l 551 379 l 1292 439 l 1294 411 l 551 353 l 551 78 l 824 78 l 396 44 l 393 71 l 824 106 l 824 385 l 464 357 l 461 385 l 824 413 l 824 672 b 463 650 692 661 572 654 z "},"⽒":{"ha":0,"x_min":0,"x_max":0,"o":""},"⽓":{"ha":0,"x_min":0,"x_max":0,"o":""},"⽔":{"ha":0,"x_min":0,"x_max":0,"o":""},"⽕":{"ha":0,"x_min":0,"x_max":0,"o":""},"⽖":{"ha":0,"x_min":0,"x_max":0,"o":""},"⽗":{"ha":0,"x_min":0,"x_max":0,"o":"m 115 624 l 103 647 b 561 1053 301 761 454 896 l 583 1036 b 115 624 476 879 319 742 z m 782 1026 l 797 1049 b 1289 639 988 915 1151 779 l 1269 619 b 782 1026 1131 761 968 897 "},"⽘":{"ha":0,"x_min":0,"x_max":0,"o":""},"⽙":{"ha":0,"x_min":0,"x_max":0,"o":""},"⽚":{"ha":0,"x_min":0,"x_max":0,"o":""},"⽛":{"ha":0,"x_min":0,"x_max":0,"o":""},"⽜":{"ha":0,"x_min":0,"x_max":0,"o":""},"⽝":{"ha":0,"x_min":0,"x_max":0,"o":""},"⽞":{"ha":0,"x_min":0,"x_max":0,"o":""},"⽟":{"ha":0,"x_min":0,"x_max":0,"o":""},"⽠":{"ha":0,"x_min":0,"x_max":0,"o":""},"⽡":{"ha":0,"x_min":0,"x_max":0,"o":""},"⽢":{"ha":0,"x_min":0,"x_max":0,"o":""},"⽣":{"ha":0,"x_min":0,"x_max":0,"o":""},"⽤":{"ha":0,"x_min":0,"x_max":0,"o":""},"⽥":{"ha":0,"x_min":0,"x_max":0,"o":""},"⽦":{"ha":0,"x_min":0,"x_max":0,"o":""},"⽧":{"ha":0,"x_min":0,"x_max":0,"o":""},"⽨":{"ha":0,"x_min":0,"x_max":0,"o":""},"⽩":{"ha":0,"x_min":0,"x_max":0,"o":""},"⽪":{"ha":0,"x_min":0,"x_max":0,"o":""},"⽫":{"ha":0,"x_min":0,"x_max":0,"o":""},"⽬":{"ha":0,"x_min":0,"x_max":0,"o":""},"⽭":{"ha":0,"x_min":0,"x_max":0,"o":""},"⽮":{"ha":0,"x_min":0,"x_max":0,"o":""},"⽯":{"ha":0,"x_min":0,"x_max":0,"o":""},"⽰":{"ha":0,"x_min":0,"x_max":0,"o":""},"⽱":{"ha":0,"x_min":0,"x_max":0,"o":""},"⽲":{"ha":0,"x_min":0,"x_max":0,"o":""},"⽳":{"ha":0,"x_min":0,"x_max":0,"o":""},"⽴":{"ha":0,"x_min":0,"x_max":0,"o":""},"⽵":{"ha":0,"x_min":0,"x_max":0,"o":""},"⽶":{"ha":0,"x_min":0,"x_max":0,"o":""},"⽷":{"ha":0,"x_min":0,"x_max":0,"o":""},"⽸":{"ha":0,"x_min":0,"x_max":0,"o":""},"⽹":{"ha":0,"x_min":0,"x_max":0,"o":""},"⽺":{"ha":0,"x_min":0,"x_max":0,"o":""},"⽻":{"ha":0,"x_min":0,"x_max":0,"o":""},"⽼":{"ha":0,"x_min":0,"x_max":0,"o":""},"⽽":{"ha":0,"x_min":0,"x_max":0,"o":""},"⽾":{"ha":0,"x_min":0,"x_max":0,"o":""},"⽿":{"ha":0,"x_min":0,"x_max":0,"o":""},"⾀":{"ha":0,"x_min":0,"x_max":0,"o":""},"⾁":{"ha":0,"x_min":0,"x_max":0,"o":""},"⾂":{"ha":0,"x_min":0,"x_max":0,"o":""},"⾃":{"ha":0,"x_min":0,"x_max":0,"o":""},"⾄":{"ha":0,"x_min":0,"x_max":0,"o":""},"⾅":{"ha":0,"x_min":0,"x_max":0,"o":""},"⾆":{"ha":0,"x_min":0,"x_max":0,"o":""},"⾇":{"ha":0,"x_min":0,"x_max":0,"o":""},"⾈":{"ha":0,"x_min":0,"x_max":0,"o":""},"⾉":{"ha":0,"x_min":0,"x_max":0,"o":""},"⾊":{"ha":0,"x_min":0,"x_max":0,"o":""},"⾋":{"ha":0,"x_min":0,"x_max":0,"o":""},"⾌":{"ha":0,"x_min":0,"x_max":0,"o":""},"⾍":{"ha":0,"x_min":0,"x_max":0,"o":""},"⾎":{"ha":0,"x_min":0,"x_max":0,"o":""},"⾏":{"ha":0,"x_min":0,"x_max":0,"o":""},"⾐":{"ha":0,"x_min":0,"x_max":0,"o":""},"⾑":{"ha":0,"x_min":0,"x_max":0,"o":""},"⾒":{"ha":0,"x_min":0,"x_max":0,"o":""},"⾓":{"ha":0,"x_min":0,"x_max":0,"o":""},"⾔":{"ha":0,"x_min":0,"x_max":0,"o":""},"⾕":{"ha":0,"x_min":0,"x_max":0,"o":""},"⾖":{"ha":0,"x_min":0,"x_max":0,"o":""},"⾗":{"ha":0,"x_min":0,"x_max":0,"o":""},"⾘":{"ha":0,"x_min":0,"x_max":0,"o":""},"⾙":{"ha":0,"x_min":0,"x_max":0,"o":""},"⾚":{"ha":0,"x_min":0,"x_max":0,"o":""},"⾛":{"ha":0,"x_min":0,"x_max":0,"o":""},"⾜":{"ha":0,"x_min":0,"x_max":0,"o":""},"⾝":{"ha":0,"x_min":0,"x_max":0,"o":""},"⾞":{"ha":0,"x_min":0,"x_max":0,"o":""},"⾟":{"ha":0,"x_min":0,"x_max":0,"o":""},"⾠":{"ha":0,"x_min":0,"x_max":0,"o":""},"⾡":{"ha":0,"x_min":0,"x_max":0,"o":""},"⾢":{"ha":0,"x_min":0,"x_max":0,"o":""},"⾣":{"ha":0,"x_min":0,"x_max":0,"o":""},"⾤":{"ha":0,"x_min":0,"x_max":0,"o":""},"⾥":{"ha":0,"x_min":0,"x_max":0,"o":""},"⾦":{"ha":0,"x_min":0,"x_max":0,"o":""},"⾧":{"ha":0,"x_min":0,"x_max":0,"o":""},"⾨":{"ha":0,"x_min":0,"x_max":0,"o":""},"⾩":{"ha":0,"x_min":0,"x_max":0,"o":""},"⾪":{"ha":0,"x_min":0,"x_max":0,"o":""},"⾫":{"ha":0,"x_min":0,"x_max":0,"o":""},"⾬":{"ha":0,"x_min":0,"x_max":0,"o":""},"⾮":{"ha":0,"x_min":0,"x_max":0,"o":""},"⾯":{"ha":0,"x_min":0,"x_max":0,"o":""},"⾰":{"ha":0,"x_min":0,"x_max":0,"o":""},"⾱":{"ha":0,"x_min":0,"x_max":0,"o":""},"⾲":{"ha":0,"x_min":0,"x_max":0,"o":""},"⾳":{"ha":0,"x_min":0,"x_max":0,"o":""},"⾴":{"ha":0,"x_min":0,"x_max":0,"o":""},"⾵":{"ha":0,"x_min":0,"x_max":0,"o":""},"⾶":{"ha":0,"x_min":0,"x_max":0,"o":""},"⾷":{"ha":0,"x_min":0,"x_max":0,"o":""},"⾸":{"ha":0,"x_min":0,"x_max":0,"o":""},"⾹":{"ha":0,"x_min":0,"x_max":0,"o":""},"⾺":{"ha":0,"x_min":0,"x_max":0,"o":""},"⾻":{"ha":0,"x_min":0,"x_max":0,"o":""},"⾼":{"ha":0,"x_min":0,"x_max":0,"o":""},"⾽":{"ha":0,"x_min":0,"x_max":0,"o":""},"⾾":{"ha":0,"x_min":0,"x_max":0,"o":""},"⾿":{"ha":0,"x_min":0,"x_max":0,"o":""},"⿀":{"ha":0,"x_min":0,"x_max":0,"o":""},"⿁":{"ha":0,"x_min":0,"x_max":0,"o":""},"⿂":{"ha":0,"x_min":0,"x_max":0,"o":""},"⿃":{"ha":0,"x_min":0,"x_max":0,"o":""},"⿄":{"ha":0,"x_min":0,"x_max":0,"o":""},"⿅":{"ha":0,"x_min":0,"x_max":0,"o":""},"⿆":{"ha":0,"x_min":0,"x_max":0,"o":""},"⿇":{"ha":0,"x_min":0,"x_max":0,"o":""},"⿉":{"ha":0,"x_min":0,"x_max":0,"o":""},"⿊":{"ha":0,"x_min":0,"x_max":0,"o":""},"⿋":{"ha":0,"x_min":0,"x_max":0,"o":""},"⿌":{"ha":0,"x_min":0,"x_max":0,"o":""},"⿍":{"ha":0,"x_min":0,"x_max":0,"o":""},"⿎":{"ha":0,"x_min":0,"x_max":0,"o":""},"⿏":{"ha":0,"x_min":0,"x_max":0,"o":""},"⿐":{"ha":0,"x_min":0,"x_max":0,"o":""},"⿑":{"ha":0,"x_min":0,"x_max":0,"o":""},"⿒":{"ha":0,"x_min":0,"x_max":0,"o":""},"⿓":{"ha":0,"x_min":0,"x_max":0,"o":""},"⿔":{"ha":0,"x_min":0,"x_max":0,"o":""},"⿕":{"ha":0,"x_min":0,"x_max":0,"o":""}}}
